<ttFont>
          <CharString index="0">
            hhcurveto
            -87 -72 165 callgsubr
            -59 -68 -30 -88 -1 -107 -1 -100 29 -85 60 -71 rrcurveto
            -70 61 72 -35 85 hhcurveto
            87 72 34 69 57 hvcurveto
            58 69 29 84 99 vvcurveto
            -111 2 rmoveto
            -96 -15 -76 -31 -57 vhcurveto
            -62 -33 -48 -31 -62 hhcurveto
            -132 175 callgsubr
            104 13 79 27 53 hvcurveto
            62 32 52 31 71 hhcurveto
            67 50 -33 -65 33 hvcurveto
            28 -56 14 -78 -101 vvcurveto
            return
          </CharString>
          <CharString index="1">
            1 13 1 12 12 vvcurveto
            56 -17 45 -33 36 vhcurveto
            39 -35 -45 19 -56 hhcurveto
            -68 -55 -26 -50 -41 hvcurveto
            -40 -48 -19 -57 -69 vvcurveto
            -66 19 -54 37 -40 vhcurveto
            -42 40 55 -21 71 hhcurveto
            70 58 29 58 47 hvcurveto
            -13 10 rlineto
            -31 -49 -40 -15 -30 hhcurveto
            -58 -44 18 35 -30 hvcurveto
            -29 32 -15 47 58 vvcurveto
            232 36 rmoveto
            -33 -2 -77 1 -121 3 rrcurveto
            51 13 41 24 29 vhcurveto
            27 23 30 14 39 hhcurveto
            32 26 -16 -33 19 hvcurveto
            17 -29 8 -39 -47 vvcurveto
            return
          </CharString>
          <CharString index="2">
            rmoveto
            63 -21 53 -43 42 vhcurveto
            43 -42 -53 22 -63 hhcurveto
            -155 -94 -99 -150 -67 20 -55 40 -43 hvcurveto
            41 -42 52 -22 149 callgsubr
            62 24 47 22 callsubr
            74 vvcurveto
            -91 -42 rmoveto
            -50 -10 -41 -19 -33 vhcurveto
            -38 -23 -32 -18 -42 hhcurveto
            -57 -43 26 54 -29 hvcurveto
            -23 43 -11 52 62 vvcurveto
            117 46 58 91 44 36 151 callsubr
            28 -45 15 -54 -65 vvcurveto
            return
          </CharString>
          <CharString index="3">
            -30 callgsubr
            8 -36 16 -22 vhcurveto
            -17 -15 -16 -29 -15 vhcurveto
            -13 -25 -21 -7 -19 hhcurveto
            -33 -25 20 39 -18 hvcurveto
            -15 31 -7 34 37 vvcurveto
            41 10 38 21 35 vhcurveto
            11 18 19 23 27 28 rrcurveto
            21 21 10 16 10 vvcurveto
            26 -13 13 -25 -45 -39 -32 -63 -33 vhcurveto
            -28 -54 -14 -52 -49 vvcurveto
            -58 13 -50 27 -43 vhcurveto
            -50 32 43 -25 53 hhcurveto
            57 45 29 58 34 hvcurveto
            return
          </CharString>
          <CharString index="4">
            -25 -26 -27 -13 -31 hhcurveto
            -42 -28 10 20 -16 hvcurveto
            -13 17 -6 29 42 vvcurveto
            292 -163 -27 47 vlineto
            21 11 -12 -22 2 hvcurveto
            -241 vlineto
            -54 5 -38 12 -22 vhcurveto
            -36 19 41 -18 60 hhcurveto
            77 59 31 62 41 hvcurveto
            return
          </CharString>
          <CharString index="5">
            25 24 12 20 16 vvcurveto
            40 -31 23 -36 -7 -8 -1 -3 -8 vhcurveto
            -25 -5 -28 -24 -25 vvcurveto
            -11 4 -5 8 6 5 3 7 4 vhcurveto
            9 17 11 9 13 1 rrcurveto
            return
          </CharString>
          <CharString index="6">
            47 23 -43 -87 -28 -7 -39 -13 -49 hvcurveto
            12 callgsubr
            79 hlineto
            9 49 10 49 10 49 16 73 19 56 21 39 rrcurveto
            53 29 33 27 39 hhcurveto
            43 21 -31 -61 -51 -12 -75 -25 -101 hvcurveto
            return
          </CharString>
          <CharString index="7">
            223 rmoveto
            72 -19 58 -39 44 vhcurveto
            45 -39 -50 22 -62 262 callgsubr
            -65 21 -55 42 -47 vhcurveto
            -46 43 49 -23 57 hhcurveto
            57 49 23 45 41 hvcurveto
            41 45 21 55 65 vvcurveto
            -101 -2 rmoveto
            280 callgsubr
            -43 -31 19 39 -17 hvcurveto
            -15 32 248 callsubr
            52 15 34 vhcurveto
            41 18 30 21 42 hhcurveto
            42 29 -21 -43 17 hvcurveto
            13 -33 7 -52 -71 vvcurveto
            return
          </CharString>
          <CharString index="8">
            rmoveto
            43 -15 47 -31 51 vhcurveto
            59 -34 -36 29 -39 hhcurveto
            -5 -5 -3 -6 -5 hvcurveto
            13 -18 13 -18 13 -19 rrcurveto
            25 -43 12 -47 -49 vvcurveto
            -57 -14 -54 -29 -51 vhcurveto
            -60 -34 -44 -30 -53 hhcurveto
            -37 -30 16 33 -22 hvcurveto
            return
          </CharString>
          <CharString index="9">
            521 453 rmoveto
            -151 -20 hlineto
            25 15 -2 -4 5 hvcurveto
            11 -11 6 -17 -23 vvcurveto
            -203 vlineto
            -104 -42 -52 -85 -83 -41 48 96 vhcurveto
            272 60 20 -212 -20 60 -287 vlineto
            -43 19 -37 38 -31 vhcurveto
            -31 38 47 -15 55 hhcurveto
            123 1 52 54 137 vvcurveto
            195 vlineto
            23 5 17 11 10 vhcurveto
            5 4 15 2 25 hhcurveto
            return
          </CharString>
          <CharString index="10">
            13 49 6 38 25 vvcurveto
            19 -3 16 -7 14 vhcurveto
            19 -9 -13 10 306 callsubr
            -9 -19 hvcurveto
            -23 -8 -11 -8 -9 -25 callsubr
            7 -15 -21 vvcurveto
            -18 -5 -28 -10 -37 vhcurveto
            return
          </CharString>
          <CharString index="11">
            442 158 126 callgsubr
            -26 -25 rrcurveto
            -16 -19 -39 -16 -24 hhcurveto
            -120 -2 rlineto
            194 77 vlineto
            36 22 -29 -52 hvcurveto
            24 183 -24 hlineto
            -27 -5 -20 -11 -14 vhcurveto
            -11 -8 -14 -5 -20 hhcurveto
            -77 186 hlineto
            105 -2 83 -1 30 -35 7 -71 rlinecurve
            27 hlineto
            -1 134 rlineto
            -403 -21 174 callsubr
            413 hlineto
            10 158 rlineto
            return
          </CharString>
          <CharString index="12">
            rmoveto
            118 -41 59 -81 -49 -39 -21 -43 -29 141 callgsubr
            -37 -24 -28 -36 -11 3 -11 5 -11 hvcurveto
            -13 6 8 -7 10 11 14 18 19 hhcurveto
            return
          </CharString>
          <CharString index="13">
            -7 41 30 229 callgsubr
            29 25 50 -3 hvcurveto
            -105 -141 rmoveto
            23 -26 13 -25 -23 -21 -6 -11 -19 vhcurveto
            -21 -13 -10 -17 -22 vvcurveto
            -27 13 -23 25 -19 vhcurveto
            -15 23 26 -7 92 callsubr
            6 hvcurveto
            -6 15 rlineto
            return
          </CharString>
          <CharString index="14">
            -27 -20 -14 -28 -37 vvcurveto
            -42 20 -35 40 -27 vhcurveto
            -28 40 50 -14 60 hhcurveto
            80 65 20 40 49 hvcurveto
            46 38 24 46 53 vvcurveto
            69 -39 37 -76 5 vhcurveto
            -156 12 -24 1 -16 2 -8 3 rlinecurve
            -17 6 -9 10 16 vvcurveto
            9 6 11 11 11 vhcurveto
            28 24 rlineto
            -3 9 9 -1 10 hhcurveto
            32 35 9 20 36 hvcurveto
            53 28 41 63 -3 61 -1 39 -16 33 -31 29 115 -10 rcurveline
            20 53 rlineto
            -169 -175 rmoveto
            -67 1 -42 -48 -60 hhcurveto
            return
          </CharString>
          <CharString index="15">
            10 31 5 24 -49 callsubr
            7 -36 15 -22 vhcurveto
            -18 callsubr
            33 37 vvcurveto
            42 10 38 21 34 vhcurveto
            11 19 19 23 27 28 rrcurveto
            21 21 10 16 10 vvcurveto
            25 -13 13 -25 -45 -39 -31 -39 callgsubr
            return
          </CharString>
          <CharString index="16">
            -74 hlineto
            -236 677 rlineto
            -40 hlineto
            -217 -570 return
          </CharString>
          <CharString index="17">
            684 212 rmoveto
            45 -19 54 58 callsubr
            -7 -13 -1 33 callgsubr
            -30 17 -19 13 -17 95 callsubr
            -11 -37 -21 -35 vhcurveto
            -41 -23 -31 -20 -38 hhcurveto
            -17 35 callgsubr
            19 10 31 vhcurveto
            return
          </CharString>
          <CharString index="18">
            689 rmoveto
            -219 hlineto
            -1 -33 33 1 20 -2 5 -5 rlinecurve
            11 -9 5 -8 -8 vvcurveto
            -17 -10 -27 -20 -35 vhcurveto
            -114 -223 -60 111 -60 112 -61 112 rlinecurve
            74 31 -261 -31 76 hlineto
            220 -387 rlineto
            -241 vlineto
            -92 1 rlineto
            -31 vlineto
            return
          </CharString>
          <CharString index="19">
            127 -3 46 -54 9 -113 rrcurveto
            31 hlineto
            -2 -63 callsubr
            return
          </CharString>
          <CharString index="20">
            rmoveto
            28 -23 24 -31 -29 -25 -24 -28 -31 25 -23 29 29 25 23 31 vhcurveto
            return
          </CharString>
          <CharString index="21">
            252 callsubr
            46 -24 callsubr
            19 11 5 hhcurveto
            19 10 -11 -21 -27 -20 224 callsubr
            21 19 rrcurveto
            21 19 10 22 25 vvcurveto
            return
          </CharString>
          <CharString index="22">
            256 callsubr
            -18 hhcurveto
            -25 -13 -12 -25 -12 4 -10 8 -9 hvcurveto
            138 -135 rlineto
            25 hlineto
            return
          </CharString>
          <CharString index="23">
            54 callgsubr
            -16 -19 -13 -22 hhcurveto
            -22 -21 11 22 -19 hvcurveto
            -17 19 -11 22 -7 23 131 280 rcurveline
            -101 hlineto
            -65 -169 rlineto
            return
          </CharString>
          <CharString index="24">
            19 -10 9 -20 -16 -11 -5 -11 -6 vhcurveto
            -88 -145 21 -4 119 109 rlineto
            7 7 4 10 11 vvcurveto
            return
          </CharString>
          <CharString index="25">
            22 13 -12 -22 1 hvcurveto
            -236 vlineto
            -24 -14 -25 -26 -26 vhcurveto
            -103 callsubr
            return
          </CharString>
          <CharString index="26">
            -57 callsubr
            -168 -4 rmoveto
            193 callsubr
            -59 callgsubr
            -23 callsubr
            return
          </CharString>
          <CharString index="27">
            -40 -38 -14 -26 -33 hvcurveto
            -21 -18 -15 -16 -6 -14 rrcurveto
            20 vlineto
            5 0 11 1 12 vhcurveto
            27 -164 -27 47 vlineto
            22 11 252 callgsubr
            -346 vlineto
            -15 -2 -8 -8 -13 hhcurveto
            -58 -27 244 27 113 callgsubr
            269 vlineto
            19 13 20 25 21 vhcurveto
            return
          </CharString>
          <CharString index="28">
            585 128 rmoveto
            -39 -39 -35 -27 -33 -15 -40 -19 -48 -9 -56 1 -57 1 -45 31 -34 245 callsubr
            95 vvcurveto
            215 65 110 129 6 vhcurveto
            120 5 46 -53 9 -115 rrcurveto
            30 157 hlineto
            -34 13 -24 8 -15 3 rrcurveto
            7 -34 -45 4 -56 308 callsubr
            -58 hvcurveto
            -60 -67 -30 -88 203 callgsubr
            30 -85 60 -71 rrcurveto
            -70 60 73 -35 85 hhcurveto
            59 48 9 17 38 hvcurveto
            42 19 38 34 35 49 rrcurveto
            return
          </CharString>
          <CharString index="29">
            -28 -30 29 28 44 46 22 91 21 29 -6 -11 35 hvcurveto
            -11 36 21 -5 7 hhcurveto
            9 8 8 16 9 hvcurveto
            9 17 4 13 9 vvcurveto
            18 -28 14 -55 11 vhcurveto
            9 -41 -35 4 -30 hhcurveto
            -49 -40 -10 -19 -32 hvcurveto
            -39 -23 -19 -33 -45 vvcurveto
            -45 20 -32 40 -19 vhcurveto
            return
          </CharString>
          <CharString index="30">
            -12 -7 -59 callsubr
            return
          </CharString>
          <CharString index="31">
            708 689 rmoveto
            -221 -31 hlineto
            37 22 -3 -6 7 hvcurveto
            19 -18 9 -26 -34 vvcurveto
            -397 vlineto
            -331 515 rlineto
            -200 -31 56 hlineto
            18 10 -8 -15 2 hvcurveto
            -518 vlineto
            -35 -9 -26 -19 -16 vhcurveto
            -6 -7 -22 -3 -37 hhcurveto
            -31 221 31 vlineto
            -39 -22 3 7 -7 hvcurveto
            -17 16 -8 25 35 vvcurveto
            518 vlineto
            return
          </CharString>
          <CharString index="32">
            11 -39 -29 6 -21 hhcurveto
            -56 -30 -32 -64 -4 hvcurveto
            18 hlineto
            23 3 26 18 23 hhcurveto
            18 28 -7 -13 37 hvcurveto
            return
          </CharString>
          <CharString index="33">
            14 -43 -32 7 -22 hhcurveto
            -51 -41 -10 -22 -33 hvcurveto
            -39 -25 -19 -37 -49 vvcurveto
            -48 27 -35 56 -23 vhcurveto
            60 -24 47 -17 31 -11 rrcurveto
            35 -15 17 -22 -26 vvcurveto
            -50 -47 -27 -67 -2 vhcurveto
            -34 -29 14 26 -27 hvcurveto
            -23 23 -12 23 21 vvcurveto
            29 -29 -164 vlineto
            4 2 8 0 11 -2 2 15 6 7 11 -4 return
          </CharString>
          <CharString index="34">
            31 -70 callgsubr
            return
          </CharString>
          <CharString index="35">
            1 -31 -27 0 -26 hhcurveto
            -62 -1 -51 -17 -40 -31 -42 -34 -20 -47 2 -57 1 -38 16 -32 29 -27 24 -21 22 -12 21 -1 -28 -17 -17 -12 -8 -7 rrcurveto
            -24 -22 -12 -20 -22 vvcurveto
            -27 21 -19 42 -11 vhcurveto
            -28 -4 -24 -9 -19 -16 rrcurveto
            return
          </CharString>
          <CharString index="36">
            rmoveto
            -47 48 47 29 -47 100 hlineto
            -60 -23 rlineto
            -77 -92 vlineto
            10 20 32 40 38 56 rrcurveto
            41 65 22 37 9 vvcurveto
            18 -11 8 -24 -17 -14 -11 -21 -9 vhcurveto
            -69 -151 -41 -83 -16 vvcurveto
            134 -48 -45 -24 152 hlineto
            endchar
          </CharString>
          <CharString index="37">
            -94 232 hlineto
            87 9 80 19 75 vhcurveto
            114 28 44 57 60 hhcurveto
            19 21 -11 -16 1 -7 -7 -13 -14 hvcurveto
            -13 -14 -7 -14 -14 vvcurveto
            return
          </CharString>
          <CharString index="38">
            -207 -21 220 54 -54 80 400 -20 hstemhm
            66 35 -35 103 -103 119 -107 57 251 91 -91 179 hintmask 1011100001000000
            565 98 59 callsubr
            -33 -22 -27 -17 -31 hhcurveto
            -28 -19 22 43 -11 hvcurveto
            hintmask 1101000110000000
            35 81 18 89 99 vvcurveto
            25 -2 16 -5 8 vhcurveto
            11 -7 -16 6 -23 hhcurveto
            -25 -13 -28 -56 -228 -52 -114 -105 -39 -27 18 37 -15 hvcurveto
            -9 23 -4 36 47 vvcurveto
            25 6 37 11 49 vhcurveto
            hintmask 1101010010000000
            11 49 6 37 23 vvcurveto
            30 -14 15 -27 -27 -17 -9 -17 -9 vhcurveto
            -6 -13 -3 -22 -31 vvcurveto
            -21 2 -31 4 -41 vhcurveto
            hintmask 1101000110000000
            4 -41 2 -31 -21 vvcurveto
            -31 -3 -45 -7 -61 vhcurveto
            -6 -60 -3 -45 -31 vvcurveto
            -45 3 -31 5 -18 vhcurveto
            -37 11 22 -18 33 hhcurveto
            hintmask 1101001010000000
            35 17 13 25 13 -7 19 -15 26 hvcurveto
            -21 35 -13 26 -6 16 rrcurveto
            hintmask 1101100001000000
            -15 37 -7 37 38 vvcurveto
            18 1 20 3 22 vhcurveto
            12 -35 19 -29 27 -23 rrcurveto
            -25 29 32 -13 36 hhcurveto
            56 49 37 74 42 hvcurveto
            3 -29 8 -25 13 -19 rrcurveto
            -25 16 21 -13 26 hhcurveto
            23 18 133 callsubr
            20 6 23 25 vvcurveto
            endchar
          </CharString>
          <CharString index="39">
            226 callsubr
            581 hlineto
            11 239 rlineto
            return
          </CharString>
          <CharString index="40">
            21 18 8 24 1 vhcurveto
            27 19 -19 -37 -47 -28 -24 -57 hvcurveto
            -8 -28 hlineto
            67 30 -28 -51 -33 -11 -41 -48 -25 -19 12 17 hvcurveto
            15 11 -2 18 vvcurveto
            return
          </CharString>
          <CharString index="41">
            688 453 rmoveto
            -151 -20 hlineto
            41 5 -4 -23 -13 -2 -15 -5 -16 hvcurveto
            -59 -227 -116 318 rlineto
            -40 hlineto
            -123 -304 -73 284 rlineto
            49 20 -201 -20 49 hlineto
            112 -446 rlineto
            26 hlineto
            144 351 121 -351 rlineto
            41 hlineto
            99 376 5 23 6 15 7 9 rlinecurve
            5 9 13 15 47 -1 rrcurveto
            return
          </CharString>
          <CharString index="42">
            rmoveto
            -41 -18 -40 -42 -36 -14 49 31 46 27 43 32 34 17 -31 -57 vhcurveto
            70 15 rmoveto
            61 -45 39 -65 -25 -29 -9 -24 -18 vhcurveto
            45 25 100 50 17 10 -7 -16 vhcurveto
            -11 -11 -9 -9 vvcurveto
            hintmask 11101100
            -10 8 -13 21 30 15 16 26 38 -46 22 -38 -105 -45 -113 -94 -74 36 -81 84 vhcurveto
            hintmask 11101010
            78 53 46 77 hvcurveto
            endchar
          </CharString>
          <CharString index="43">
            rmoveto
            -145 -22 hlineto
            14 10 -1 -1 7 hvcurveto
            11 -3 6 -5 -9 vvcurveto
            -12 -6 -17 -13 -23 vhcurveto
            -76 -147 -40 73 -40 73 -40 74 rlinecurve
            50 20 -203 -20 51 hlineto
            145 -255 rlineto
            -158 vlineto
            -61 -2 -2 -20 rlineto
            216 22 -61 161 hlineto
            96 186 11 27 11 18 10 9 rlinecurve
            8 7 16 3 25 -1 rrcurveto
            return
          </CharString>
          <CharString index="44">
            203 rlineto
            -565 -31 -68 callsubr
            return
          </CharString>
          <CharString index="45">
            469 454 rmoveto
            -148 -21 hlineto
            25 15 -2 -4 4 hvcurveto
            12 -11 6 -17 -23 vvcurveto
            -202 vlineto
            -182 280 rlineto
            -170 -21 36 hlineto
            13 6 -5 -10 1 hvcurveto
            -340 vlineto
            -23 -6 -18 -12 -11 vhcurveto
            -3 -3 -15 -2 -26 hhcurveto
            -21 149 21 vlineto
            -26 -15 2 4 -5 hvcurveto
            -11 12 -5 17 22 vvcurveto
            340 vlineto
            return
          </CharString>
          <CharString index="46">
            -13 33 648 35 hstemhm
            58 73 -53 71 271 66 -42 79 hintmask 11100100
            523 188 rmoveto
            93 -60 66 -121 41 vhcurveto
            42 8 33 15 25 23 rrcurveto
            hintmask 11011000
            29 27 15 33 39 vvcurveto
            51 -20 42 -41 32 vhcurveto
            30 -36 -44 15 -53 hhcurveto
            -61 -51 -17 -35 -39 hvcurveto
            -42 -36 -21 -47 -59 vvcurveto
            -40 15 -37 29 -33 vhcurveto
            26 -30 33 -23 39 -16 -43 -7 -37 -17 -31 -27 rrcurveto
            hintmask 11100100
            -34 -31 -17 -37 -43 vvcurveto
            -62 21 -47 43 -31 vhcurveto
            -27 37 51 -14 66 hhcurveto
            72 57 15 31 43 hvcurveto
            50 35 25 51 69 vvcurveto
            hintmask 11011000
            -103 359 rmoveto
            -63 -34 -50 -69 -35 vhcurveto
            -65 29 -36 18 -9 7 rrcurveto
            -39 27 -19 33 41 vvcurveto
            31 15 28 30 23 vhcurveto
            21 29 30 11 33 hhcurveto
            81 53 -45 -76 hvcurveto
            hintmask 11100100
            24 -398 rmoveto
            -37 -19 -32 -37 -26 vhcurveto
            -23 -35 -37 -11 -40 hhcurveto
            -83 -62 47 80 35 12 35 23 33 hvcurveto
            22 31 28 23 34 16 29 -11 30 -12 30 -12 34 -14 25 -16 16 -17 rrcurveto
            20 -23 10 -30 -36 vvcurveto
            endchar
          </CharString>
          <CharString index="47">
            21 -21 -18 10 -13 hhcurveto
            -21 -11 -11 -22 -14 13 -15 26 -16 hvcurveto
            140 -87 322 callgsubr
          </CharString>
          <CharString index="48">
            -13 -7 vhcurveto
            -97 -181 return
          </CharString>
          <CharString index="49">
            611 rmoveto
            61 -44 37 -63 -60 -48 -39 -77 -37 vhcurveto
            -29 -61 -15 -65 -1 -69 -1 1 rcurveline
            return
          </CharString>
          <CharString index="50">
            -100 -39 callsubr
            4 11 14 vvcurveto
            return
          </CharString>
          <CharString index="51">
            -30 callgsubr
            7 -36 15 -22 vhcurveto
            -18 callsubr
            34 37 vvcurveto
            41 10 38 21 35 vhcurveto
            11 18 19 23 27 28 rrcurveto
            21 21 10 16 10 vvcurveto
            26 -13 13 -25 -45 -39 -32 -39 callgsubr
            return
          </CharString>
          <CharString index="52">
            6 callgsubr
            8 19 -7 9 hhcurveto
            return
          </CharString>
          <CharString index="53">
            771 457 rmoveto
            -183 -28 50 hlineto
            12 5 -4 -11 -7 -2 -9 -5 -12 hvcurveto
            -105 -293 -117 375 rlineto
            -33 hlineto
            -138 -375 -86 307 rlineto
            -1 3 0 3 3 vvcurveto
            14 8 287 callsubr
            31 hhcurveto
            28 -231 -28 32 vlineto
            12 17 -5 -17 5 hvcurveto
            130 -407 rlineto
            51 hlineto
            125 322 114 -322 rlineto
            49 hlineto
            155 386 rlineto
            29 13 14 14 20 hhcurveto
            26 hlineto
            return
          </CharString>
          <CharString index="54">
            -13 30 373 39 86 188 -29 29 hstemhm
            57 97 234 111 -96 96 -72 109 hintmask 11011001
            536 229 rmoveto
            60 -20 48 -40 37 vhcurveto
            37 -39 -50 18 -61 hhcurveto
            -37 -36 -12 -25 -33 hvcurveto
            -33 -25 -22 -30 -11 -35 rrcurveto
            25 vlineto
            -1 76 11 71 24 67 rrcurveto
            89 33 48 44 65 hhcurveto
            hintmask 11101010
            37 32 -33 -37 hvcurveto
            hintmask 11101100
            -20 -15 -20 -15 vvcurveto
            -15 23 -19 15 49 24 24 47 vhcurveto
            hintmask 11011001
            36 -18 29 -35 23 vhcurveto
            19 -31 -34 10 -38 hhcurveto
            -93 -74 -46 -93 -53 hvcurveto
            -44 -77 -22 -90 -101 vvcurveto
            -86 16 -70 32 -54 vhcurveto
            -66 39 59 -33 80 hhcurveto
            73 61 22 43 47 hvcurveto
            48 44 24 59 74 vvcurveto
            -109 -29 rmoveto
            -51 -11 -41 -21 -33 vhcurveto
            -39 -26 -37 -19 -48 hhcurveto
            -41 -33 21 43 -23 hvcurveto
            -18 33 -9 39 44 vvcurveto
            43 12 41 24 40 vhcurveto
            46 28 34 23 41 hhcurveto
            85 43 -63 -127 hvcurveto
            endchar
          </CharString>
          <CharString index="55">
            457 386 rmoveto
            77 10 41 31 51 vvcurveto
            23 -9 22 -17 20 vhcurveto
            20 271 callgsubr
            -23 -17 -17 -21 -13 7 -11 14 -8 hvcurveto
            1 6 6 1 6 hhcurveto
            return
          </CharString>
          <CharString index="56">
            rmoveto
            118 -41 59 -81 -49 -39 -21 -43 return
          </CharString>
          <CharString index="57">
            1 callgsubr
            545 -29 callsubr
            hvcurveto
            return
          </CharString>
          <CharString index="58">
            17 vvcurveto
            33 -16 17 -33 -33 -16 -25 -49 -49 return
          </CharString>
          <CharString index="59">
            -29 23 -13 32 40 vvcurveto
            27 10 22 20 17 vhcurveto
            16 15 17 9 19 1 53 -3 35 -5 16 -1 51 -5 34 -7 17 -8 rrcurveto
            22 -10 12 -20 -26 vvcurveto
            return
          </CharString>
          <CharString index="60">
            4 0 4 -1 4 vhcurveto
            -20 -2 rlineto
            -20 -2 -17 -10 -32 hhcurveto
            -18 -27 3 5 -37 hvcurveto
            return
          </CharString>
          <CharString index="61">
            -16 vlineto
            30 26 11 23 23 9 callgsubr
            return
          </CharString>
          <CharString index="62">
            76 9 38 31 53 vvcurveto
            23 -9 21 -17 20 vhcurveto
            21 271 callgsubr
            -21 -19 -19 -19 -14 7 -11 14 -7 hvcurveto
            1 6 6 0 6 hhcurveto
            return
          </CharString>
          <CharString index="63">
            rmoveto
            -19 hlineto
            -20 -4 -16 -10 -29 hhcurveto
            -19 -29 3 7 -39 hvcurveto
            return
          </CharString>
          <CharString index="64">
            15 -34 -24 8 -14 hhcurveto
            -59 -36 -32 -64 -11 hvcurveto
            28 hlineto
            return
          </CharString>
          <CharString index="65">
            -96 -1 rlineto
            246 vlineto
            145 281 19 40 16 27 15 14 rlinecurve
            11 11 24 4 39 -1 rrcurveto
            return
          </CharString>
          <CharString index="66">
            -54 5 -27 19 31 vvcurveto
            19 8 10 17 vhcurveto
            8 14 -6 8 hhcurveto
            return
          </CharString>
          <CharString index="67">
            -49 -25 -25 -37 -51 vvcurveto
            -49 21 -36 41 -25 vhcurveto
            -22 33 43 -11 53 hhcurveto
            46 45 12 23 44 hvcurveto
            53 27 24 35 -3 41 rrcurveto
            endchar
          </CharString>
          <CharString index="68">
            -169 rlineto
            24 hlineto
            134 124 rlineto
            9 8 return
          </CharString>
          <CharString index="69">
            -93 627 93 31 return
          </CharString>
          <CharString index="70">
            rmoveto
            -40 -2 -58 -20 -46 vvcurveto
            -25 14 -13 20 -1 vhcurveto
            14 16 10 14 hvcurveto
            7 -10 8 11 vvcurveto
            return
          </CharString>
          <CharString index="71">
            rmoveto
            21 -5 18 -10 16 vhcurveto
            20 -13 -17 10 -23 hhcurveto
            -20 -17 -10 -20 -13 hvcurveto
            -11 -17 -5 -18 -20 vvcurveto
            -6 0 -8 1 -11 vhcurveto
            2 -13 1 -9 -4 vvcurveto
            55 -386 rlineto
            14 hlineto
            57 386 rlineto
            3 36 1 17 -2 vvcurveto
            -5 -573 112 callsubr
            -36 29 -28 35 36 28 28 36 vhcurveto
            return
          </CharString>
          <CharString index="72">
            12 -27 -20 6 -11 hhcurveto
            -47 -28 -25 -51 -9 hvcurveto
            21 hlineto
            23 9 14 11 18 hhcurveto
            8 13 -4 -7 18 hvcurveto
            -11 23 22 -12 27 hhcurveto
            21 19 8 17 17 hvcurveto
            return
          </CharString>
          <CharString index="73">
            7 -38 -28 3 -19 hhcurveto
            -63 -32 -28 -55 -3 hvcurveto
            19 hlineto
            -16 callgsubr
            return
          </CharString>
          <CharString index="74">
            -52 24 53 -34 57 hhcurveto
            62 48 21 43 35 -15 callgsubr
            return
          </CharString>
          <CharString index="75">
            5 -7 hvcurveto
            112 -141 rlineto
            25 hlineto
            return
          </CharString>
          <CharString index="76">
            hstem
            365 89 135 24 -24 132 vstem
            698 158 126 callgsubr
            -26 -25 rrcurveto
            -21 -22 -28 144 callsubr
            193 77 vlineto
            31 27 -27 -53 hvcurveto
            24 183 -24 hlineto
            -53 -21 -24 -37 vhcurveto
            -77 186 hlineto
            105 -2 84 -1 29 -38 7 -68 rlinecurve
            28 hlineto
            -1 133 rlineto
            -404 -20 57 hlineto
            -253 -350 -19 -27 -15 -17 -10 -7 rlinecurve
            -19 -5 -17 -4 -15 -2 rrcurveto
            -21 148 21 vlineto
            -24 -13 2 3 -1 hvcurveto
            -1 3 -1 3 3 vvcurveto
            7 9 16 17 23 vhcurveto
            52 69 rlineto
            168 -129 -63 -21 415 hlineto
            8 158 rlineto
            -512 17 rmoveto
            152 212 rlineto
            -212 vlineto
            return
          </CharString>
          <CharString index="77">
            129 541 rmoveto
            -1 -41 -9 -33 -15 -23 -10 -16 -16 -12 -19 -7 -14 -4 -11 -2 -13 -4 rrcurveto
            -27 vlineto
            75 2 rlineto
            -282 vlineto
            -70 33 -34 63 -1 vhcurveto
            45 36 23 46 23 hvcurveto
            -7 11 rlineto
            -11 -21 -19 -7 -17 hhcurveto
            -36 -16 22 45 hvcurveto
            258 123 vlineto
            2 46 -125 -2 rlineto
            123 vlineto
            return
          </CharString>
          <CharString index="78">
            119 -90 callgsubr
            return
          </CharString>
          <CharString index="79">
            13 50 6 37 25 vvcurveto
            19 -3 244 callgsubr
            9 306 callsubr
            -8 -19 hvcurveto
            -23 -9 -11 -8 -9 -25 callsubr
            7 -15 -21 vvcurveto
            -19 -5 -27 -9 -37 vhcurveto
            return
          </CharString>
          <CharString index="80">
            rmoveto
            -46 -27 -40 -23 -52 hhcurveto
            -44 -36 26 43 -7 hvcurveto
            -15 -5 rlineto
            -61 -5 35 -40 63 hhcurveto
            63 59 43 60 20 hvcurveto
            endchar
          </CharString>
          <CharString index="81">
            37 1 28 18 56 hhcurveto
            59 27 -57 -114 -5 hvcurveto
            -54 -7 -69 -8 -51 -11 -35 -16 rlinecurve
            -51 -26 -28 -39 -1 -54 -1 -38 14 -30 27 -21 rrcurveto
            -20 25 30 -10 36 hhcurveto
            36 33 10 20 30 hvcurveto
            24 16 26 25 29 35 rrcurveto
            -71 38 64 -35 93 hhcurveto
            63 59 30 58 55 hvcurveto
            -13 10 rlineto
            -30 -49 -41 -17 -33 hhcurveto
            -59 -45 19 35 -31 hvcurveto
            -29 33 -14 47 60 vvcurveto
            2 40 rmoveto
            109 47 53 92 29 24 -16 -33 19 vhcurveto
            21 -33 9 -38 -1 -44 rrcurveto
            -320 -149 rmoveto
            -49 -34 -39 -25 -43 hhcurveto
            -58 -29 26 54 42 24 30 49 16 hvcurveto
            15 5 44 7 71 8 rrcurveto
            return
          </CharString>
          <CharString index="82">
            vvcurveto
            -11 6 -10 13 -9 vhcurveto
            13 -9 return
          </CharString>
          <CharString index="83">
            -28 23 -56 -45 -22 -13 -26 -19 12 -10 25 vhcurveto
            20 return
          </CharString>
          <CharString index="84">
            26 -23 29 -10 32 2 rrcurveto
            7 hlineto
            -5 17 rlineto
            return
          </CharString>
          <CharString index="85">
            hhcurveto
            -68 -53 -29 -59 -39 hvcurveto
            return
          </CharString>
          <CharString index="86">
            -20 hstem
            46 100 220 101 vstem
            166 77 rmoveto
            -13 32 -7 49 66 vvcurveto
            69 7 52 15 34 vhcurveto
            41 18 30 21 42 hhcurveto
            26 21 -8 -16 16 hvcurveto
            22 -32 rmoveto
            15 -33 8 -55 -76 vvcurveto
            280 callgsubr
            -30 -24 9 19 -18 hvcurveto
            176 468 rmoveto
            -27 -60 rlineto
            9 -25 -26 5 -27 262 callgsubr
            -85 33 -65 65 -47 vhcurveto
            -39 -87 rlineto
            37 hlineto
            31 68 rlineto
            -13 27 29 -7 29 hhcurveto
            57 49 23 45 41 hvcurveto
            41 45 21 55 65 vvcurveto
            99 -34 70 -67 42 vhcurveto
            34 76 rlineto
            return
          </CharString>
          <CharString index="87">
            436 141 rmoveto
            -27 hlineto
            -4 -34 -6 -27 -9 -22 rrcurveto
            -12 -6 -12 -11 -14 hhcurveto
            -224 -1 287 394 rlineto
            29 vlineto
            -67 -2 -122 0 -179 2 rrcurveto
            -131 28 vlineto
            5 33 5 24 4 15 rrcurveto
            16 4 27 6 17 hhcurveto
            168 -1 -295 -400 rlineto
            -22 vlineto
            return
          </CharString>
          <CharString index="88">
            0 -11 callsubr
            return
          </CharString>
          <CharString index="89">
            1 -17 -14 -16 -29 -15 rrcurveto
            -13 -25 -21 -7 -19 hhcurveto
            -33 -26 20 39 -17 hvcurveto
            -15 31 -7 return
          </CharString>
          <CharString index="90">
            -21 15 -11 17 17 vvcurveto
            9 5 20 10 31 vhcurveto
            return
          </CharString>
          <CharString index="91">
            -13 38 29 -6 20 hhcurveto
            59 31 35 69 3 hvcurveto
            return
          </CharString>
          <CharString index="92">
            52 -13 29 660 27 hstem
            46 94 290 97 vstem
            527 342 rmoveto
            98 -16 80 -32 62 vhcurveto
            81 -40 -64 40 -89 hhcurveto
            -79 -62 -42 -84 -45 hvcurveto
            -36 -69 -18 -78 -86 vvcurveto
            -90 17 -78 35 -66 vhcurveto
            44 -83 63 -41 82 1 73 -1 59 43 47 86 rrcurveto
            41 73 20 75 79 vvcurveto
            -97 2 rmoveto
            -65 -10 -66 -20 -65 vhcurveto
            -27 -89 -38 -44 -49 1 -52 -1 -39 44 -26 88 rrcurveto
            -19 61 -10 66 70 vvcurveto
            71 9 66 19 61 vhcurveto
            89 26 39 45 53 hhcurveto
            54 40 -44 -88 25 hvcurveto
            17 -59 8 -67 -74 vvcurveto
            endchar
          </CharString>
          <CharString index="93">
            107 callgsubr
            53 -23 27 -45 -36 -25 21 callgsubr
            return
          </CharString>
          <CharString index="94">
            642 689 rmoveto
            -602 hlineto
            -2 -203 rlineto
            29 hlineto
            6 59 16 43 25 25 25 25 46 15 65 3 45 2 rcurveline
            -627 -93 -31 278 31 -94 627 105 callsubr
            return
          </CharString>
          <CharString index="95">
            19 7 9 14 67 callsubr
            return
          </CharString>
          <CharString index="96">
            31 197 38 442 -20 return
          </CharString>
          <CharString index="97">
            22 16 17 11 18 hhcurveto
            36 18 -23 -47 -20 -5 -18 -9 -15 hvcurveto
            -17 -11 -15 -9 -19 hhcurveto
            -23 -11 8 15 hvcurveto
            7 5 10 4 vvcurveto
            14 -6 7 -11 -17 -8 -7 -14 -37 26 -18 53 24 21 9 19 18 vhcurveto
            18 19 9 23 25 vvcurveto
            return
          </CharString>
          <CharString index="98">
            -193 49 callgsubr
            return
          </CharString>
          <CharString index="99">
            rmoveto
            24 -20 20 -25 -29 -19 -20 -28 1 vhcurveto
            -30 1 15 -15 31 hhcurveto
            30 15 16 33 hvcurveto
            endchar
          </CharString>
          <CharString index="100">
            21 rmoveto
            -30 -17 1 1 -3 hvcurveto
            -13 5 -9 17 -7 12 -140 243 rcurveline
            35 39 22 25 9 11 21 25 18 17 15 10 rrcurveto
            6 9 20 3 29 hhcurveto
            21 -169 -21 vlineto
            48 1 -1 -14 -11 vvcurveto
            -6 -4 -8 -9 -10 vhcurveto
            -175 -194 rlineto
            242 61 21 -213 -21 60 -415 -60 -21 213 21 -61 132 vlineto
            67 75 98 -170 7 -11 2 -9 -3 -6 rlinecurve
            -7 -3 -16 -4 -27 hhcurveto
            -21 226 vlineto
            endchar
          </CharString>
          <CharString index="101">
            106 -75 61 -148 16 vhcurveto
            -106 11 -53 44 -1 76 -1 85 47 44 97 2 99 1 49 -40 9 -100 rrcurveto
            30 hlineto
            return
          </CharString>
          <CharString index="102">
            rmoveto
            29 callsubr
            -71 22 -57 44 -44 vhcurveto
            -43 45 57 -22 69 hhcurveto
            65 55 26 51 47 hvcurveto
            44 49 22 195 callsubr
            -32 20 41 -23 hvcurveto
            -19 33 -10 38 45 vvcurveto
            57 13 54 26 51 vhcurveto
            61 33 42 31 52 hhcurveto
            42 31 -20 -40 20 hvcurveto
            16 -32 8 -39 -47 vvcurveto
            endchar
          </CharString>
          <CharString index="103">
            111 254 rmoveto
            57 20 45 40 33 vhcurveto
            26 31 32 13 29 hhcurveto
            44 23 -14 -20 2 hvcurveto
            2 -8 -6 -8 -11 -7 -10 -5 -7 -6 -1 -4 rrcurveto
            return
          </CharString>
          <CharString index="104">
            rmoveto
            31 24 24 31 29 -24 25 -31 -29 -25 -25 -29 -31 25 -24 29 hvcurveto
            endchar
          </CharString>
          <CharString index="105">
            50 186 callgsubr
            552 21 rmoveto
            -45 hlineto
            -181 244 103 122 17 20 15 13 12 6 rlinecurve
            7 12 18 3 24 hhcurveto
            21 -155 -21 vlineto
            21 13 -3 -6 7 hvcurveto
            1 -2 1 -3 -3 vvcurveto
            -9 -5 -10 -11 -11 vhcurveto
            -90 -104 -35 50 -35 50 -36 51 rlinecurve
            50 21 -218 -21 47 hlineto
            160 -221 -122 -143 -19 -17 -15 -13 -11 -7 rlinecurve
            -9 -15 -18 -5 -21 hhcurveto
            -21 158 21 vlineto
            return
          </CharString>
          <CharString index="106">
            rmoveto
            -29 hlineto
            -92 -80 -91 80 rlineto
            -30 hlineto
            97 -130 rlineto
            48 hlineto
            return
          </CharString>
          <CharString index="107">
            -33 callsubr
            -243 -394 rmoveto
            -7 -52 callgsubr
            -13 -7 11 23 hvcurveto
            84 -70 -84 vlineto
            -47 19 -24 39 27 21 12 25 14 vhcurveto
            return
          </CharString>
          <CharString index="108">
            5 -37 -27 3 -18 hhcurveto
            -67 -33 -28 -56 hvcurveto
            19 hlineto
            return
          </CharString>
          <CharString index="109">
            -74 callgsubr
            endchar
          </CharString>
          <CharString index="110">
            -198 518 217 callgsubr
            hintmask 00100000
            293 619 rmoveto
            -7 -16 -63 callgsubr
            hintmask 10000000
            -43 callsubr
            hintmask 01000000
            -38 callgsubr
            hintmask 10000000
            32 callgsubr
            hintmask 00100000
            118 callsubr
          </CharString>
          <CharString index="111">
            12 10 -9 -13 3 hvcurveto
            1 -417 1 -97 -12 -65 -16 -30 rlinecurve
            -8 -15 -14 -12 -18 -13 -18 -12 -13 -5 -4 1 1 -20 rcurveline
            61 10 47 31 34 57 rrcurveto
            25 45 14 52 61 vvcurveto
            endchar
          </CharString>
          <CharString index="112">
            75 7 37 41 73 vvcurveto
            41 -21 30 -39 -32 -23 -19 -31 -33 19 -18 39 -2 vhcurveto
            return
          </CharString>
          <CharString index="113">
            85 hmoveto
            448 699 rlineto
            39 hlineto
            2 -6 -448 -698 rlineto
            -37 hlineto
            4 362 rmoveto
            154 return
          </CharString>
          <CharString index="114">
            -9 -37 -5 -28 -21 vvcurveto
            -59 21 -48 41 -37 vhcurveto
            -35 40 50 -18 59 hhcurveto
            67 60 25 51 51 hvcurveto
            51 51 26 60 67 vvcurveto
            return
          </CharString>
          <CharString index="115">
            rmoveto
            -23 1 21 -22 23 hhcurveto
            15 20 5 20 -2 hvcurveto
            -2 18 -24 8 18 vvcurveto
            return
          </CharString>
          <CharString index="116">
            36 6 18 18 30 vvcurveto
            40 -34 25 -40 -45 -37 -30 -44 -30 19 -23 37 -15 vhcurveto
            -33 -7 -30 -22 -33 vvcurveto
            -45 28 -23 return
          </CharString>
          <CharString index="117">
            20 callgsubr
            -42 return
          </CharString>
          <CharString index="118">
            572 27 rmoveto
            113 callgsubr
            249 vlineto
            201 callsubr
            return
          </CharString>
          <CharString index="119">
            53 -37 295 callgsubr
            12 21 10 7 hhcurveto
            return
          </CharString>
          <CharString index="120">
            -23 callsubr
            68 callgsubr
            return
          </CharString>
          <CharString index="121">
            12 8 -7 -15 2 hvcurveto
            -590 vlineto
            -15 -2 -8 -7 -12 hhcurveto
            -57 -27 237 27 -56 hlineto
            -12 -8 7 15 -2 hvcurveto
            1 180 177 -171 rlineto
            5 -5 2 -5 -6 vvcurveto
            -10 -7 -4 -13 -1 vhcurveto
            -6 -1 -7 0 -10 1 rrcurveto
            -27 248 27 -34 vlineto
            -23 -71 58 118 -118 hvcurveto
            -30 30 -21 21 -10 15 rrcurveto
            return
          </CharString>
          <CharString index="122">
            27 -27 112 68 28 -14 168 -107 107 -27 27 hstemhm
            44 58 -43 64 78 61 -61 74 hintmask 1010100110000000
            157 return
          </CharString>
          <CharString index="123">
            -31 -27 -20 -55 -8 vhcurveto
            10 -23 rlineto
            79 7 40 46 85 vvcurveto
            return
          </CharString>
          <CharString index="124">
            -6 39 30 -3 20 hhcurveto
            59 29 24 48 hvcurveto
            return
          </CharString>
          <CharString index="125">
            7 71 4 52 35 vvcurveto
            return
          </CharString>
          <CharString index="126">
            -15 callgsubr
            endchar
          </CharString>
          <CharString index="127">
            21 99 callsubr
            -7 -13 -7 vhcurveto
            return
          </CharString>
          <CharString index="128">
            720 228 rmoveto
            2 12 1 13 13 vvcurveto
            55 -17 46 -34 38 vhcurveto
            39 -35 -44 20 -56 hhcurveto
            -31 -32 -7 -15 -32 hvcurveto
            -31 -14 -18 -16 -13 -18 -17 22 -12 12 -5 4 -26 19 -34 9 -42 1 -98 1 -51 -33 -8 -68 rrcurveto
            -34 -4 23 -19 31 hhcurveto
            9 38 10 22 -6 hvcurveto
            -3 9 -19 12 18 vvcurveto
            return
          </CharString>
          <CharString index="129">
            47 rrcurveto
            48 47 24 61 return
          </CharString>
          <CharString index="130">
            -187 hmoveto
            25 -22 21 -24 -25 -22 -21 -25 -24 22 -22 25 272 callsubr
            200 183 rmoveto
            -29 -6 -16 -15 -27 hhcurveto
            -19 -30 6 11 -39 hvcurveto
            return
          </CharString>
          <CharString index="131">
            250 callsubr
            228 -478 rmoveto
            46 -19 53 58 callsubr
            -6 -12 -2 33 callgsubr
            -29 17 -20 13 -18 95 callsubr
            -11 -37 -21 -34 vhcurveto
            -41 -23 -31 -21 -38 hhcurveto
            -17 -20 7 15 -21 hvcurveto
            return
          </CharString>
          <CharString index="132">
            8 -217 -21 603 99 -68 68 return
          </CharString>
          <CharString index="133">
            -42 -21 -21 -43 -28 18 -17 37 -5 hvcurveto
            2 29 11 1 -6 hhcurveto
            return
          </CharString>
          <CharString index="134">
            53 -36 29 -55 -45 -22 -14 -29 return
          </CharString>
          <CharString index="135">
            32 302 34 289 32 return
          </CharString>
          <CharString index="136">
            71 -21 57 -42 44 vhcurveto
            45 -41 -56 22 -71 202 callsubr
            -43 -47 -22 -60 -73 vvcurveto
            return
          </CharString>
          <CharString index="137">
            rmoveto
            -85 callsubr
            return
          </CharString>
          <CharString index="138">
            -33 -16 -17 -33 -32 16 156 callsubr
            32 return
          </CharString>
          <CharString index="139">
            175 rmoveto
            73 193 66 -193 rlineto
            return
          </CharString>
          <CharString index="140">
            rmoveto
            154 24 -47 324 -44 hlineto
            -11 callgsubr
            endchar
          </CharString>
          <CharString index="141">
            423 -652 rlineto
            23 hlineto
            -2 588 rlineto
            34 9 26 17 17 vhcurveto
            7 7 22 3 39 hhcurveto
            return
          </CharString>
          <CharString index="142">
            61 21 -213 -21 61 -412 -61 return
          </CharString>
          <CharString index="143">
            53 -37 29 -53 205 callgsubr
            return
          </CharString>
          <CharString index="144">
            -13 60 -48 28 403 27 return
          </CharString>
          <CharString index="145">
            -29 -30 29 28 44 46 22 92 21 29 -6 -11 35 hvcurveto
            -11 36 21 -5 7 hhcurveto
            7 9 9 18 10 hvcurveto
            8 15 4 12 9 vvcurveto
            18 -27 15 -55 12 vhcurveto
            7 -41 -36 4 -31 hhcurveto
            -49 -39 -9 -18 -31 hvcurveto
            -39 -23 -19 -35 -45 vvcurveto
            -44 20 -32 40 -20 vhcurveto
            return
          </CharString>
          <CharString index="146">
            197 612 rmoveto
            33 -24 21 -31 -27 -26 -27 -27 -28 26 -25 27 29 27 25 28 -1 vhcurveto
            -8 -156 rmoveto
            -162 -27 58 hlineto
            return
          </CharString>
          <CharString index="147">
            23 -23 108 101 27 62 48 24 -20 hstemhm
            37 68 -51 38 113 71 hintmask 10111011
            276 return
          </CharString>
          <CharString index="148">
            158 rmoveto
            -2 -43 -14 -33 -25 -24 rrcurveto
            -16 -17 -42 -16 -23 hhcurveto
            -149 -2 273 430 -374 -1 -1 -133 rlineto
            29 hlineto
            1 24 0 30 24 29 12 15 30 8 49 1 111 3 rcurveline
            -275 -429 414 -1 9 158 rlineto
            return
          </CharString>
          <CharString index="149">
            -36 248 -20 hlineto
            -65 -117 rlineto
            13 hlineto
            39 69 rlineto
            -200 -35 return
          </CharString>
          <CharString index="150">
            39 117 91 hintmask 11011100
            304 597 rmoveto
            25 -21 21 -24 -27 -19 -21 -25 -24 19 -22 27 24 21 22 24 vhcurveto
            -94 98 rmoveto
            hintmask 10111100
            29 -13 14 -25 -19 -11 -7 -15 -5 vhcurveto
            -62 -186 22 -3 105 143 rlineto
            5 6 3 8 11 vvcurveto
            return
          </CharString>
          <CharString index="151">
            -33 -16 -25 -49 -49 7 -36 15 -22 return
          </CharString>
          <CharString index="152">
            rmoveto
            54 -28 27 -55 -29 -20 -10 -19 -10 vhcurveto
            4 89 rlineto
            -3 9 11 -2 12 hhcurveto
            36 28 12 24 19 hvcurveto
            -6 9 rlineto
            return
          </CharString>
          <CharString index="153">
            68 callgsubr
            21 9 11 18 vhcurveto
            8 20 -8 9 hhcurveto
            return
          </CharString>
          <CharString index="154">
            32 77 callgsubr
            return
          </CharString>
          <CharString index="155">
            113 callsubr
            1 -33 242 callgsubr
            -21 vvcurveto
            -71 3 -45 return
          </CharString>
          <CharString index="156">
            -172 rmoveto
            8 -3 5 -6 3 198 callgsubr
            39 28 45 55 53 hvcurveto
            -37 hlineto
            -76 -61 -38 -54 -45 vvcurveto
            -21 7 -19 14 -15 vhcurveto
            -17 17 23 -9 27 hhcurveto
            37 30 16 32 24 hvcurveto
            endchar
          </CharString>
          <CharString index="157">
            rmoveto
            25 -12 227 callgsubr
            -27 -29 -29 -33 hhcurveto
            return
          </CharString>
          <CharString index="158">
            99 callgsubr
            28 173 callgsubr
            return
          </CharString>
          <CharString index="159">
            272 callgsubr
            83 -15 72 -31 59 vhcurveto
            8 hlineto
            return
          </CharString>
          <CharString index="160">
            79 12 58 39 vvcurveto
            15 -19 8 return
          </CharString>
          <CharString index="161">
            -9 -13 -17 -5 -22 hhcurveto
            -22 -20 4 9 -18 hvcurveto
            -11 -5 -6 -144 rlineto
            14 hlineto
            23 17 17 11 17 hhcurveto
            36 18 -23 -47 -21 -5 -17 -9 -14 hvcurveto
            -18 -11 -15 -9 -19 hhcurveto
            -23 -11 8 15 hvcurveto
            7 5 10 5 vvcurveto
            return
          </CharString>
          <CharString index="162">
            407 -94 callgsubr
            return
          </CharString>
          <CharString index="163">
            23 -23 102 32 26 175 27 hstemhm
            28 68 -53 67 102 70 hintmask 10111010
            212 return
          </CharString>
          <CharString index="164">
            -43 44 vhcurveto
            45 -42 -56 22 -69 202 callsubr
            return
          </CharString>
          <CharString index="165">
            -39 61 vhcurveto
            65 -42 -42 33 -42 hhcurveto
            -13 -6 return
          </CharString>
          <CharString index="166">
            rmoveto
            9 -1 8 -2 7 vhcurveto
            return
          </CharString>
          <CharString index="167">
            hstemhm
            0 47 -47 142 return
          </CharString>
          <CharString index="168">
            rmoveto
            97 67 49 87 107 vvcurveto
            73 -20 56 -51 60 vhcurveto
            -25 30 -25 23 -27 16 rrcurveto
            -4 hlineto
            -10 -10 rlineto
            -3 vlineto
            69 -61 35 -80 -99 vvcurveto
            -108 -28 -71 -76 -75 vhcurveto
            -3 vlineto
            13 -9 rlineto
            3 hlineto
            endchar
          </CharString>
          <CharString index="169">
            12 8 -8 -15 2 hvcurveto
            -356 vlineto
            -15 -10 -8 -12 vhcurveto
            250 callgsubr
            -58 hlineto
            -12 -10 8 15 hvcurveto
            return
          </CharString>
          <CharString index="170">
            25 310 27 hstemhm
            35 65 -50 50 108 49 -49 70 hintmask 11010100
            155 return
          </CharString>
          <CharString index="171">
            253 callsubr
            209 67 callgsubr
            return
          </CharString>
          <CharString index="172">
            -11 -38 -31 -65 hhcurveto
            -70 -41 31 return
          </CharString>
          <CharString index="173">
            -21 116 callsubr
            return
          </CharString>
          <CharString index="174">
            vhcurveto
            8 19 -7 9 hhcurveto
            return
          </CharString>
          <CharString index="175">
            -229 155 return
          </CharString>
          <CharString index="176">
            229 callgsubr
            29 25 50 -2 hvcurveto
            -106 -141 rmoveto
            23 -25 13 -27 -23 -21 -6 -11 -18 vhcurveto
            -21 -13 -10 -17 -22 vvcurveto
            -27 12 317 callgsubr
            7 6 1 1 5 hvcurveto
            return
          </CharString>
          <CharString index="177">
            185 callsubr
            32 179 callgsubr
            -3 18 rlineto
            return
          </CharString>
          <CharString index="178">
            0 31 627 31 return
          </CharString>
          <CharString index="179">
            386 364 rmoveto
            38 37 31 17 23 1 46 2 rcurveline
            26 -238 -26 57 vlineto
            11 5 -4 -6 -7 -3 -6 -7 -5 hvcurveto
            -39 -37 -34 -29 -25 -23 -70 -55 rcurveline
            439 -160 -27 57 vlineto
            return
          </CharString>
          <CharString index="180">
            -22 74 callgsubr
            return
          </CharString>
          <CharString index="181">
            -30 0 25 193 25 184 27 return
          </CharString>
          <CharString index="182">
            -9 -37 -5 -29 -20 vvcurveto
            return
          </CharString>
          <CharString index="183">
            rmoveto
            -38 callsubr
            return
          </CharString>
          <CharString index="184">
            117 46 58 91 45 36 -23 -47 29 vhcurveto
            43 -163 rmoveto
            -51 -10 -41 -21 -33 vhcurveto
            -37 -22 -32 -18 -43 hhcurveto
            -55 -43 26 52 -29 hvcurveto
            233 225 rlineto
            15 -37 7 -41 -45 vvcurveto
            return
          </CharString>
          <CharString index="185">
            446 402 rmoveto
            37 -25 27 -44 -5 -6 0 -1 -6 vhcurveto
            -35 -5 -28 -26 -21 -47 -19 -39 -9 -42 -1 -44 rrcurveto
            -5 hlineto
            -2 66 -20 53 -38 40 rrcurveto
            30 -29 -58 15 -85 hhcurveto
            return
          </CharString>
          <CharString index="186">
            rmoveto
            -65 callgsubr
            return
          </CharString>
          <CharString index="187">
            21 -24 -24 -22 -21 -25 -24 22 -22 24 24 return
          </CharString>
          <CharString index="188">
            -25 hlineto
            -71 41 -56 72 69 43 56 71 vhcurveto
            return
          </CharString>
          <CharString index="189">
            hlineto
            -13 29 callgsubr
            return
          </CharString>
          <CharString index="190">
            270 80 rmoveto
            27 -12 35 -23 3 vhcurveto
            -57 -27 -29 -29 -33 hhcurveto
            return
          </CharString>
          <CharString index="191">
            82 66 15 31 50 hvcurveto
            57 35 28 50 64 vvcurveto
            -103 -3 rmoveto
            1 -57 -18 -42 -39 -29 rrcurveto
            -25 -32 -41 -12 -49 hhcurveto
            -86 332 106 hlineto
            107 47 -51 -116 4 hvcurveto
            return
          </CharString>
          <CharString index="192">
            43 callgsubr
            endchar
          </CharString>
          <CharString index="193">
            40 -38 48 -18 57 1 76 1 62 24 48 22 callsubr
            75 vvcurveto
            54 -16 47 -33 40 vhcurveto
            67 66 rlineto
            -382 -310 rmoveto
            -11 36 -6 39 43 vvcurveto
            return
          </CharString>
          <CharString index="194">
            13 -6 7 -11 -16 -8 -7 -14 -37 26 -18 52 24 21 10 19 18 vhcurveto
            19 19 9 return
          </CharString>
          <CharString index="195">
            23 6 16 11 11 vhcurveto
            5 5 15 2 25 hhcurveto
            return
          </CharString>
          <CharString index="196">
            318 -20 26 -20 hstemhm
            140 60 return
          </CharString>
          <CharString index="197">
            188 callgsubr
            -22 -52 -39 -37 return
          </CharString>
          <CharString index="198">
            197 93 callsubr
            return
          </CharString>
          <CharString index="199">
            254 callgsubr
            0 1 return
          </CharString>
          <CharString index="200">
            -14 35 655 31 return
          </CharString>
          <CharString index="201">
            6 1 6 hhcurveto
            29 14 -13 -25 1 hvcurveto
            return
          </CharString>
          <CharString index="202">
            9 -16 rrcurveto
            20 -38 10 -44 -51 vvcurveto
            -41 return
          </CharString>
          <CharString index="203">
            53 -34 134 callsubr
            -31 return
          </CharString>
          <CharString index="204">
            rmoveto
            51 -43 44 -57 -59 -40 -44 -51 -55 40 -39 59 57 43 42 52 vhcurveto
            -36 hmoveto
            -38 -26 -26 -38 -36 -29 25 39 37 29 27 36 34 30 -25 -39 vhcurveto
            return
          </CharString>
          <CharString index="205">
            30 15 10 21 hvcurveto
            return
          </CharString>
          <CharString index="206">
            -11 117 callsubr
            return
          </CharString>
          <CharString index="207">
            0 81 626 -20 hstem
            344 707 rmoveto
            -40 hlineto
            -272 -707 rlineto
            555 hlineto
            -481 81 rmoveto
            189 484 169 -484 rlineto
            endchar
          </CharString>
          <CharString index="208">
            -13 -17 -5 -22 hhcurveto
            -22 -20 5 9 -18 hvcurveto
            -11 -5 -6 return
          </CharString>
          <CharString index="209">
            13 -27 25 -23 vhcurveto
            26 -23 29 -10 31 2 rrcurveto
            7 hlineto
            return
          </CharString>
          <CharString index="210">
            4 8 hhcurveto
            8 4 -5 -11 -17 -10 -21 -19 -23 hvcurveto
            -19 -24 -18 268 callgsubr
            26 22 26 32 rrcurveto
            26 31 13 30 28 vvcurveto
            return
          </CharString>
          <CharString index="211">
            25 35 23 15 29 11 vhcurveto
            11 28 10 37 10 45 13 63 8 37 3 13 23 87 31 100 38 113 rrcurveto
            25 70 12 34 -2 vvcurveto
            endchar
          </CharString>
          <CharString index="212">
            vlineto
            46 -2 65 -3 46 -15 26 -27 rlinecurve
            26 -27 15 -41 4 -57 rrcurveto
            30 hlineto
            return
          </CharString>
          <CharString index="213">
            -20 36 -20 hstemhm
            100 151 -151 236 return
          </CharString>
          <CharString index="214">
            -141 71 callsubr
            return
          </CharString>
          <CharString index="215">
            -244 0 21 412 21 return
          </CharString>
          <CharString index="216">
            -63 1 -44 -42 -57 hhcurveto
            -58 201 72 hlineto
            55 29 -32 -64 2 hvcurveto
            endchar
          </CharString>
          <CharString index="217">
            659 -41 callgsubr
            return
          </CharString>
          <CharString index="218">
            24 312 24 hstem
            33 64 114 66 vstem
            155 return
          </CharString>
          <CharString index="219">
            251 callgsubr
            -35 -29 -28 -35 return
          </CharString>
          <CharString index="220">
            -7 -1 -18 -31 vvcurveto
            -22 return
          </CharString>
          <CharString index="221">
            -17 vlineto
            31 26 12 23 return
          </CharString>
          <CharString index="222">
            -206 109 rmoveto
            return
          </CharString>
          <CharString index="223">
            -25 vvcurveto
            -31 13 -27 return
          </CharString>
          <CharString index="224">
            11 -23 -17 -13 return
          </CharString>
          <CharString index="225">
            21 21 11 23 26 vvcurveto
            endchar
          </CharString>
          <CharString index="226">
            20 callsubr
            -57 callsubr
            -168 -4 rmoveto
            return
          </CharString>
          <CharString index="227">
            -7 vlineto
            37 -15 20 -16 4 -18 7 -23 -18 -21 -17 3 rrcurveto
            -4 -8 5 9 -13 hvcurveto
            9 -12 -10 5 -7 hhcurveto
            -17 -8 -8 -17 return
          </CharString>
          <CharString index="228">
            -10 vhcurveto
            4 89 rlineto
            -4 9 11 -2 12 hhcurveto
            36 28 12 25 19 hvcurveto
            return
          </CharString>
          <CharString index="229">
            170 callgsubr
            28 vvcurveto
            return
          </CharString>
          <CharString index="230">
            rmoveto
            -314 -24 314 hlineto
            return
          </CharString>
          <CharString index="231">
            -20 103 callgsubr
            return
          </CharString>
          <CharString index="232">
            196 -77 77 1 -20 hstemhm
            return
          </CharString>
          <CharString index="233">
            262 callsubr
            -15 -21 vhcurveto
            -17 -13 -21 -48 callgsubr
            return
          </CharString>
          <CharString index="234">
            -32 -13 -20 -16 -26 hhcurveto
            -13 -23 8 16 -34 hvcurveto
            return
          </CharString>
          <CharString index="235">
            32 11 19 16 29 hhcurveto
            11 22 -8 -16 34 hvcurveto
            return
          </CharString>
          <CharString index="236">
            99 callgsubr
            hlineto
            return
          </CharString>
          <CharString index="237">
            29 -12 14 -25 -19 -12 -7 -15 -5 vhcurveto
            -61 -186 21 -3 106 143 rlineto
            5 6 2 8 11 vvcurveto
            -171 -98 rmoveto
            return
          </CharString>
          <CharString index="238">
            -13 -12 -24 -13 4 -10 8 -8 hvcurveto
            138 -135 rlineto
            25 hlineto
            return
          </CharString>
          <CharString index="239">
            rmoveto
            -316 -50 316 hlineto
            endchar
          </CharString>
          <CharString index="240">
            13 25 13 hvcurveto
            11 return
          </CharString>
          <CharString index="241">
            32 -53 -44 -22 -15 return
          </CharString>
          <CharString index="242">
            -31 218 31 return
          </CharString>
          <CharString index="243">
            hhcurveto
            -90 -45 70 141 144 return
          </CharString>
          <CharString index="244">
            193 0 31 304 30 293 31 hstemhm
            146 91 270 99 -78 109 hintmask 11110100
            637 173 rmoveto
            return
          </CharString>
          <CharString index="245">
            -27 -21 31 48 263 48 -20 47 197 46 21 46 31 -20 hstemhm
            41 64 235 64 80 63 235 64 return
          </CharString>
          <CharString index="246">
            rmoveto
            20 7 10 14 21 vvcurveto
            13 -7 9 -13 6 vhcurveto
            -16 8 -14 0 -11 -9 -164 -124 rcurveline
            17 -13 rlineto
            return
          </CharString>
          <CharString index="247">
            31 rmoveto
            -94 658 -54 hlineto
            -168 -308 rlineto
            33 hlineto
            102 179 rlineto
            -529 -93 -31 274 vlineto
            endchar
          </CharString>
          <CharString index="248">
            rmoveto
            25 -12 215 callgsubr
            return
          </CharString>
          <CharString index="249">
            -89 -9 49 284 140 -36 36 return
          </CharString>
          <CharString index="250">
            -20 30 -20 hstemhm
            88 47 -47 145 return
          </CharString>
          <CharString index="251">
            -11 -33 hhcurveto
            -119 -2 rlineto
            return
          </CharString>
          <CharString index="252">
            15 -231 -21 682 27 return
          </CharString>
          <CharString index="253">
            15 -15 25 431 32 return
          </CharString>
          <CharString index="254">
            16 -11 28 416 20 return
          </CharString>
          <CharString index="255">
            -21 29 hhcurveto
            23 18 return
          </CharString>
          <CharString index="256">
            -21 260 vlineto
            105 53 38 77 hvcurveto
            hintmask 10011100
            -117 229 rmoveto
            -35 -11 -27 -23 -19 vhcurveto
            -14 -17 -20 -7 return
          </CharString>
          <CharString index="257">
            -94 vvcurveto
            -91 30 -59 59 -26 vhcurveto
            14 -6 56 -8 97 -11 rrcurveto
            60 -6 30 -25 -45 vvcurveto
            -43 -36 -24 -43 vhcurveto
            return
          </CharString>
          <CharString index="258">
            -23 -45 29 vhcurveto
            return
          </CharString>
          <CharString index="259">
            17 -27 10 -30 1 rrcurveto
            hintmask 10101100
            60 9 45 40 59 vvcurveto
            69 -52 45 -84 vhcurveto
            -261 hlineto
            hintmask 10011010
            -21 return
          </CharString>
          <CharString index="260">
            31 63 -13 hvcurveto
            -26 hlineto
            -2 -4 rlineto
            -91 59 -62 91 43 35 15 29 27 vhcurveto
            27 29 13 37 43 vvcurveto
            return
          </CharString>
          <CharString index="261">
            5 -36 -27 3 -18 hhcurveto
            -67 -34 -28 -55 hvcurveto
            19 hlineto
            23 1 18 11 33 hhcurveto
            20 29 -3 -6 39 hvcurveto
            return
          </CharString>
          <CharString index="262">
            -39 callsubr
            4 11 13 vvcurveto
            -168 -3 rmoveto
            193 callsubr
            -52 return
          </CharString>
          <CharString index="263">
            -16 33 32 16 16 return
          </CharString>
          <CharString index="264">
            241 callsubr
            -18 hhcurveto
            -27 -13 -11 -23 -10 3 -9 7 -7 hvcurveto
            130 -139 rlineto
            return
          </CharString>
          <CharString index="265">
            184 callgsubr
            -37 return
          </CharString>
          <CharString index="266">
            -6 39 30 -3 21 hhcurveto
            61 29 24 49 return
          </CharString>
          <CharString index="267">
            23 78 12 59 39 vvcurveto
            15 -19 7 -38 return
          </CharString>
          <CharString index="268">
            rmoveto
            -251 -39 251 hlineto
            endchar
          </CharString>
          <CharString index="269">
            -15 100 callgsubr
            return
          </CharString>
          <CharString index="270">
            hstemhm
            0 49 -49 158 return
          </CharString>
          <CharString index="271">
            282 -1 rlineto
            32 vlineto
            return
          </CharString>
          <CharString index="272">
            -94 -31 276 return
          </CharString>
          <CharString index="273">
            597 rmoveto
            25 -22 21 -24 -24 -20 -21 -25 -24 20 301 callsubr
            -95 98 rmoveto
            return
          </CharString>
          <CharString index="274">
            171 callgsubr
            -43 270 callsubr
            return
          </CharString>
          <CharString index="275">
            141 callsubr
            -33 hhcurveto
            return
          </CharString>
          <CharString index="276">
            hstemhm
            125 callgsubr
            return
          </CharString>
          <CharString index="277">
            194 callgsubr
            -23 23 179 return
          </CharString>
          <CharString index="278">
            -18 88 124 80 104 86 return
          </CharString>
          <CharString index="279">
            1 -5 7 13 -11 hvcurveto
            -21 return
          </CharString>
          <CharString index="280">
            2 3 -3 hvcurveto
            -3 return
          </CharString>
          <CharString index="281">
            61 253 callgsubr
            return
          </CharString>
          <CharString index="282">
            hlineto
            171 -2 return
          </CharString>
          <CharString index="283">
            216 callgsubr
            26 callsubr
            return
          </CharString>
          <CharString index="284">
            22 rcurveline
            -27 -11 -26 -21 -26 -33 rrcurveto
            -26 -32 -13 -30 -27 vvcurveto
            -26 7 -23 13 -19 vhcurveto
            -23 return
          </CharString>
          <CharString index="285">
            81 callsubr
            endchar
          </CharString>
          <CharString index="286">
            239 rmoveto
            -3 return
          </CharString>
          <CharString index="287">
            -22 -17 -13 -6 -13 -7 vhcurveto
            -96 -181 20 -4 133 299 callgsubr
            return
          </CharString>
          <CharString index="288">
            21 15 9 20 -3 23 -1 21 -16 22 -29 21 -11 6 -3 8 5 9 rrcurveto
            endchar
          </CharString>
          <CharString index="289">
            -51 callsubr
            -29 vhcurveto
            return
          </CharString>
          <CharString index="290">
            -8 -164 -125 rcurveline
            17 -12 rlineto
            return
          </CharString>
          <CharString index="291">
            136 rlineto
            8 9 4 12 13 vvcurveto
            return
          </CharString>
          <CharString index="292">
            321 callgsubr
            28 -11 return
          </CharString>
          <CharString index="293">
            307 callgsubr
            hstemhm
            return
          </CharString>
          <CharString index="294">
            27 383 60 -40 27 return
          </CharString>
          <CharString index="295">
            0 275 callgsubr
            return
          </CharString>
          <CharString index="296">
            -16 -23 hhcurveto
            -150 -2 275 433 rlineto
            hintmask 11000000
            -377 -1 -1 -134 rlineto
            return
          </CharString>
          <CharString index="297">
            -11 11 -22 -17 -13 236 callgsubr
            return
          </CharString>
          <CharString index="298">
            -33 -16 -15 -31 -29 16 -15 33 13 22 6 11 31 hvcurveto
            12 31 25 6 18 hhcurveto
            return
          </CharString>
          <CharString index="299">
            13 20 15 13 17 rrcurveto
            2 -5 7 13 -12 hvcurveto
            -21 -34 -29 -11 -23 hhcurveto
            endchar
          </CharString>
          <CharString index="300">
            26 -21 13 -42 return
          </CharString>
          <CharString index="301">
            hhcurveto
            -131 293 147 hlineto
            82 41 -46 -93 hvcurveto
            hintmask 11110100
            21 -343 rmoveto
            return
          </CharString>
          <CharString index="302">
            309 callsubr
            29 10 callsubr
            return
          </CharString>
          <CharString index="303">
            vhcurveto
            53 61 37 42 20 22 124 -173 rcurveline
            -54 -21 224 hlineto
            endchar
          </CharString>
          <CharString index="304">
            32 25 -6 18 hhcurveto
            46 25 35 69 5 hvcurveto
            return
          </CharString>
          <CharString index="305">
            234 callgsubr
            499 273 callgsubr
            return
          </CharString>
          <CharString index="306">
            93 callsubr
            -31 67 return
          </CharString>
          <CharString index="307">
            -8 vhcurveto
            -3 -11 -19 -13 -35 return
          </CharString>
          <CharString index="308">
            114 -53 57 -108 vhcurveto
            return
          </CharString>
          <CharString index="309">
            hhcurveto
            -73 -58 -24 -47 -43 hvcurveto
            return
          </CharString>
          <CharString index="310">
            -448 -699 rlineto
            return
          </CharString>
          <CharString index="311">
            -16 16 -33 -33 return
          </CharString>
          <CharString index="312">
            30 646 31 return
          </CharString>
          <CharString index="313">
            96 callsubr
            -23 15 -12 29 vhcurveto
            307 callsubr
            return
          </CharString>
          <CharString index="314">
            vvcurveto
            -36 26 -41 49 23 26 7 14 27 vhcurveto
            25 13 19 15 14 17 rrcurveto
            return
          </CharString>
          <CharString index="315">
            45 callgsubr
            184 callgsubr
            return
          </CharString>
          <CharString index="316">
            53 -38 295 callgsubr
            15 20 10 5 hhcurveto
            return
          </CharString>
          <CharString index="317">
            689 rmoveto
            -389 -161 28 hlineto
            56 -1 9 20 52 hhcurveto
            252 hlineto
            return
          </CharString>
          <CharString index="318">
            62 21 -214 -21 62 -183 -170 183 60 21 -211 -21 59 return
          </CharString>
          <CharString index="319">
            rmoveto
            20 8 10 14 20 vvcurveto
            14 return
          </CharString>
          <CharString index="320">
            -60 -3 37 -13 -21 419 38 return
          </CharString>
          <CharString index="321">
            39 -39 109 -109 198 return
          </CharString>
          <CharString index="322">
            96 -52 52 6 -20 hstemhm
            return
          </CharString>
          <CharString index="323">
            hstemhm
            35 91 289 91 return
          </CharString>
          <CharString index="324">
            30 -24 32 -11 return
          </CharString>
          <CharString index="325">
            -203 -50 rmoveto
            return
          </CharString>
          <CharString index="326">
            143 -41 41 return
          </CharString>
          <CharString index="327">
            453 454 rmoveto
            -427 hlineto
            -1 -134 rlineto
            28 hlineto
            5 73 30 return
          </CharString>
          <CharString index="328">
            25 -21 21 -24 -27 -21 -21 -25 -24 21 -22 27 24 21 22 24 vhcurveto
            return
          </CharString>
          <CharString index="329">
            -4 -88 rlineto
            165 hlineto
            -164 231 rmoveto
            -50 -9 -42 -19 -33 vhcurveto
            return
          </CharString>
          <CharString index="330">
            -18 59 hhcurveto
            68 293 callgsubr
            endchar
          </CharString>
          <CharString index="331">
            -19 -39 -13 hvcurveto
            -17 vlineto
            25 1 23 10 return
          </CharString>
          <CharString index="332">
            257 callgsubr
            hstemhm
            return
          </CharString>
          <CharString index="333">
            94 -627 -94 -31 return
          </CharString>
          <CharString index="334">
            -20 hstemhm
            0 158 return
          </CharString>
          <CharString index="335">
            hvcurveto
            -43 -45 -21 return
          </CharString>
          <CharString index="336">
            16 16 33 vhcurveto
            return
          </CharString>
          <CharString index="337">
            22 1 23 -1 23 -4 55 -7 39 -23 23 -37 rrcurveto
            20 -33 10 return
          </CharString>
          <CharString index="338">
            524 26 callgsubr
            -20 15 rrcurveto
            -23 18 -11 19 20 vvcurveto
            return
          </CharString>
          <CharString index="339">
            7 vhcurveto
            -16 7 -14 -1 -11 -9 -165 -123 rcurveline
            18 -12 rlineto
            return
          </CharString>
          <CharString index="340">
            -18 9 -16 rrcurveto
            return
          </CharString>
          <CharString index="341">
            6 23 26 vvcurveto
            return
          </CharString>
          <CharString index="342">
            -18 -35 -21 vhcurveto
            -17 -29 -8 -34 -39 vvcurveto
            -78 29 -39 57 vhcurveto
            return
          </CharString>
          <CharString index="343">
            124 callsubr
            hintmask 01111100
            return
          </CharString>
          <CharString index="344">
            -24 85 248 -20 hstemhm
            221 33 return
          </CharString>
          <CharString index="345">
            -10 32 412 33 38 68 return
          </CharString>
          <CharString index="346">
            165 8 -21 446 20 return
          </CharString>
          <CharString index="347">
            489 20 -21 677 31 return
          </CharString>
          <CharString index="348">
            273 callsubr
            -13 7 return
          </CharString>
          <CharString index="349">
            -20 216 callsubr
            return
          </CharString>
          <CharString index="350">
            269 21 -21 429 28 return
          </CharString>
          <CharString index="351">
            -8 -8 -12 hhcurveto
            -56 -27 return
          </CharString>
          <CharString index="352">
            59 rrcurveto
            -33 60 -17 78 return
          </CharString>
          <CharString index="353">
            -20 hstemhm
            32 85 -33 69 return
          </CharString>
          <CharString index="354">
            37 29 18 36 47 vvcurveto
            return
          </CharString>
          <CharString index="355">
            -7 51 69 vvcurveto
            69 7 return
          </CharString>
          <CharString index="356">
            135 rlineto
            8 9 4 return
          </CharString>
          <CharString index="357">
            29 14 12 25 hvcurveto
            return
          </CharString>
          <CharString index="358">
            -38 -27 -16 -7 -13 return
          </CharString>
          <CharString index="359">
            -85 -175 rmoveto
            return
          </CharString>
          <CharString index="360">
            hstemhm
            145 89 return
          </CharString>
          <CharString index="361">
            -6 -59 callsubr
            22 -4 132 136 rlineto
            return
          </CharString>
          <CharString index="362">
            -24 77 -11 76 -76 175 -15 102 -32 32 14 -20 hstemhm
            return
          </CharString>
          <CharString index="363">
            14 -7 -13 7 return
          </CharString>
          <CharString index="364">
            16 -16 32 33 return
          </CharString>
          <CharString index="365">
            212 callsubr
            -7 10 -13 5 vhcurveto
            return
          </CharString>
          <CharString index="366">
            -173 rmoveto
            9 -3 5 -6 2 vhcurveto
            -11 -13 -15 -5 return
          </CharString>
          <CharString index="367">
            16 -1 24 -6 31 -11 rrcurveto
            -11 32 23 -6 14 hhcurveto
            return
          </CharString>
          <CharString index="368">
            27 393 27 214 27 hstemhm
            100 81 0 178 return
          </CharString>
          <CharString index="369">
            49 37 -44 -81 hvcurveto
            32 277 -32 hlineto
            -41 -8 -31 return
          </CharString>
          <CharString index="370">
            22 -7 -13 18 hvcurveto
            25 -19 13 -28 -39 vvcurveto
            endchar
          </CharString>
          <CharString index="371">
            -20 hstem
            24 89 232 88 vstem
            return
          </CharString>
          <CharString index="372">
            189 callgsubr
            278 31 return
          </CharString>
          <CharString index="373">
            309 callgsubr
            -15 -17 9 17 return
          </CharString>
          <CharString index="374">
            711 rmoveto
            -67 -711 67 hlineto
            return
          </CharString>
          <CharString index="375">
            -39 0 21 -10 -21 443 21 return
          </CharString>
          <CharString index="376">
            -31 278 31 -93 268 84 return
          </CharString>
          <CharString index="377">
            44 57 -22 70 hhcurveto
            return
          </CharString>
          <CharString index="378">
            289 callgsubr
            hstemhm
            return
          </CharString>
          <CharString index="379">
            24 22 22 24 vhcurveto
            return
          </CharString>
          <CharString index="380">
            705 rmoveto
            14 -7 return
          </CharString>
          <CharString index="381">
            104 434 104 return
          </CharString>
          <CharString index="382">
            -12 13 26 39 return
          </CharString>
          <CharString index="383">
            16 16 32 vhcurveto
            return
          </CharString>
          <CharString index="384">
            234 -17 51 194 39 41 156 -30 30 return
          </CharString>
          <CharString index="385">
            0 27 378 36 134 128 -21 21 hstemhm
            return
          </CharString>
          <CharString index="386">
            233 0 25 125 25 42 26 184 26 return
          </CharString>
          <CharString index="387">
            -20 -3 29 -11 15 hhcurveto
            34 16 17 35 -1 hvcurveto
            return
          </CharString>
          <CharString index="388">
            20 10 -12 -23 -36 -37 -31 -35 -11 hvcurveto
            -17 vlineto
            return
          </CharString>
          <CharString index="389">
            18 117 callgsubr
            endchar
          </CharString>
          <CharString index="390">
            -311 -21 102 116 return
          </CharString>
          <CharString index="391">
            87 -16 36 655 29 return
          </CharString>
          <CharString index="392">
            -30 -1 21 414 20 return
          </CharString>
          <CharString index="393">
            35 -23 26 -45 16 vhcurveto
            return
          </CharString>
          <CharString index="394">
            6 17 vhcurveto
            6 9 0 return
          </CharString>
          <CharString index="395">
            295 91 228 29 return
          </CharString>
          <CharString index="396">
            -20 hstemhm
            54 78 return
          </CharString>
          <CharString index="397">
            -1 -108 -1 return
          </CharString>
          <CharString index="398">
            -6 -5 -10 hvcurveto
            hintmask 01111000
            -7 5 -4 10 vhcurveto
            return
          </CharString>
          <CharString index="399">
            32 -55 -43 -22 -15 -30 -24 15 -12 30 vhcurveto
            return
          </CharString>
          <CharString index="400">
            -22 -17 -13 -7 -13 -7 vhcurveto
            -96 -181 20 return
          </CharString>
          <CharString index="401">
            68 callgsubr
            21 9 11 17 vhcurveto
            return
          </CharString>
          <CharString index="402">
            22 -13 19 vhcurveto
            24 -15 -21 12 -27 hhcurveto
            -41 return
          </CharString>
          <CharString index="403">
            75 31 -267 -31 71 hlineto
            232 -324 return
          </CharString>
          <CharString index="404">
            59 rlineto
            157 hlineto
            42 -126 rlineto
            -51 -21 return
          </CharString>
          <CharString index="405">
            -2 -17 -10 -32 hhcurveto
            -19 -27 3 5 -36 hvcurveto
            return
          </CharString>
          <CharString index="406">
            682 rmoveto
            22 -11 11 -23 return
          </CharString>
          <CharString index="407">
            89 208 32 113 30 return
          </CharString>
          <CharString index="408">
            -22 24 272 callsubr
            return
          </CharString>
          <CharString index="409">
            21 -21 236 201 20 return
          </CharString>
          <CharString index="410">
            -13 58 -45 27 415 37 return
          </CharString>
          <CharString index="411">
            21 9 18 17 hvcurveto
            return
          </CharString>
          <CharString index="412">
            127 91 264 return
          </CharString>
          <CharString index="413">
            -17 hhcurveto
            -11 -15 -4 return
          </CharString>
          <CharString index="414">
            15 17 11 7 hhcurveto
            return
          </CharString>
          <CharString index="415">
            hhcurveto
            -86 -72 -32 -65 return
          </CharString>
          <CharString index="416">
            58 65 vvcurveto
            -95 return
          </CharString>
          <CharString index="417">
            hstem
            25 28 141 91 141 27 vstem
            return
          </CharString>
          <CharString index="418">
            -21 -28 -9 vhcurveto
            10 vlineto
            -1 29 5 27 return
          </CharString>
          <CharString index="419">
            -139 rlineto
            25 hlineto
            -205 109 rmoveto
            return
          </CharString>
          <CharString index="420">
            hlineto
            68 -27 callgsubr
            260 hlineto
            return
          </CharString>
          <CharString index="421">
            28 callgsubr
            hstem
            24 89 return
          </CharString>
          <CharString index="422">
            hstemhm
            72 214 callsubr
            return
          </CharString>
          <CharString index="423">
            394 rmoveto
            -313 -24 313 hlineto
            -72 return
          </CharString>
          <CharString index="424">
            303 callgsubr
            -24 -6 -18 return
          </CharString>
          <CharString index="425">
            -22 55 168 -14 118 -72 72 -11 return
          </CharString>
          <CharString index="426">
            -21 214 hlineto
            endchar
          </CharString>
          <CharString index="427">
            -24 51 hhcurveto
            23 return
          </CharString>
          <CharString index="428">
            11 24 26 vvcurveto
            return
          </CharString>
        <CharString name=".notdef">
          -22 0 63 615 63 hstem
          63 61 250 63 vstem
          437 hmoveto
          741 -374 -741 vlineto
          61 678 rmoveto
          250 -615 -250 hlineto
          endchar
        </CharString>
        <CharString name="A">
          -19 callsubr
          hstem
          725 -73 callsubr
          -19 -53 -19 -32 -17 -11 rlinecurve
          -13 -8 -24 -4 -35 1 rrcurveto
          135 callsubr
          vlineto
          -38 -21 3 6 -4 hvcurveto
          -4 6 -2 8 9 vvcurveto
          19 6 25 12 31 vhcurveto
          38 90 rlineto
          -92 callgsubr
          endchar
        </CharString>
        <CharString name="AE">
          564 0 32 196 38 68 34 289 32 hstemhm
          553 300 callsubr
          -6 26 hintmask 11111101
          1019 7 callgsubr
          -16 -21 vhcurveto
          -17 -13 -20 -48 callgsubr
          rlineto
          hintmask 11111110
          24 callgsubr
          hintmask 11111101
          278 callgsubr
          endchar
        </CharString>
        <CharString name="AEacute">
          589 0 32 196 38 68 34 289 32 254 -20 hstemhm
          557 300 callsubr
          -6 26 hintmask 1111111010000000
          1023 7 callgsubr
          -16 -21 vhcurveto
          -17 -13 -20 -48 callgsubr
          rlineto
          hintmask 1111111100000000
          24 callgsubr
          hintmask 1111111010000000
          278 callgsubr
          204 641 rmoveto
          24 -11 12 -22 311 callgsubr
          -5 133 136 rlineto
          9 9 4 12 13 vvcurveto
          endchar
        </CharString>
        <CharString name="AEsmall">
          279 callsubr
          -31 callsubr
          endchar
        </CharString>
        <CharString name="Aacute">
          -19 callsubr
          256 -20 hstem
          725 -73 callsubr
          -19 -53 -19 -32 -17 -11 rlinecurve
          -13 -8 -24 -4 -35 1 rrcurveto
          135 callsubr
          vlineto
          -38 -21 3 6 -4 hvcurveto
          -4 6 -2 8 9 vvcurveto
          19 6 25 12 31 vhcurveto
          38 90 rlineto
          -92 callgsubr
          90 642 rmoveto
          24 -11 12 -22 311 callgsubr
          -5 133 136 rlineto
          9 9 4 12 13 vvcurveto
          endchar
        </CharString>
        <CharString name="Aacutesmall">
          187 callgsubr
          503 -20 hstem
          -91 callgsubr
          118 475 16 callgsubr
          endchar
        </CharString>
        <CharString name="Abreve">
          -19 callsubr
          56 64 93 -20 hstem
          725 -73 callsubr
          -19 -53 -19 -32 -17 -11 rlinecurve
          -13 -8 -24 -4 -35 1 rrcurveto
          135 callsubr
          vlineto
          -38 -21 3 6 -4 hvcurveto
          -4 6 -2 8 9 vvcurveto
          19 6 25 12 31 vhcurveto
          38 90 rlineto
          -92 callgsubr
          65 635 -72 callgsubr
          endchar
        </CharString>
        <CharString name="Abreveacute">
          -19 callsubr
          50 63 232 -20 hstem
          725 -73 callsubr
          -19 -53 -19 -32 -17 -11 rlinecurve
          -13 -8 -24 -4 -35 1 rrcurveto
          135 callsubr
          vlineto
          -38 -21 3 6 -4 hvcurveto
          -4 6 -2 8 9 vvcurveto
          19 6 25 12 31 vhcurveto
          38 90 rlineto
          -92 callgsubr
          82 629 rmoveto
          -26 hlineto
          -63 -11 -38 -31 -65 hhcurveto
          -70 -42 153 callsubr
          5 108 rmoveto
          23 -11 11 -22 144 callgsubr
          22 -3 132 135 rlineto
          9 9 4 12 14 vvcurveto
          endchar
        </CharString>
        <CharString name="Abrevedotbelow">
          -241 106 135 -11 callsubr
          48 64 93 -20 hstem
          313 108 vstem
          725 -73 callsubr
          -19 -53 -19 -32 -17 -11 rlinecurve
          -13 -8 -24 -4 -35 1 rrcurveto
          135 callsubr
          vlineto
          -38 -21 3 6 -4 hvcurveto
          -4 6 -2 8 9 vvcurveto
          19 6 25 12 31 vhcurveto
          38 90 rlineto
          -92 callgsubr
          74 627 -72 callgsubr
          -119 -1077 -87 callsubr
          endchar
        </CharString>
        <CharString name="Abrevegrave">
          -19 callsubr
          55 64 240 -20 hstem
          725 -73 callsubr
          -19 -53 -19 -32 -17 -11 rlinecurve
          -13 -8 -24 -4 -35 1 rrcurveto
          135 callsubr
          vlineto
          -38 -21 3 6 -4 hvcurveto
          -4 6 -2 8 9 vvcurveto
          19 6 25 12 31 vhcurveto
          38 90 rlineto
          -92 callgsubr
          77 635 rmoveto
          -26 hlineto
          -63 65 callsubr
          63 -13 hvcurveto
          -26 hlineto
          -3 -4 rlineto
          -91 59 -63 92 43 35 15 29 27 vhcurveto
          27 30 13 37 43 vvcurveto
          -224 129 rmoveto
          256 callsubr
          -17 hhcurveto
          -26 -13 -12 -25 -12 4 -10 8 -9 hvcurveto
          138 -135 rlineto
          25 hlineto
          endchar
        </CharString>
        <CharString name="Abrevehookabove">
          -19 callsubr
          50 63 227 -20 hstem
          429 41 vstem
          725 -73 callsubr
          -19 -53 -19 -32 -17 -11 rlinecurve
          -13 -8 -24 -4 -35 1 rrcurveto
          135 callsubr
          vlineto
          -38 -21 3 6 -4 hvcurveto
          -4 6 -2 8 9 vvcurveto
          19 6 25 12 31 vhcurveto
          38 90 rlineto
          -92 callgsubr
          79 629 rmoveto
          -27 hlineto
          -63 -11 -38 -31 -65 hhcurveto
          -70 -41 153 callsubr
          -142 -52 rmoveto
          3 7 -9 7 7 vvcurveto
          7 12 15 25 24 vhcurveto
          25 24 12 20 16 vvcurveto
          39 -31 23 -37 -7 -8 -1 -2 -7 vhcurveto
          -27 -7 -27 -21 -27 vvcurveto
          -11 4 -5 9 6 5 3 7 3 vhcurveto
          9 17 11 10 13 1 rrcurveto
          29 3 14 -12 -25 vvcurveto
          -10 -9 -16 -19 -21 vhcurveto
          -18 -21 -9 -16 -11 vvcurveto
          -13 9 -16 13 3 2 2 3 1 vhcurveto
          endchar
        </CharString>
        <CharString name="Abrevetilde">
          -19 callsubr
          53 64 124 84 callgsubr
          hintmask 11111010
          725 -73 callsubr
          -19 -53 -19 -32 -17 -11 rlinecurve
          -13 -8 -24 -4 -35 1 rrcurveto
          135 callsubr
          vlineto
          -38 -21 3 6 -4 hvcurveto
          -4 6 -2 8 9 vvcurveto
          19 6 25 12 31 vhcurveto
          38 90 rlineto
          -92 callgsubr
          71 632 -72 callgsubr
          -3 138 -18 callgsubr
          hintmask 11110100
          -75 callsubr
          hintmask 11111010
          -16 callsubr
          endchar
        </CharString>
        <CharString name="Acircumflex">
          -19 callsubr
          217 -20 hstem
          725 -73 callsubr
          -19 -53 -19 -32 -17 -11 rlinecurve
          -13 -8 -24 -4 -35 1 rrcurveto
          135 callsubr
          vlineto
          -38 -21 3 6 -4 hvcurveto
          -4 6 -2 8 9 vvcurveto
          19 6 25 12 31 vhcurveto
          38 90 rlineto
          -92 callgsubr
          -33 639 -100 callgsubr
          endchar
        </CharString>
        <CharString name="Acircumflexacute">
          -19 callsubr
          256 -20 hstem
          725 -73 callsubr
          -19 -53 -19 -32 -17 -11 rlinecurve
          -13 -8 -24 -4 -35 1 rrcurveto
          135 callsubr
          vlineto
          -38 -21 3 6 -4 hvcurveto
          -4 6 -2 8 9 vvcurveto
          19 6 25 12 31 vhcurveto
          38 90 rlineto
          -92 callgsubr
          286 644 rmoveto
          -85 callgsubr
          -320 -5 -100 callgsubr
          endchar
        </CharString>
        <CharString name="Acircumflexdotbelow">
          -233 106 127 -11 callsubr
          215 -20 hstem
          313 108 vstem
          725 -73 callsubr
          -19 -53 -19 -32 -17 -11 rlinecurve
          -13 -8 -24 -4 -35 1 rrcurveto
          135 callsubr
          vlineto
          -38 -21 3 6 -4 hvcurveto
          -4 6 -2 8 9 vvcurveto
          19 6 25 12 31 vhcurveto
          38 90 rlineto
          -92 callgsubr
          -42 -445 -87 callsubr
          4 1082 -100 callgsubr
          endchar
        </CharString>
        <CharString name="Acircumflexgrave">
          -19 callsubr
          54 200 hstem
          725 -73 callsubr
          -19 -53 -19 -32 -17 -11 rlinecurve
          -13 -8 -24 -4 -35 1 rrcurveto
          135 callsubr
          vlineto
          -38 -21 3 6 -4 hvcurveto
          -4 6 -2 8 9 vvcurveto
          19 6 25 12 31 vhcurveto
          38 90 rlineto
          -92 callgsubr
          88 655 30 callsubr
          -220 167 -100 callgsubr
          endchar
        </CharString>
        <CharString name="Acircumflexhookabove">
          -19 callsubr
          55 194 hstem
          640 41 vstem
          725 -73 callsubr
          -19 -53 -19 -32 -17 -11 rlinecurve
          -13 -8 -24 -4 -35 1 rrcurveto
          135 callsubr
          vlineto
          -38 -21 3 6 -4 hvcurveto
          -4 6 -2 8 9 vvcurveto
          19 6 25 12 31 vhcurveto
          38 90 rlineto
          -92 callgsubr
          151 481 79 callsubr
          -102 callsubr
          -96 callgsubr
          -182 161 -100 callgsubr
          endchar
        </CharString>
        <CharString name="Acircumflexsmall">
          187 callgsubr
          484 -20 hstem
          -91 callgsubr
          -13 484 -41 callgsubr
          endchar
        </CharString>
        <CharString name="Acircumflextilde">
          -19 callsubr
          252 84 callgsubr
          hintmask 11110100
          725 -73 callsubr
          -19 -53 -19 -32 -17 -11 rlinecurve
          -13 -8 -24 -4 -35 1 rrcurveto
          135 callsubr
          vlineto
          -38 -21 3 6 -4 hvcurveto
          -4 6 -2 8 9 vvcurveto
          19 6 25 12 31 vhcurveto
          38 90 rlineto
          -92 callgsubr
          -32 639 -100 callgsubr
          -6 303 -18 callgsubr
          hintmask 11101000
          -75 callsubr
          hintmask 11110100
          -16 callsubr
          endchar
        </CharString>
        <CharString name="Acute">
          -230 679 -21 151 -20 hstem
          237 806 rmoveto
          -5 3 -79 -11 -27 -33 -13 -16 -1 -1 rlinecurve
          -62 -74 rlineto
          -6 vlineto
          10 -10 7 1 85 67 90 67 rlineto
          endchar
        </CharString>
        <CharString name="Acutesmall">
          -198 511 -21 166 -20 hstem
          292 621 rmoveto
          23 -11 12 -21 -12 -17 -11 -21 -21 vhcurveto
          -134 -134 rlineto
          38 hlineto
          139 87 rlineto
          26 16 13 15 13 vvcurveto
          endchar
        </CharString>
        <CharString name="Adieresis">
          -19 callsubr
          52 98 hstem
          249 98 98 97 vstem
          725 -73 callsubr
          -19 -53 -19 -32 -17 -11 rlinecurve
          -13 -8 -24 -4 -35 1 rrcurveto
          135 callsubr
          vlineto
          -38 -21 3 6 -4 hvcurveto
          -4 6 -2 8 9 vvcurveto
          19 6 25 12 31 vhcurveto
          38 90 rlineto
          -92 callgsubr
          79 523 rmoveto
          33 -16 16 -33 -32 -16 -16 -33 -33 257 callsubr
          229 callsubr
          -195 hmoveto
          116 callgsubr
          -16 -16 -33 -33 16 -16 33 33 229 callsubr
          endchar
        </CharString>
        <CharString name="Adieresissmall">
          -1 0 20 130 25 356 98 hstem
          119 97 97 97 vstem
          504 21 rmoveto
          -50 hlineto
          -155 445 rlineto
          -57 hlineto
          -143 -376 rlineto
          -54 -21 -10 -16 -37 -5 -4 1 -7 hhcurveto
          -21 144 21 vlineto
          -54 8 9 11 12 5 16 8 21 hvcurveto
          24 60 rlineto
          160 hlineto
          43 -129 rlineto
          -52 -21 203 hlineto
          -344 32 callsubr
          111 404 rmoveto
          33 -16 17 -33 -32 -16 -17 -33 -32 257 callsubr
          276 callsubr
          -194 hmoveto
          33 -16 17 -32 31 callsubr
          vhcurveto
          endchar
        </CharString>
        <CharString name="Adotbelow">
          -234 106 128 -11 callsubr
          hstem
          296 108 vstem
          725 -73 callsubr
          -19 -53 -19 -32 -17 -11 rlinecurve
          -13 -8 -24 -4 -35 1 rrcurveto
          135 callsubr
          vlineto
          -38 -21 3 6 -4 hvcurveto
          -4 6 -2 8 9 vvcurveto
          19 6 25 12 31 vhcurveto
          38 90 rlineto
          -92 callgsubr
          -59 -446 -87 callsubr
          endchar
        </CharString>
        <CharString name="Agrave">
          -19 callsubr
          219 -20 hstem
          725 -73 callsubr
          -19 -53 -19 -32 -17 -11 rlinecurve
          -13 -8 -24 -4 -35 1 rrcurveto
          135 callsubr
          vlineto
          -38 -21 3 6 -4 hvcurveto
          -4 6 -2 8 9 vvcurveto
          19 6 25 12 31 vhcurveto
          38 90 rlineto
          -92 callgsubr
          -186 610 rmoveto
          -60 callsubr
        </CharString>
        <CharString name="Agravesmall">
          187 callgsubr
          474 -20 hstem
          -91 callgsubr
          -151 448 rmoveto
          -19 callgsubr
        </CharString>
        <CharString name="Ahookabove">
          -19 callsubr
          244 -20 hstem
          431 41 vstem
          725 -73 callsubr
          -19 -53 -19 -32 -17 -11 rlinecurve
          -13 -8 -24 -4 -35 1 rrcurveto
          135 callsubr
          vlineto
          -38 -21 3 6 -4 hvcurveto
          -4 6 -2 8 9 vvcurveto
          19 6 25 12 31 vhcurveto
          38 90 rlineto
          -92 callgsubr
          -58 476 79 callsubr
          -102 callsubr
          -96 callgsubr
          endchar
        </CharString>
        <CharString name="Alpha">
          -19 callsubr
          hstem
          725 -73 callsubr
          -15 -43 -13 -26 -9 -11 rlinecurve
          -17 -19 -26 -9 -37 1 rrcurveto
          -10 135 callsubr
          hlineto
          -28 -15 0 1 -3 hvcurveto
          -16 4 -8 10 17 vvcurveto
          19 8 28 15 39 vhcurveto
          11 27 12 26 11 26 rrcurveto
          -92 callgsubr
          endchar
        </CharString>
        <CharString name="Alphatonos">
          -19 callsubr
          30 -20 hstemhm
          hintmask 11010000
          211 684 rmoveto
          23 190 callsubr
          8 4 11 15 vvcurveto
          521 -653 rmoveto
          -74 hlineto
          hintmask 11100000
          -236 677 rlineto
          -40 hlineto
          -217 -570 -16 -43 -12 -26 -9 -11 rlinecurve
          -17 -19 -26 -9 -37 1 rrcurveto
          -10 -31 217 31 hlineto
          -27 -15 0 1 -3 hvcurveto
          -15 4 -8 10 17 vvcurveto
          19 7 28 15 39 vhcurveto
          11 27 12 26 11 26 rrcurveto
          240 hlineto
          69 -27 callgsubr
          260 hlineto
          -475 266 rmoveto
          113 293 100 -293 rlineto
          endchar
        </CharString>
        <CharString name="Amacron">
          -19 callsubr
          56 50 hstem
          725 -73 callsubr
          -19 -53 -19 -32 -17 -11 rlinecurve
          -13 -8 -24 -4 -35 1 rrcurveto
          135 callsubr
          vlineto
          -38 -21 3 6 -4 hvcurveto
          -4 6 -2 8 9 vvcurveto
          19 6 25 12 31 vhcurveto
          38 90 rlineto
          -92 callgsubr
          83 528 132 callsubr
        </CharString>
        <CharString name="Aogonek">
          226 -198 54 144 -11 callsubr
          hstem
          489 63 vstem
          698 -132 rmoveto
          172 callsubr
          -34 -29 -11 -24 hhcurveto
          -29 -15 13 25 29 18 35 36 42 hvcurveto
          119 31 -91 callsubr
          -19 -53 -19 -32 -17 -11 rlinecurve
          -13 -8 -24 -4 -35 1 rrcurveto
          135 callsubr
          vlineto
          -38 -21 3 6 -4 hvcurveto
          -4 6 -2 8 9 vvcurveto
          19 6 25 12 31 vhcurveto
          38 90 rlineto
          241 hlineto
          68 -27 callgsubr
          104 hlineto
          -53 -40 -27 -40 -41 207 callsubr
          -448 398 -78 callgsubr
          endchar
        </CharString>
        <CharString name="Aring">
          -19 callsubr
          31 36 125 34 hstem
          293 38 119 39 vstem
          489 817 rmoveto
          53 -45 44 -53 -55 -43 -44 -53 -53 45 -45 53 53 45 45 53 vhcurveto
          236 -786 rmoveto
          -75 hlineto
          -235 677 rlineto
          -40 hlineto
          -216 -570 -20 -53 -19 -32 -17 -11 rlinecurve
          -13 -8 -24 -4 -35 1 rrcurveto
          135 callsubr
          vlineto
          -39 -21 3 6 -4 hvcurveto
          -4 6 -2 8 9 vvcurveto
          19 7 25 13 31 vhcurveto
          36 90 rlineto
          242 313 callsubr
          -275 817 rmoveto
          -37 -22 -25 -37 -36 -24 25 37 39 24 24 36 37 22 -24 -39 vhcurveto
          -200 -551 rmoveto
          113 293 100 -293 rlineto
          endchar
        </CharString>
        <CharString name="Aringacute">
          -19 callsubr
          31 36 125 34 231 -20 hstem
          490 817 rmoveto
          53 -45 44 -53 -55 -43 -44 -53 -53 45 -45 53 53 45 45 53 vhcurveto
          236 -786 rmoveto
          -75 hlineto
          -235 677 rlineto
          -40 hlineto
          -216 -570 -20 -53 -19 -32 -17 -11 rlinecurve
          -13 -8 -24 -4 -35 1 rrcurveto
          135 callsubr
          vlineto
          -39 -21 3 6 -4 hvcurveto
          -4 6 -2 8 9 vvcurveto
          19 6 25 13 31 vhcurveto
          37 90 rlineto
          242 313 callsubr
          -275 817 rmoveto
          -37 -22 -25 -37 -36 -24 25 37 39 24 24 36 37 22 -24 -39 vhcurveto
          -200 -551 rmoveto
          113 293 100 -293 rlineto
          84 843 rmoveto
          51 callgsubr
          20 -4 213 callgsubr
          11 13 vvcurveto
          endchar
        </CharString>
        <CharString name="Aringsmall">
          187 callgsubr
          358 27 80 30 hstem
          192 32 76 29 vstem
          -91 callgsubr
          30 426 85 callgsubr
        </CharString>
        <CharString name="Asmall">
          18 0 21 126 28 282 -20 hstem
          505 207 callgsubr
          -21 -11 -9 rlinecurve
          -9 -5 -16 -2 -22 2 rrcurveto
          -21 141 21 vlineto
          -25 -13 173 callsubr
          3 -1 5 6 vvcurveto
          12 4 16 9 20 vhcurveto
          23 297 callsubr
          200 hlineto
          -335 32 callsubr
          endchar
        </CharString>
        <CharString name="Atilde">
          -19 callsubr
          52 215 callsubr
          hintmask 11100100
          725 -73 callsubr
          -19 -53 -19 -32 -17 -11 rlinecurve
          -13 -8 -24 -4 -35 1 rrcurveto
          135 callsubr
          vlineto
          -38 -21 3 6 -4 hvcurveto
          -4 6 -2 8 9 vvcurveto
          19 6 25 12 31 vhcurveto
          38 90 rlineto
          -92 callgsubr
          57 576 rmoveto
          -7 -17 -63 callgsubr
          hintmask 11110000
          -43 callsubr
          hintmask 11101000
          -38 callgsubr
          hintmask 11110000
          31 callgsubr
          hintmask 11100100
          119 callgsubr
        </CharString>
        <CharString name="Atildesmall">
          187 callgsubr
          360 76 5 -20 hstemhm
          hintmask 11010000
          -91 callgsubr
          53 441 71 callgsubr
          hintmask 11100000
          -35 callsubr
          hintmask 11010000
          193 callgsubr
        </CharString>
        <CharString name="B">
          137 callsubr
          1 59 -23 47 -45 33 -36 26 -40 14 -45 1 rrcurveto
          hintmask 11111000
          89 15 68 61 89 vvcurveto
          104 -76 67 -128 vhcurveto
          -350 -31 226 callsubr
          348 hlineto
          hintmask 11110100
          157 79 58 115 1 hvcurveto
          hintmask 11111000
          -130 346 rmoveto
          -53 -17 -41 -34 -28 vhcurveto
          -21 -26 -29 -11 -33 194 callsubr
          -55 -18 -40 -36 -24 vhcurveto
          -17 -26 -32 -9 -39 hhcurveto
          -140 304 132 hlineto
          40 34 -10 -21 28 hvcurveto
          37 -28 19 -43 1 -57 rrcurveto
          endchar
        </CharString>
        <CharString name="Beta">
          137 callsubr
          53 -18 42 -36 33 vhcurveto
          -36 33 -45 18 -53 1 45 7 37 18 29 28 rrcurveto
          hintmask 11111000
          31 31 15 38 43 vvcurveto
          56 -20 43 -41 31 vhcurveto
          27 -37 -47 14 -59 hhcurveto
          -350 -31 226 callsubr
          348 hlineto
          hintmask 11110100
          158 79 58 115 hvcurveto
          hintmask 11111000
          -130 346 rmoveto
          -43 -12 -36 -24 -30 vhcurveto
          -30 -27 -34 -15 -42 194 callsubr
          -97 -50 -48 -101 vhcurveto
          -140 304 132 hlineto
          96 63 -62 -97 hvcurveto
          endchar
        </CharString>
        <CharString name="Breve">
          -189 757 64 93 -20 hstem
          311 914 -72 callgsubr
          endchar
        </CharString>
        <CharString name="Brevesmall">
          -189 529 60 90 -20 hstem
          300 679 rmoveto
          -24 hlineto
          -60 -11 -36 -30 -59 hhcurveto
          -65 -38 30 60 -11 hvcurveto
          -24 hlineto
          -2 -3 rlineto
          -88 51 -59 88 41 33 14 29 25 vhcurveto
          23 28 11 35 41 vvcurveto
          endchar
        </CharString>
        <CharString name="Bsmall">
          281 callgsubr
          97 91 149 96 -83 104 hintmask 01011010
          454 115 rmoveto
          1 39 -15 31 -31 22 -24 152 callsubr
          61 -415 -61 149 callsubr
          -21 hhcurveto
          -57 194 66 hlineto
          44 190 callgsubr
          -19 hhcurveto
          -64 201 58 hlineto
          26 263 callsubr
        </CharString>
        <CharString name="C">
          284 callsubr
          hstem
          32 116 369 30 vstem
          -79 callsubr
          endchar
        </CharString>
        <CharString name="CR">
          -124 endchar
        </CharString>
        <CharString name="Cacute">
          284 callsubr
          243 -20 hstem
          32 116 369 30 vstem
          -79 callsubr
          -116 799 rmoveto
          24 -11 12 -22 311 callgsubr
          -5 133 136 rlineto
          9 9 4 12 13 vvcurveto
          endchar
        </CharString>
        <CharString name="Caron">
          -230 679 -21 156 -20 hstem
          293 814 rmoveto
          -28 hlineto
          -117 -108 -119 108 rlineto
          -26 hlineto
          -3 -5 122 -151 rlineto
          54 hlineto
          120 151 rlineto
          endchar
        </CharString>
        <CharString name="Caronsmall">
          -189 547 -21 158 -20 hstem
          325 684 rmoveto
          -33 hlineto
          -126 -111 -126 111 rlineto
          -32 hlineto
          -2 -5 126 -153 rlineto
          67 hlineto
          127 153 rlineto
          endchar
        </CharString>
        <CharString name="Ccaron">
          87 -13 36 655 29 0 195 hstemhm
          32 116 369 30 hintmask 11011000
          599 115 rmoveto
          -35 -49 -38 -34 -42 -19 rrcurveto
          -17 -38 -48 -9 -59 hhcurveto
          -85 -73 35 70 -60 hvcurveto
          -60 71 -30 85 1 99 1 108 30 88 60 67 rrcurveto
          65 58 72 32 86 hhcurveto
          56 45 -4 -7 34 hvcurveto
          15 -3 24 -8 34 -13 rrcurveto
          -157 -30 vlineto
          -9 115 -46 53 -120 -5 rrcurveto
          -129 -6 -65 -110 -215 vvcurveto
          -95 17 -78 33 -60 vhcurveto
          34 -59 45 -31 57 -1 56 -1 48 9 40 19 33 15 35 27 39 39 rrcurveto
          hintmask 10111000
          -88 771 -66 callgsubr
        </CharString>
        <CharString name="Ccedilla">
          172 -218 36 78 36 -36 125 654 28 hstemhm
          60 117 214 73 hintmask 11011100
          464 -137 rmoveto
          44 -36 25 -45 -11 -9 -2 -3 -7 vhcurveto
          21 57 41 1 35 5 31 11 rlinecurve
          24 8 23 11 21 14 15 11 15 12 15 11 28 46 rcurveline
          -12 14 -39 -39 -35 -27 -33 -15 rlinecurve
          hintmask 10111100
          -40 -19 -47 -9 -55 2 -58 1 -46 30 -33 245 callsubr
          95 vvcurveto
          211 65 111 130 9 vhcurveto
          29 1 35 -6 39 -13 16 -5 16 -11 15 -15 rrcurveto
          15 -15 8 -13 -13 vvcurveto
          -70 269 callgsubr
          -38 14 -27 9 -17 5 rrcurveto
          9 -41 -48 4 -55 308 callsubr
          -57 hvcurveto
          -60 -67 -31 -87 290 callsubr
          -95 28 -82 55 -69 55 -69 68 -37 80 -7 -38 -90 rcurveline
          58 callgsubr
          -14 -37 -17 -19 3 7 -23 hvcurveto
          -14 -31 rlineto
          -10 35 29 -5 21 hhcurveto
          30 26 122 callsubr
          endchar
        </CharString>
        <CharString name="Ccedillasmall">
          -64 -218 35 79 35 59 24 431 20 hstem
          40 99 151 73 vstem
          279 -10 rmoveto
          69 4 40 24 45 60 -11 11 rcurveline
          -35 callgsubr
          41 -44 47 -27 56 -1 -41 -94 rcurveline
          58 callgsubr
          -15 -37 -17 -19 3 7 -22 hvcurveto
          -15 -30 rlineto
          -10 35 29 -5 21 hhcurveto
          31 26 6 11 20 hvcurveto
          27 15 13 21 28 vvcurveto
          44 -34 24 -47 -11 -9 -1 -3 -7 vhcurveto
          endchar
        </CharString>
        <CharString name="Ccircumflex">
          284 callsubr
          -29 228 hstemhm
          32 116 369 30 hintmask 11011000
          -79 callsubr
          hintmask 10111000
          -227 791 -100 callgsubr
          endchar
        </CharString>
        <CharString name="Cdotaccent">
          284 callsubr
          35 109 hstem
          32 116 145 109 115 30 vstem
          -79 callsubr
          -252 627 -3 callsubr
        </CharString>
        <CharString name="Cedilla">
          -198 -218 36 78 36 58 -20 hstem
          221 73 vstem
          294 -53 callgsubr
        </CharString>
        <CharString name="Cedillasmall">
          -198 -218 36 78 36 58 -20 hstem
          221 73 vstem
          294 -53 callgsubr
        </CharString>
        <CharString name="Chi">
          209 callgsubr
          25 36 25 36 25 37 rlinecurve
          34 49 32 36 29 25 rrcurveto
          33 39 41 17 42 hhcurveto
          31 -234 -31 vlineto
          47 24 -10 -21 -14 -24 -38 -48 -61 hvcurveto
          -26 -33 -26 -32 -27 -32 -174 241 rcurveline
          296 callsubr
          -28 -40 -28 -41 -27 -41 rlinecurve
          -39 -55 -35 -41 -32 -28 rrcurveto
          -38 -45 -45 -19 -46 hhcurveto
          -31 239 31 vlineto
          -48 -24 10 19 15 28 43 57 72 hvcurveto
          31 39 32 39 31 39 199 -276 rcurveline
          -82 -31 278 hlineto
          endchar
        </CharString>
        <CharString name="Circumflexsmall">
          -198 515 -21 162 -20 hstem
          192 656 rmoveto
          -60 hlineto
          -121 -162 rlineto
          33 hlineto
          118 100 116 -100 rlineto
          34 hlineto
          endchar
        </CharString>
        <CharString name="Commaaccentsmall">
          -156 -185 -21 85 80 hstemhm
          -47 93 vstemhm
          46 -104 rmoveto
          33 -16 30 -31 -27 -19 -16 -24 -23 17 -17 23 5 8 8 1 3 vhcurveto
          hintmask 11100000
          3 2 -4 -9 -29 -26 -30 -29 -8 hvcurveto
          -14 vlineto
          24 3 20 13 17 21 rrcurveto
          17 21 9 21 23 vvcurveto
          endchar
        </CharString>
        <CharString name="Csmall">
          246 callgsubr
          hstem
          40 99 vstem
          252 -11 rmoveto
          85 46 22 67 50 hvcurveto
          -11 11 rlineto
          -35 callgsubr
          -45 42 49 -27 58 hhcurveto
          endchar
        </CharString>
        <CharString name="D">
          233 2 29 627 27 4 -20 hstemhm
          138 89 358 106 hintmask 11011000
          691 336 rmoveto
          107 -27 84 -55 63 vhcurveto
          -54 63 -74 31 -93 1 -78 1 -63 0 -48 -1 rrcurveto
          hintmask 10111000
          -52 -1 -52 2 -51 3 rrcurveto
          hintmask 11011000
          -31 226 callsubr
          vlineto
          1 43 47 1 50 hhcurveto
          61 -1 67 -1 73 -2 81 -3 71 33 61 67 rrcurveto
          62 67 31 81 93 vvcurveto
          -106 3 rmoveto
          1 -89 -15 -70 -33 -53 -33 -57 -51 -33 -68 -10 rrcurveto
          -1 -11 -14 -1 -18 hhcurveto
          -32 -39 2 4 -45 hvcurveto
          623 vlineto
          49 6 54 1 58 -3 74 -6 53 -35 31 -63 25 -49 13 -71 1 -95 rrcurveto
          endchar
        </CharString>
        <CharString name="Dcaron">
          233 -2 33 627 27 0 221 hstemhm
          138 89 358 106 hintmask 11011000
          691 336 rmoveto
          -93 -31 -81 -62 -67 vhcurveto
          -61 -67 -71 -33 -81 3 -73 2 -67 1 -61 1 rrcurveto
          -50 -47 -1 -1 -43 hvcurveto
          31 94 627 -94 31 vlineto
          51 -3 52 -2 52 1 48 1 63 0 78 -1 93 -1 74 -31 54 -63 rrcurveto
          55 -63 27 -84 -107 vvcurveto
          -106 3 rmoveto
          -1 95 -13 71 -25 49 -31 63 -53 35 -74 6 -58 3 -54 -1 -49 -6 rrcurveto
          -623 vlineto
          -4 45 39 -2 32 hhcurveto
          18 14 1 1 11 hvcurveto
          68 10 51 33 33 57 33 53 15 70 -1 89 rrcurveto
          hintmask 10111000
          -104 567 -66 callgsubr
        </CharString>
        <CharString name="Delta">
          92 100 callsubr
        </CharString>
        <CharString name="Dieresis">
          -230 685 96 hstem
          -8 96 115 96 vstem
          251 685 -9 callgsubr
          endchar
        </CharString>
        <CharString name="Dieresissmall">
          -198 520 97 hstem
          16 97 97 97 vstem
          307 568 rmoveto
          33 -16 16 -33 -32 -16 -16 -33 -32 257 callsubr
          276 callsubr
          -194 hmoveto
          33 -16 16 -32 -33 -16 -16 15 callgsubr
        </CharString>
        <CharString name="Dmacron">
          233 -37 callgsubr
        </CharString>
        <CharString name="Dotaccent">
          -189 781 109 hstem
          112 109 vstem
          166 781 -3 callsubr
        </CharString>
        <CharString name="Dotaccentsmall">
          -189 552 106 hstem
          113 106 vstem
          166 552 rmoveto
          29 24 24 28 31 -24 23 -29 -29 -24 -23 -31 -28 25 -24 28 hvcurveto
          endchar
        </CharString>
        <CharString name="Dsmall">
          27 1 27 -7 -21 301 callgsubr
          hintmask 01110000
          116 32 rmoveto
          -7 -5 -18 -3 -29 hhcurveto
          -23 -22 hlineto
          hintmask 10110000
          195 callgsubr
          135 -74 74 192 callgsubr
          1 -108 0 -71 -34 vvcurveto
          78 215 rmoveto
          230 callsubr
          -42 -51 233 callgsubr
          hlineto
          endchar
        </CharString>
        <CharString name="E">
          177 0 32 302 34 289 32 64 callsubr
          hintmask 11111010
          -102 callgsubr
          hintmask 11111100
          -88 callsubr
          endchar
        </CharString>
        <CharString name="Eacute">
          177 0 28 callsubr
          257 -20 hstemhm
          145 300 callsubr
          -6 26 hintmask 11111101
          611 7 callgsubr
          -15 -21 vhcurveto
          -17 -13 -21 -8 -29 hhcurveto
          -122 290 hlineto
          171 -2 rlineto
          hintmask 11111110
          128 -3 45 -54 9 -113 rrcurveto
          31 hlineto
          -2 -63 callsubr
          hintmask 11111101
          -156 672 296 callgsubr
          -96 -181 21 -4 132 299 callgsubr
          14 vvcurveto
          endchar
        </CharString>
        <CharString name="Eacutesmall">
          74 callsubr
          224 -20 hstem
          107 91 135 24 -24 131 vstem
          -96 callsubr
          -91 492 16 callgsubr
          endchar
        </CharString>
        <CharString name="Ebreve">
          177 0 28 callsubr
          52 64 93 -20 64 callsubr
          hintmask 1111111010000000
          -102 callgsubr
          hintmask 1111111100000000
          -88 callsubr
          hintmask 1111111010000000
          -138 659 -72 callgsubr
          endchar
        </CharString>
        <CharString name="Ecaron">
          177 0 32 302 34 288 33 0 214 64 callsubr
          hintmask 11101110
          643 239 rmoveto
          -11 -239 rlineto
          -581 31 94 627 -94 31 565 hlineto
          2 -203 rlineto
          -31 hlineto
          -9 113 -46 54 -127 3 -171 2 rcurveline
          -290 122 vlineto
          29 21 8 17 14 hvcurveto
          15 21 8 31 41 vvcurveto
          31 -277 -31 hlineto
          81 -38 44 -49 vhcurveto
          -122 -303 hlineto
          187 3 rlineto
          19 22 5 10 26 hvcurveto
          27 10 19 11 13 13 rrcurveto
          hintmask 11011101
          39 37 22 52 3 67 rrcurveto
          -99 664 -66 callgsubr
        </CharString>
        <CharString name="Ecircumflex">
          177 0 28 callsubr
          -32 248 64 callsubr
          hintmask 11101101
          -102 callgsubr
          hintmask 11101110
          -88 callsubr
          hintmask 11011101
          -294 666 -100 callgsubr
          endchar
        </CharString>
        <CharString name="Ecircumflexacute">
          200 0 28 callsubr
          -32 243 47 -20 64 callsubr
          hintmask 1110111010000000
          -102 callgsubr
          hintmask 1110111100000000
          -88 callsubr
          hintmask 1101111010000000
          23 674 rmoveto
          -85 callgsubr
          -308 -13 -100 callgsubr
          endchar
        </CharString>
        <CharString name="Ecircumflexdotbelow">
          178 -239 106 133 28 callsubr
          -32 247 253 callsubr
          70 108 31 67 callgsubr
          hintmask 1111011101000000
          -102 callgsubr
          hintmask 1111011110000000
          -88 callsubr
          hintmask 1110111101000000
          -231 -424 -87 callsubr
          -38 1089 -100 callgsubr
          endchar
        </CharString>
        <CharString name="Ecircumflexgrave">
          178 0 28 callsubr
          -32 247 -164 200 64 callsubr
          hintmask 1110111010000000
          -102 callgsubr
          hintmask 1110111100000000
          -88 callsubr
          hintmask 1110111010000000
          -188 680 30 callsubr
          hintmask 1101011010000000
          -215 167 rmoveto
          -61 hlineto
          hintmask 1110111010000000
          118 callgsubr
        </CharString>
        <CharString name="Ecircumflexhookabove">
          178 0 28 callsubr
          -32 246 -160 194 253 callsubr
          209 31 -19 219 callsubr
          -11 30 -6 26 hintmask 1110111010100000
          -102 callgsubr
          hintmask 1110111001000000
          -88 callsubr
          hintmask 1110110100100000
          -112 508 79 callsubr
          -102 callsubr
          hintmask 1110111010100000
          -96 callgsubr
          hintmask 1101011010100000
          -177 156 -100 callgsubr
          endchar
        </CharString>
        <CharString name="Ecircumflexsmall">
          74 callsubr
          205 -20 hstem
          107 91 135 24 -24 131 vstem
          -96 callsubr
          -176 501 -41 callgsubr
          endchar
        </CharString>
        <CharString name="Ecircumflextilde">
          178 0 28 callsubr
          -32 248 31 60 -21 55 10 -20 64 callsubr
          hintmask 1110101110100000
          -102 callgsubr
          hintmask 1110101111000000
          -88 callsubr
          hintmask 1110101110100000
          -160 801 -18 callgsubr
          hintmask 1110010111000000
          -75 callsubr
          hintmask 1101101111000000
          -16 callsubr
          -134 -135 -100 callgsubr
          endchar
        </CharString>
        <CharString name="Edieresis">
          177 0 28 callsubr
          48 98 253 callsubr
          -31 98 98 97 -53 67 callgsubr
          hintmask 1111100101000000
          -102 callgsubr
          hintmask 1111101010000000
          -88 callsubr
          hintmask 1111011001000000
          -147 547 rmoveto
          33 -16 16 -33 -32 -16 -16 -33 -33 257 callsubr
          229 callsubr
          -195 hmoveto
          116 callgsubr
          -16 -16 -33 -33 16 -16 33 33 229 callsubr
          endchar
        </CharString>
        <CharString name="Edieresissmall">
          74 callsubr
          77 98 hstemhm
          107 91 99 97 -61 24 hintmask 11111010
          -96 callsubr
          hintmask 11111100
          -75 421 rmoveto
          33 -16 17 -33 -32 -16 -17 -33 -32 257 callsubr
          276 callsubr
          -194 hmoveto
          33 -16 17 -32 31 callsubr
          vhcurveto
          endchar
        </CharString>
        <CharString name="Edotaccent">
          177 0 28 callsubr
          59 109 253 callsubr
          73 109 27 67 callgsubr
          hintmask 1111111010000000
          -102 callgsubr
          hintmask 1111111100000000
          -88 callsubr
          hintmask 1111111010000000
          -282 509 -3 callsubr
        </CharString>
        <CharString name="Edotbelow">
          178 -236 106 130 294 callgsubr
          69 108 32 67 callgsubr
          hintmask 1111111010000000
          -102 callgsubr
          hintmask 1111111100000000
          -88 callsubr
          hintmask 1111111010000000
          -232 -421 -87 callsubr
          endchar
        </CharString>
        <CharString name="Egrave">
          177 0 28 callsubr
          219 -20 64 callsubr
          hintmask 11111101
          -102 callgsubr
          hintmask 11111110
          -88 callsubr
          hintmask 11111101
          -399 638 rmoveto
          -60 callsubr
        </CharString>
        <CharString name="Egravesmall">
          74 callsubr
          -27 222 hstemhm
          107 91 135 24 -24 131 hintmask 11101100
          -96 callsubr
          -326 465 rmoveto
          hintmask 11011010
          -19 callgsubr
        </CharString>
        <CharString name="Ehookabove">
          178 0 28 callsubr
          243 -20 253 callsubr
          41 219 callsubr
          25 67 callgsubr
          hintmask 1111110101000000
          -102 callgsubr
          hintmask 1111110110000000
          -88 callsubr
          hintmask 1111110101000000
          -292 503 79 callsubr
          -102 callsubr
          hintmask 1111101110000000
          -96 callgsubr
          endchar
        </CharString>
        <CharString name="Emacron">
          177 0 28 callsubr
          49 50 64 callsubr
          hintmask 11111101
          -102 callgsubr
          hintmask 11111110
          -88 callsubr
          hintmask 11111101
          -142 549 132 callsubr
        </CharString>
        <CharString name="Eng">
          212 -251 -21 272 31 627 31 hstem
          136 34 411 34 vstem
          -76 callsubr
          402 -633 3 -13 1 -30 -1 -49 rlinecurve
          -1 -48 -2 -28 -2 -7 -7 -21 -12 -11 -15 -2 -21 -3 -25 8 -27 20 rrcurveto
          -16 -7 -8 -14 -19 vvcurveto
          -25 13 -16 25 -5 vhcurveto
          -3 15 12 -1 10 hhcurveto
          42 31 23 46 19 hvcurveto
          10 23 4 62 -3 102 -3 587 rcurveline
          34 9 26 17 17 vhcurveto
          7 7 22 3 39 hhcurveto
          endchar
        </CharString>
        <CharString name="Engalt">
          106 -277 34 243 26 624 60 hstem
          96 82 324 82 vstem
          584 537 rmoveto
          103 -46 45 -112 20 vhcurveto
          3 -23 -21 2 -19 hhcurveto
          -45 -35 -10 -21 -26 hvcurveto
          -77 -58 rlineto
          -2 82 hlineto
          -9 5 -47 -22 -50 -14 -55 -5 rlinecurve
          -29 vlineto
          29 3 26 4 24 5 rrcurveto
          -550 vlineto
          -17 -2 -24 -4 -33 vhcurveto
          -76 -26 245 26 -77 hlineto
          -3 33 -1 24 17 vvcurveto
          456 vlineto
          19 20 20 41 22 vhcurveto
          22 41 40 11 41 hhcurveto
          10 9 -1 -1 9 hvcurveto
          30 -5 25 -11 20 -19 rrcurveto
          25 -23 13 -29 -37 vvcurveto
          1 -531 rlineto
          -97 -9 -65 -17 -32 vhcurveto
          -28 -15 -18 -14 -21 hhcurveto
          -12 -11 1 3 -10 hvcurveto
          12 -38 rlineto
          48 43 24 49 39 hvcurveto
          35 44 18 62 80 vvcurveto
          endchar
        </CharString>
        <CharString name="Eogonek">
          177 -198 54 144 294 callgsubr
          17 61 131 67 callgsubr
          hintmask 1111111010000000
          357 -144 rmoveto
          318 callgsubr
          265 hlineto
          11 239 rlineto
          -32 hlineto
          -3 -67 -22 -52 -39 -37 -13 -13 -19 -11 -27 -10 rrcurveto
          -10 -26 -22 -5 -19 hhcurveto
          -187 -3 rlineto
          303 122 vlineto
          49 38 -44 -81 hvcurveto
          31 277 -31 hlineto
          -41 -8 -31 -15 -21 vhcurveto
          -17 -14 -21 -48 callgsubr
          rlineto
          hintmask 1111111100000000
          127 -3 46 -54 9 -113 rrcurveto
          31 hlineto
          -2 203 rlineto
          -565 -31 226 callsubr
          277 hlineto
          -51 -42 -26 -41 -39 vvcurveto
          -18 6 -17 11 -15 vhcurveto
          -17 13 19 -9 25 hhcurveto
          23 25 7 14 27 hvcurveto
          25 192 callsubr
        </CharString>
        <CharString name="Epsilon">
          171 188 callsubr
          290 31 hstem
          140 124 callgsubr
          vstem
          606 179 callsubr
          -71 -20 -52 -39 -33 -31 -27 -47 -16 -62 -6 -9 -1 -58 -1 -109 -1 rrcurveto
          303 123 vlineto
          31 23 -14 -28 15 hvcurveto
          12 -23 6 -27 -33 vvcurveto
          31 277 -31 hlineto
          -79 -29 -39 -58 vhcurveto
          -123 290 hlineto
          16 -1 22 0 28 1 rrcurveto
          1 31 21 0 12 hhcurveto
          69 50 -10 -19 33 hvcurveto
          42 -25 24 -48 7 -71 rrcurveto
          29 hlineto
          -1 -63 callsubr
          endchar
        </CharString>
        <CharString name="Epsilontonos">
          243 188 callsubr
          290 31 21 -20 hstemhm
          47 83 94 88 0 210 31 137 hintmask 11111011
          690 179 callsubr
          -71 -20 -52 -39 -33 -31 -27 -47 -16 -62 -6 -9 -1 -58 -1 -109 -1 rrcurveto
          303 123 vlineto
          31 23 -14 -28 15 hvcurveto
          12 -23 6 -27 -33 vvcurveto
          31 277 -31 hlineto
          -79 -29 -39 -58 vhcurveto
          -123 290 hlineto
          16 -1 22 0 28 1 rrcurveto
          1 31 21 0 12 hhcurveto
          69 50 -10 -19 33 hvcurveto
          42 -25 24 -48 7 -71 rrcurveto
          29 hlineto
          -1 203 rlineto
          -565 -31 hlineto
          hintmask 11111101
          -68 callsubr
          -675 435 rmoveto
          24 -11 12 -22 311 callgsubr
          -5 133 136 rlineto
          9 9 4 12 13 vvcurveto
          endchar
        </CharString>
        <CharString name="Esmall">
          314 callgsubr
          97 91 136 24 -24 132 vstem
          434 159 219 callgsubr
          -34 -26 -25 rrcurveto
          -16 -20 -39 -16 -24 hhcurveto
          -121 -2 rlineto
          195 78 vlineto
          36 22 -29 -52 hvcurveto
          24 184 -24 hlineto
          -27 -5 -20 -11 -14 vhcurveto
          -11 -8 -14 -5 -20 hhcurveto
          -78 187 hlineto
          106 -2 83 -1 31 -36 7 -71 rlinecurve
          27 hlineto
          -1 135 rlineto
          -406 286 callgsubr
          416 hlineto
          10 159 rlineto
          endchar
        </CharString>
        <CharString name="Eta">
          237 265 callsubr
          hstem
          138 89 307 91 vstem
          718 31 76 callsubr
          -278 -31 94 -278 -307 278 93 31 -276 -31 94 -627 38 callgsubr
          314 307 -314 -94 -31 278 hlineto
          endchar
        </CharString>
        <CharString name="Etatonos">
          286 -3 152 callgsubr
          278 31 21 -20 hstem
          47 47 94 89 93 120 94 91 vstem
          768 28 76 callsubr
          -278 -31 94 -278 -307 278 93 31 -276 -31 94 -627 38 callgsubr
          314 307 -314 -94 -31 278 hlineto
          -721 674 rmoveto
          24 -11 12 -22 311 callgsubr
          -5 133 136 rlineto
          9 9 4 12 13 vvcurveto
          endchar
        </CharString>
        <CharString name="Eth">
          188 -37 callgsubr
        </CharString>
        <CharString name="Ethsmall">
          28 1 28 -8 -21 222 26 hstemhm
          119 81 223 95 hintmask 01111000
          35 248 rmoveto
          -26 85 vlineto
          -1 -189 rlineto
          -7 -5 -18 -3 -31 hhcurveto
          -24 -23 hlineto
          hintmask 10111000
          1 19 76 0 135 hhcurveto
          68 57 19 38 45 hvcurveto
          51 43 26 61 77 vvcurveto
          143 -77 80 -154 15 vhcurveto
          -110 3 -82 1 -54 -2 rrcurveto
          -20 24 vlineto
          31 18 -3 -7 5 hvcurveto
          1 -116 0 -67 -18 vvcurveto
          177 hmoveto
          -97 203 hlineto
          23 1 24 -1 24 -4 57 -8 41 -23 23 -39 rrcurveto
          21 -34 10 -45 -57 vvcurveto
          -77 -14 -56 -27 -34 vhcurveto
          -30 -26 -45 -15 -64 hhcurveto
          -47 193 97 hlineto
          endchar
        </CharString>
        <CharString name="Etilde">
          178 0 28 callsubr
          56 60 -21 55 10 -20 64 callsubr
          hintmask 1111011101000000
          -102 callgsubr
          hintmask 1111011110000000
          -88 callsubr
          hintmask 1111011101000000
          -131 610 -18 callgsubr
          hintmask 1110101110000000
          -75 callsubr
          hintmask 1111011110000000
          -16 callsubr
          endchar
        </CharString>
        <CharString name="Euro">
          223 0 54 188 53 54 54 188 54 hstem
          145 242 rmoveto
          13 -57 28 -50 42 -43 rrcurveto
          -61 61 77 -31 92 hhcurveto
          83 70 24 49 56 hvcurveto
          79 vlineto
          -65 -58 -70 -33 -81 hhcurveto
          -75 -64 26 51 -52 hvcurveto
          -32 32 -23 38 -12 41 rrcurveto
          360 hlineto
          23 53 rlineto
          -393 hlineto
          -1 8 0 10 9 vvcurveto
          8 0 11 1 8 vhcurveto
          416 hlineto
          22 54 rlineto
          -427 hlineto
          12 40 22 38 32 32 rrcurveto
          52 52 64 26 75 hhcurveto
          80 70 -32 -64 59 hvcurveto
          23 54 rlineto
          64 -63 -78 32 -91 hhcurveto
          -92 -77 -31 -62 -61 hvcurveto
          -42 -42 -28 -51 -13 -56 rrcurveto
          -73 hlineto
          -23 -54 rlineto
          88 hlineto
          -1 -8 0 -10 -9 vvcurveto
          -9 0 -10 1 -8 vhcurveto
          -65 hlineto
          -23 -53 rlineto
          endchar
        </CharString>
        <CharString name="Ezh">
          -27 -13 30 348 55 183 86 hstem
          40 27 303 107 vstem
          40 689 rmoveto
          -162 27 vlineto
          51 3 20 25 37 hhcurveto
          221 1 -176 -215 20 -34 rlineto
          7 19 16 3 14 hhcurveto
          45 46 -33 -45 21 hvcurveto
          11 -25 6 -27 -31 vvcurveto
          -55 -18 -45 -36 -35 vhcurveto
          -35 -35 -46 -17 -56 hhcurveto
          -19 -22 10 21 -24 hvcurveto
          -27 21 -14 20 -2 19 -8 66 rcurveline
          -32 hlineto
          1 -61 -2 -50 -6 -39 49 -22 48 -12 48 -3 85 -3 70 18 57 38 rrcurveto
          64 43 32 61 79 vvcurveto
          57 -17 47 -33 37 vhcurveto
          37 -33 -47 19 -63 hhcurveto
          -13 -14 -1 -2 -13 hvcurveto
          221 272 rlineto
          endchar
        </CharString>
        <CharString name="F">
          125 188 callsubr
          289 32 hstem
          138 300 callsubr
          vstem
          609 689 rmoveto
          -565 -31 94 -627 38 callgsubr
          303 122 hlineto
          126 callsubr
          128 -3 45 -54 9 -113 rlinecurve
          31 hlineto
          endchar
        </CharString>
        <CharString name="Fsmall">
          -43 0 21 198 26 187 25 hstem
          96 91 135 25 vstem
          441 457 rmoveto
          -407 -20 62 -416 -62 -21 215 21 -62 198 77 hlineto
          36 22 -26 -55 hvcurveto
          25 185 -25 hlineto
          -55 -18 -23 -40 vhcurveto
          -77 188 hlineto
          107 -2 42 -1 30 -9 18 -18 rlinecurve
          11 -11 8 -14 4 -16 3 -9 3 -13 2 -17 rrcurveto
          27 hlineto
          endchar
        </CharString>
        <CharString name="G">
          159 callgsubr
          hstemhm
          55 115 369 30 -30 74 hintmask 11111000
          -89 callgsubr
          hintmask 11110100
          106 callgsubr
          endchar
        </CharString>
        <CharString name="Gamma">
          114 163 callgsubr
          146 93 vstem
          613 689 rmoveto
          -561 -31 226 callsubr
          281 31 -94 627 hlineto
          15 -1 21 0 27 1 rrcurveto
          1 30 21 0 11 hhcurveto
          68 50 -10 -19 31 hvcurveto
          43 -25 24 -48 6 -71 rrcurveto
          30 hlineto
          endchar
        </CharString>
        <CharString name="Gbreve">
          159 callgsubr
          39 64 93 -20 hstemhm
          55 115 369 30 -30 74 hintmask 11111110
          -89 callgsubr
          hintmask 11111101
          106 callgsubr
          -127 661 -72 callgsubr
          endchar
        </CharString>
        <CharString name="Gcircumflex">
          159 callgsubr
          0 37 178 -20 hstemhm
          55 115 369 30 -30 74 hintmask 11101110
          -89 callgsubr
          hintmask 11011101
          106 callgsubr
          -253 680 136 callgsubr
        </CharString>
        <CharString name="Gcommaaccent">
          174 -253 320 callgsubr
          44 36 217 32 402 31 hstemhm
          55 115 184 129 -44 44 56 30 -30 74 hintmask 1111111010000000
          -89 callgsubr
          hintmask 1111111001000000
          106 callgsubr
          -289 -513 -14 callsubr
          hintmask 1111110110000000
          17 callgsubr
          endchar
        </CharString>
        <CharString name="Gdotaccent">
          159 callgsubr
          34 109 hstemhm
          55 115 154 109 106 30 -30 74 hintmask 11111110
          -89 callgsubr
          hintmask 11111101
          106 callgsubr
          -269 499 -3 callsubr
        </CharString>
        <CharString name="Grave">
          -230 679 -21 151 -20 hstem
          241 674 rmoveto
          -35 41 -20 25 -6 7 -41 51 rcurveline
          -80 11 -4 -3 -5 -13 89 -67 86 -67 6 -1 11 10 rlineto
          endchar
        </CharString>
        <CharString name="Gravesmall">
          -198 511 -21 166 -20 hstem
          113 624 rmoveto
          21 -21 -17 11 -13 hhcurveto
          -21 -11 -12 -23 -13 13 -15 25 -16 hvcurveto
          141 -87 rlineto
          37 hlineto
          endchar
        </CharString>
        <CharString name="Gsmall">
          -12 -11 200 callgsubr
          hstem
          44 100 214 88 vstem
          262 444 -71 callgsubr
        </CharString>
        <CharString name="H">
          237 265 callsubr
          hstem
          138 89 307 91 vstem
          718 31 76 callsubr
          -278 -31 94 -278 -307 278 93 31 -276 -31 94 -627 38 callgsubr
          314 307 -314 -94 -31 278 hlineto
          endchar
        </CharString>
        <CharString name="H18533">
          -128 68 -21 282 -20 hstem
          193 329 rmoveto
          -39 -33 -14 -27 -28 hvcurveto
          -28 -27 -14 -34 -39 vvcurveto
          -39 14 -34 27 -27 vhcurveto
          -27 27 34 -14 40 hhcurveto
          39 34 14 27 27 hvcurveto
          27 27 14 34 39 vvcurveto
          39 -14 33 -27 27 vhcurveto
          28 -27 -34 14 -39 hhcurveto
          endchar
        </CharString>
        <CharString name="H18543">
          -198 91 186 hstem
          65 186 vstem
          65 277 rmoveto
          -186 186 186 vlineto
          endchar
        </CharString>
        <CharString name="H18551">
          -198 93 31 125 30 hstem
          67 31 124 31 vstem
          67 279 rmoveto
          -186 186 186 vlineto
          -31 -155 rmoveto
          -124 125 124 hlineto
          endchar
        </CharString>
        <CharString name="H22073">
          -80 -5 31 318 30 hstem
          28 31 318 30 vstem
          28 -5 rmoveto
          379 379 -379 hlineto
          349 -30 rmoveto
          -318 -318 318 vlineto
          endchar
        </CharString>
        <CharString name="Hbar">
          237 189 callgsubr
          112 38 128 31 hstem
          138 89 307 91 vstem
          534 492 rmoveto
          -112 -307 112 vlineto
          491 -461 rmoveto
          -93 461 91 38 -91 128 93 31 -278 -31 94 -128 -307 128 93 31 -276 -31 94 -128 -90 -38 90 -461 38 callgsubr
          314 307 -314 -94 -31 278 hlineto
          endchar
        </CharString>
        <CharString name="Hcircumflex">
          237 265 callsubr
          213 -20 hstem
          138 89 307 91 vstem
          718 31 76 callsubr
          -278 -31 94 -278 -307 278 93 31 -276 -31 94 -627 38 callgsubr
          314 307 -314 -94 -31 278 hlineto
          -310 902 -100 callgsubr
          endchar
        </CharString>
        <CharString name="Hsmall">
          26 0 21 209 23 183 21 hstem
          95 92 170 90 vstem
          509 21 rmoveto
          -62 415 211 callsubr
          -415 -59 -21 211 21 -60 209 170 -209 -62 319 callsubr
        </CharString>
        <CharString name="Hungarumlaut">
          149 761 -21 hstem
          188 807 258 callsubr
          -16 7 -14 0 -11 183 callsubr
          366 67 258 callsubr
          -15 7 -14 0 -12 183 callsubr
          endchar
        </CharString>
        <CharString name="Hungarumlautsmall">
          -98 528 -21 hstem
          196 575 139 callsubr
          366 68 139 callsubr
          endchar
        </CharString>
        <CharString name="I">
          107 callsubr
          hstem
          143 99 vstem
          335 31 76 callsubr
          -286 -31 226 callsubr
          286 hlineto
          endchar
        </CharString>
        <CharString name="IJ">
          104 -192 223 -31 31 627 31 hstemhm
          143 99 183 98 hintmask 10111000
          425 658 rmoveto
          -673 vlineto
          -6 callgsubr
          31 -569 -31 94 -627 -94 vlineto
          hintmask 01111000
          -31 286 31 -93 627 vlineto
          endchar
        </CharString>
        <CharString name="Iacute">
          107 callsubr
          258 -20 hstem
          143 99 vstem
          335 31 76 callsubr
          -286 -31 226 callsubr
          286 hlineto
          16 911 rmoveto
          24 -11 12 -22 311 callgsubr
          -5 133 136 rlineto
          9 9 4 12 13 vvcurveto
          endchar
        </CharString>
        <CharString name="Iacutesmall">
          108 callsubr
          -21 250 hstemhm
          91 91 hintmask 11010000
          243 -33 callgsubr
          32 655 rmoveto
          hintmask 10110000
          -83 callsubr
          endchar
        </CharString>
        <CharString name="Ibreve">
          -127 71 callsubr
          54 64 93 -20 hstem
          157 99 vstem
          349 31 76 callsubr
          -286 -31 226 callsubr
          286 hlineto
          -7 900 -72 callgsubr
          endchar
        </CharString>
        <CharString name="Icircumflex">
          107 callsubr
          222 -20 hstem
          143 99 vstem
          335 31 76 callsubr
          -286 -31 226 callsubr
          286 hlineto
          -115 911 -100 callgsubr
          endchar
        </CharString>
        <CharString name="Icircumflexsmall">
          108 callsubr
          206 -20 hstem
          91 91 vstem
          243 -33 callgsubr
          -87 660 -41 callgsubr
          endchar
        </CharString>
        <CharString name="Idieresis">
          107 callsubr
          48 98 hstemhm
          40 98 5 99 -6 99 hintmask 11110100
          335 31 rmoveto
          hintmask 11111000
          -93 627 hlineto
          hintmask 11110100
          93 31 -286 -31 hlineto
          hintmask 11111000
          226 callsubr
          hlineto
          hintmask 11110100
          286 hlineto
          -2 786 rmoveto
          33 -16 16 -33 -32 -16 -16 -33 -33 257 callsubr
          229 callsubr
          -195 hmoveto
          116 callgsubr
          -16 -16 -33 -33 16 -16 33 33 229 callsubr
          endchar
        </CharString>
        <CharString name="Idieresissmall">
          108 callsubr
          77 98 hstemhm
          -6 97 0 91 6 97 hintmask 11101100
          243 -33 callgsubr
          42 579 rmoveto
          33 -16 17 -33 -32 -16 -17 -33 -32 257 callsubr
          276 callsubr
          -194 hmoveto
          33 -16 17 -32 vhcurveto
          hintmask 11110100
          31 callsubr
          hvcurveto
          endchar
        </CharString>
        <CharString name="Idotaccent">
          107 callsubr
          53 109 hstem
          143 99 vstem
          335 31 76 callsubr
          -286 -31 226 callsubr
          286 hlineto
          -144 742 -3 callsubr
        </CharString>
        <CharString name="Idotbelow">
          -141 -236 106 130 31 627 31 hstem
          143 99 vstem
          335 31 76 callsubr
          -286 -31 226 callsubr
          286 hlineto
          -93 -182 -87 callsubr
          endchar
        </CharString>
        <CharString name="Igrave">
          107 callsubr
          -31 246 hstemhm
          143 99 hintmask 11010000
          335 31 76 callsubr
          -286 -31 226 callsubr
          286 hlineto
          -250 873 rmoveto
          hintmask 10110000
          -60 callsubr
        </CharString>
        <CharString name="Igravesmall">
          108 callsubr
          195 -20 hstem
          91 91 vstem
          243 -33 callgsubr
          -220 623 rmoveto
          -19 callgsubr
        </CharString>
        <CharString name="Ihookabove">
          107 callsubr
          243 -20 hstemhm
          113 143 -113 99 -27 41 hintmask 11101000
          335 31 76 callsubr
          -286 -31 226 callsubr
          286 hlineto
          -146 742 79 callsubr
          hintmask 11110000
          -102 callsubr
          hintmask 11100100
          -96 callgsubr
          endchar
        </CharString>
        <CharString name="Imacron">
          -123 71 callsubr
          56 50 hstem
          152 99 vstem
          344 31 76 callsubr
          -286 -31 226 callsubr
          286 hlineto
          14 795 132 callsubr
        </CharString>
        <CharString name="Iogonek">
          -141 -198 54 144 31 627 31 hstemhm
          104 61 -22 99 hintmask 11110000
          210 -144 rmoveto
          -30 -15 13 25 29 18 36 36 41 hvcurveto
          116 31 hlineto
          hintmask 11101000
          -38 callsubr
          -286 -31 226 callsubr
          133 hlineto
          hintmask 11110000
          -52 -40 -26 -40 -41 vvcurveto
          -36 23 -41 51 23 25 7 14 26 vhcurveto
          26 192 callsubr
        </CharString>
        <CharString name="Iota">
          107 callsubr
          hstem
          143 99 vstem
          335 31 76 callsubr
          -286 -31 226 callsubr
          286 hlineto
          endchar
        </CharString>
        <CharString name="Iotadieresis">
          107 callsubr
          49 98 hstemhm
          46 98 -1 99 0 93 hintmask 11110100
          335 31 76 callsubr
          -286 -31 hlineto
          hintmask 11101000
          226 callsubr
          hlineto
          hintmask 11110100
          286 hlineto
          4 787 rmoveto
          33 -16 16 -33 -32 -16 -16 -33 -33 257 callsubr
          229 callsubr
          -195 hmoveto
          116 callgsubr
          -16 -16 -33 -33 16 -16 33 33 229 callsubr
          endchar
        </CharString>
        <CharString name="Iotatonos">
          -90 71 callsubr
          19 -20 hstemhm
          47 55 94 99 hintmask 11011000
          388 31 76 callsubr
          -286 -31 226 callsubr
          286 hlineto
          -341 672 rmoveto
          hintmask 10111000
          24 -11 12 -22 311 callgsubr
          -5 133 136 rlineto
          9 9 4 12 13 vvcurveto
          endchar
        </CharString>
        <CharString name="Ismall">
          -228 186 callgsubr
          101 91 vstem
          253 302 callgsubr
          -213 -21 61 -415 -61 -21 213 hlineto
          endchar
        </CharString>
        <CharString name="Itilde">
          -88 71 callsubr
          59 61 -13 61 hstemhm
          166 99 hintmask 11011000
          358 31 76 callsubr
          -286 -31 226 callsubr
          286 hlineto
          27 857 rmoveto
          -22 hlineto
          hintmask 11101000
          127 callsubr
          hintmask 11011000
          57 callgsubr
          hintmask 11101000
          3 -3 rlineto
          22 hlineto
          hintmask 11011000
          128 callsubr
          hintmask 11101000
          46 callgsubr
        </CharString>
        <CharString name="J">
          -205 658 31 hstem
          116 98 vstem
          309 689 rmoveto
          -287 -31 94 -673 hlineto
          -6 callgsubr
          vlineto
          endchar
        </CharString>
        <CharString name="Jcircumflex">
          -204 658 31 220 -20 hstem
          116 98 vstem
          309 689 rmoveto
          -287 -31 94 -673 hlineto
          -6 callgsubr
          vlineto
          -116 251 -100 callgsubr
          endchar
        </CharString>
        <CharString name="Jsmall">
          -240 433 20 hstem
          103 91 vstem
          194 433 40 callgsubr
        </CharString>
        <CharString name="K">
          254 163 callgsubr
          124 93 vstem
          -8 callgsubr
          endchar
        </CharString>
        <CharString name="Kappa">
          252 163 callgsubr
          138 92 94 195 vstem
          760 31 rmoveto
          -42 -25 1 2 -7 hvcurveto
          -13 5 -16 17 -17 31 -211 366 rcurveline
          108 126 51 53 44 27 37 -1 rlinecurve
          28 31 -250 -31 hlineto
          48 3 24 -12 -25 vvcurveto
          -18 -43 -56 -87 -95 vhcurveto
          -53 -55 -53 -56 -53 -56 rrcurveto
          370 94 31 -280 -31 226 callsubr
          279 31 -94 199 vlineto
          129 147 33 -54 32 -54 33 -54 rlinecurve
          54 -91 27 -52 -14 vvcurveto
          -13 -9 -9 -18 -3 vhcurveto
          -1 -7 -14 -1 -23 hhcurveto
          -31 294 vlineto
          endchar
        </CharString>
        <CharString name="Kcommaaccent">
          252 -253 320 callgsubr
          58 31 627 31 hstemhm
          124 93 91 129 -44 44 hintmask 11111100
          -8 callgsubr
          -435 -274 -14 callsubr
          hintmask 11111010
          17 callgsubr
          endchar
        </CharString>
        <CharString name="Ksmall">
          37 186 callgsubr
          103 92 vstem
          546 -7 callsubr
        </CharString>
        <CharString name="L">
          124 0 32 626 31 hstem
          138 89 343 25 vstem
          570 239 rmoveto
          -3 -67 -22 -52 -39 -37 169 callgsubr
          -153 -3 rlineto
          627 94 31 -277 -31 226 callsubr
          545 vlineto
          13 239 rlineto
          endchar
        </CharString>
        <CharString name="Lacute">
          124 0 32 626 31 259 -20 hstem
          138 89 343 25 vstem
          570 239 rmoveto
          -3 -67 -22 -52 -39 -37 169 callgsubr
          -153 -3 rlineto
          627 94 31 -277 -31 226 callsubr
          545 vlineto
          13 239 rlineto
          -263 673 rmoveto
          24 -11 12 -22 311 callgsubr
          -5 133 136 rlineto
          9 9 4 12 13 vvcurveto
          endchar
        </CharString>
        <CharString name="Lambda">
          219 -1 31 677 -20 hstem
          720 30 rmoveto
          -75 hlineto
          -235 677 rlineto
          -40 hlineto
          -216 -570 -15 -41 -13 -26 -10 -11 rlinecurve
          -17 -21 -24 -9 -33 1 rrcurveto
          -16 135 callsubr
          hlineto
          -20 -21 3 7 -23 hvcurveto
          -4 23 rlineto
          41 26 84 52 127 vhcurveto
          35 81 34 81 35 80 182 -527 rcurveline
          -79 -31 259 hlineto
          endchar
        </CharString>
        <CharString name="Lcaron">
          124 0 32 565 114 -53 31 hstemhm
          138 89 277 146 -80 25 13 42 hintmask 10110110
          570 239 rmoveto
          -3 -67 -22 -52 -39 -37 169 callgsubr
          -153 -3 rlineto
          627 94 31 -277 -31 226 callsubr
          545 vlineto
          13 239 rlineto
          hintmask 11011000
          48 369 130 callgsubr
          -44 callgsubr
        </CharString>
        <CharString name="Lcommaaccent">
          124 -239 320 callgsubr
          44 32 626 31 hstemhm
          138 89 30 129 -44 44 184 25 hintmask 11111101
          570 239 rmoveto
          -3 -67 -22 -52 -39 -37 169 callgsubr
          -153 -3 rlineto
          627 94 31 -277 -31 226 callsubr
          545 vlineto
          13 239 rlineto
          -341 -499 -14 callsubr
          hintmask 11111011
          17 callgsubr
          endchar
        </CharString>
        <CharString name="Ldot">
          124 0 32 318 109 199 31 hstem
          138 89 149 109 85 25 vstem
          570 239 rmoveto
          -3 -67 -22 -52 -39 -37 169 callgsubr
          -153 -3 rlineto
          627 94 31 -277 -31 226 callsubr
          545 vlineto
          13 239 rlineto
          -172 111 -3 callsubr
        </CharString>
        <CharString name="Lslash">
          157 0 32 626 31 hstem
          169 89 343 25 vstem
          601 90 callsubr
          -14 -13 -20 -11 -26 -10 rrcurveto
          -10 -26 -22 -5 -19 hhcurveto
          -152 -3 rlineto
          316 vlineto
          155 93 -20 29 -135 -83 rlineto
          272 94 31 -277 -31 94 -326 vlineto
          -125 -75 18 -29 107 65 rlineto
          -262 -94 -31 545 vlineto
          13 239 rlineto
          endchar
        </CharString>
        <CharString name="Lslashsmall">
          -52 0 25 408 20 hstem
          87 90 vstem
          328 310 rmoveto
          -151 -71 rlineto
          194 63 20 -214 -20 61 -236 vlineto
          -58 -28 10 -22 48 23 rlineto
          -149 -61 -21 414 vlineto
          7 158 rlineto
          -25 hlineto
          -2 -42 -14 -33 -25 -25 rrcurveto
          -21 -23 -29 144 callsubr
          189 vlineto
          161 75 rlineto
          endchar
        </CharString>
        <CharString name="Lsmall">
          -42 0 25 412 20 hstem
          98 91 vstem
          436 159 126 callgsubr
          -26 -25 rrcurveto
          -22 -23 -29 -11 -33 hhcurveto
          -120 -2 rlineto
          413 63 20 -216 -20 62 -416 -62 -21 418 vlineto
          7 159 rlineto
          endchar
        </CharString>
        <CharString name="M">
          390 163 callgsubr
          152 33 478 92 vstem
          848 31 76 callsubr
          -191 hlineto
          -210 -520 -184 520 rlineto
          -197 -31 56 hlineto
          18 10 -8 -15 2 hvcurveto
          -518 vlineto
          -35 -9 -26 -19 -16 vhcurveto
          -6 -7 -22 -3 -37 hhcurveto
          -31 220 31 vlineto
          -39 -22 3 7 -7 hvcurveto
          -17 17 -8 25 34 vvcurveto
          500 vlineto
          221 -607 15 1 242 609 rlineto
          -589 -93 -31 278 vlineto
          endchar
        </CharString>
        <CharString name="Macron">
          -189 811 50 hstem
          324 861 132 callsubr
        </CharString>
        <CharString name="Macronsmall">
          -189 572 44 hstem
          315 616 rmoveto
          -298 -44 298 hlineto
          endchar
        </CharString>
        <CharString name="Msmall">
          94 186 callgsubr
          90 24 317 91 vstem
          583 302 callgsubr
          -159 hlineto
          -125 -310 -107 310 rlineto
          -159 -21 37 hlineto
          12 7 317 callsubr
          -13 -11 vhcurveto
          -3 -3 -15 -2 -26 hhcurveto
          -21 148 21 vlineto
          -26 -15 2 4 -4 hvcurveto
          -11 11 -5 17 24 vvcurveto
          330 vlineto
          146 -402 10 1 161 403 rlineto
          -390 -62 -21 214 vlineto
          endchar
        </CharString>
        <CharString name="Mu">
          390 163 callgsubr
          152 33 478 92 vstem
          848 31 76 callsubr
          -191 hlineto
          -210 -520 -184 520 rlineto
          -197 221 callgsubr
          -61 -18 -25 -59 vhcurveto
          -17 -31 220 31 hlineto
          -19 -23 3 7 -26 hvcurveto
          -17 17 -8 25 34 vvcurveto
          500 vlineto
          221 -607 15 1 242 609 rlineto
          -589 -93 -31 278 vlineto
          endchar
        </CharString>
        <CharString name="N">
          143 callgsubr
          202 callgsubr
          hintmask 10111000
          -76 callsubr
          hintmask 01111000
          34 callsubr
          endchar
        </CharString>
        <CharString name="Nacute">
          143 callgsubr
          254 -20 202 callgsubr
          hintmask 10111100
          -76 callsubr
          hintmask 01111100
          34 callsubr
          -183 249 rmoveto
          24 -11 12 -22 311 callgsubr
          -5 133 136 rlineto
          9 9 4 12 13 vvcurveto
          endchar
        </CharString>
        <CharString name="Ncaron">
          143 callgsubr
          0 217 202 callgsubr
          hintmask 01101100
          708 658 rmoveto
          -39 -22 -3 -7 -7 hvcurveto
          -17 -17 -9 -26 -34 vvcurveto
          2 -588 rlineto
          -23 hlineto
          -423 652 rlineto
          -518 vlineto
          -35 8 -25 17 -16 vhcurveto
          hintmask 10101100
          -7 7 22 -3 39 hhcurveto
          -31 -221 31 vlineto
          37 22 3 6 7 hvcurveto
          19 16 9 26 35 vvcurveto
          518 vlineto
          15 -2 -10 8 -18 hhcurveto
          -56 31 200 hlineto
          331 -515 rlineto
          397 vlineto
          34 -9 26 -19 18 vhcurveto
          6 -7 -22 3 -37 hhcurveto
          31 221 vlineto
          hintmask 10011100
          -197 217 -66 callgsubr
        </CharString>
        <CharString name="Ncommaaccent">
          212 -238 320 callgsubr
          43 247 callgsubr
          hstemhm
          136 34 162 129 -44 44 120 34 hintmask 1110111010000000
          -76 callsubr
          hintmask 1101111010000000
          34 callsubr
          -372 -917 -14 callsubr
          hintmask 1110110110000000
          17 callgsubr
          endchar
        </CharString>
        <CharString name="Nsmall">
          -29 0 21 -10 -21 446 21 hstemhm
          85 25 272 25 hintmask 10111000
          469 457 rmoveto
          -149 -21 hlineto
          25 15 -2 -4 4 hvcurveto
          12 -11 6 -18 -23 vvcurveto
          -203 vlineto
          -183 282 rlineto
          -171 -21 36 hlineto
          13 7 317 callsubr
          -13 -11 vhcurveto
          -3 -3 -15 -2 -26 hhcurveto
          -21 150 21 vlineto
          -26 -15 2 4 -5 hvcurveto
          -11 12 -5 17 23 vvcurveto
          342 vlineto
          hintmask 01111000
          280 -431 rlineto
          17 388 hlineto
          23 6 17 11 11 vhcurveto
          5 5 15 2 25 hhcurveto
          endchar
        </CharString>
        <CharString name="Ntilde">
          143 callgsubr
          51 61 -13 61 202 callgsubr
          hintmask 10110110
          -76 callsubr
          hintmask 01101110
          34 callsubr
          -164 191 rmoveto
          -22 hlineto
          hintmask 10110110
          127 callsubr
          hintmask 10101110
          57 callgsubr
          hintmask 10110110
          3 -3 rlineto
          22 hlineto
          hintmask 10101110
          128 callsubr
          hintmask 10110110
          46 callgsubr
        </CharString>
        <CharString name="Ntildesmall">
          268 callsubr
          91 76 5 -20 hstemhm
          87 25 271 24 hintmask 10110110
          -62 callsubr
          hintmask 01101110
          279 -428 rlineto
          16 386 hlineto
          88 callsubr
          -129 193 71 callgsubr
          hintmask 10110110
          -35 callsubr
          hintmask 10101110
          193 callgsubr
        </CharString>
        <CharString name="Nu">
          143 callgsubr
          202 callgsubr
          hintmask 10111000
          708 689 rmoveto
          -221 -31 hlineto
          35 24 -5 -10 13 hvcurveto
          15 -12 7 -24 -36 vvcurveto
          -397 vlineto
          -331 515 rlineto
          -200 221 callgsubr
          -60 -17 -26 -59 vhcurveto
          -18 -31 221 31 hlineto
          -36 -24 4 9 -11 hvcurveto
          -15 12 -7 24 37 vvcurveto
          518 vlineto
          hintmask 01111000
          423 -652 rlineto
          23 hlineto
          -2 588 rlineto
          37 7 25 15 11 vhcurveto
          9 12 24 5 36 hhcurveto
          endchar
        </CharString>
        <CharString name="Numero">
          586 -1 47 -42 -21 38 -21 149 24 268 25 223 -20 hstemhm
          110 43 483 42 62 64 189 64 hintmask 1001111111000000
          734 -1 rmoveto
          119 1 109 0 99 -1 -1 15 0 16 1 16 -101 -2 -109 0 -117 2 rrcurveto
          18 616 rmoveto
          10 5 4 9 9 -5 5 -11 hvcurveto
          -3 -31 -31 -1 -32 hhcurveto
          -27 -40 1 3 -53 hvcurveto
          -10 -5 -5 -9 -9 5 -4 10 hvcurveto
          21 -2 20 -5 17 -7 23 -11 13 -13 1 -16 9 -463 rcurveline
          -255 310 -147 180 -41 51 rrcurveto
          -69 hlineto
          -27 -26 1 2 -27 hvcurveto
          -10 1 -5 -5 -9 vvcurveto
          -9 5 -4 10 vhcurveto
          44 -7 22 -17 -1 -29 -7 -531 rcurveline
          -15 -12 -13 -24 -12 vhcurveto
          -10 -5 -12 -5 -15 -4 rrcurveto
          -11 -5 -5 -9 -8 5 -4 10 hvcurveto
          3 38 32 1 27 hhcurveto
          hintmask 0011111111000000
          33 38 -1 -2 44 hvcurveto
          9 5 3 7 9 -5 5 -10 -13 -15 4 7 -19 hvcurveto
          -26 11 -13 14 18 vvcurveto
          -9 519 82 -103 82 -104 83 -103 rlinecurve
          hintmask 0101111111000000
          149 -186 84 -101 20 -17 25 22 rcurveline
          8 605 rlineto
          13 12 13 23 13 vhcurveto
          10 5 12 4 13 4 rrcurveto
          305 -354 rmoveto
          43 -16 37 -31 31 vhcurveto
          31 -31 -37 16 -44 hhcurveto
          -43 -38 -16 -31 -31 hvcurveto
          -31 -31 -15 -37 -43 vvcurveto
          -46 15 -38 30 -30 vhcurveto
          -30 30 38 -15 45 hhcurveto
          45 38 15 30 30 hvcurveto
          31 30 15 38 46 vvcurveto
          -64 hmoveto
          -83 -36 -52 -59 -60 -34 56 79 37 9 31 17 26 vhcurveto
          26 18 23 13 27 hhcurveto
          56 39 -58 -75 hvcurveto
          endchar
        </CharString>
        <CharString name="O">
          91 callsubr
          hstem
          125 callgsubr
          vstem
          272 callgsubr
          111 -27 89 -55 66 vhcurveto
          67 -54 -74 33 -93 -107 callsubr
          endchar
        </CharString>
        <CharString name="OE">
          524 -14 32 -19 33 -13 -21 336 34 289 32 -14 32 hstemhm
          63 111 310 89 210 31 138 25 hintmask 0101101111000000
          952 239 rmoveto
          -3 -67 -22 -52 -39 -37 169 callgsubr
          -189 -3 rlineto
          303 124 vlineto
          48 38 -44 -81 hvcurveto
          31 277 -31 hlineto
          -41 -8 -31 -16 -21 vhcurveto
          -17 -13 -20 -8 -29 hhcurveto
          -124 290 hlineto
          173 -2 125 -3 46 -54 11 -113 rlinecurve
          30 hlineto
          -3 203 rlineto
          -384 hlineto
          -19 -36 3 6 -51 hvcurveto
          hintmask 0101011111000000
          6 -48 -32 3 -16 hhcurveto
          -88 -4 -72 -34 -56 -63 -59 -66 -30 -86 -1 -107 -1 -101 30 -86 60 -71 rrcurveto
          hintmask 1001101111000000
          60 -71 72 -34 85 2 rrcurveto
          13 33 2 4 52 hvcurveto
          hintmask 0011101111000000
          4 51 36 2 21 hhcurveto
          396 2 13 239 rlineto
          -500 -192 rmoveto
          hintmask 1001011111000000
          -19 -40 -39 -10 -38 hhcurveto
          -71 -51 31 62 -31 hvcurveto
          -27 53 -13 78 105 vvcurveto
          102 14 78 27 53 vhcurveto
          31 62 52 32 71 1 48 1 38 -8 29 -18 rrcurveto
          endchar
        </CharString>
        <CharString name="OEsmall">
          185 0 25 192 26 185 25 -11 27 hstemhm
          33 100 194 90 134 24 hintmask 11101110
          661 158 126 callgsubr
          -26 -25 rrcurveto
          -21 -23 -28 -11 -33 hhcurveto
          -118 -2 rlineto
          193 76 vlineto
          35 23 -28 -52 hvcurveto
          24 183 -24 hlineto
          -52 -19 -25 -39 vhcurveto
          -76 186 hlineto
          105 -2 42 -1 30 -9 17 -18 rlinecurve
          11 -11 7 -14 5 -15 3 -9 3 -13 2 -17 rrcurveto
          27 133 -286 hlineto
          -11 -22 3 5 -31 hvcurveto
          hintmask 11011110
          5 -31 -23 3 -15 hhcurveto
          -62 -3 -52 -24 -41 -43 -41 -43 -20 -57 -1 -70 -1 -66 22 -57 43 -48 43 -48 51 -23 57 2 57 3 46 4 35 3 293 1 rcurveline
          8 158 rlineto
          -360 -96 rmoveto
          -31 -19 -26 -16 -34 hhcurveto
          -46 -32 20 39 -17 hvcurveto
          -13 32 -7 52 71 vvcurveto
          69 7 52 15 33 vhcurveto
          19 41 32 20 45 -2 21 -1 20 -8 17 -17 7 -7 6 -8 5 -9 rrcurveto
          endchar
        </CharString>
        <CharString name="Oacute">
          91 callsubr
          236 -20 hstem
          125 callgsubr
          vstem
          272 callgsubr
          111 -27 89 -55 66 vhcurveto
          67 -54 -74 33 -93 -107 callsubr
          -39 564 rmoveto
          24 -11 12 -22 311 callgsubr
          -5 133 136 rlineto
          9 9 4 12 13 vvcurveto
          endchar
        </CharString>
        <CharString name="Oacutesmall">
          164 callgsubr
          -23 237 hstemhm
          46 100 220 101 hintmask 11011000
          467 -100 callsubr
          38 429 rmoveto
          hintmask 10111000
          -83 callsubr
          endchar
        </CharString>
        <CharString name="Obreve">
          91 callsubr
          33 64 93 -20 hstem
          125 callgsubr
          vstem
          272 callgsubr
          111 -27 89 -55 66 vhcurveto
          67 -54 -74 33 -93 -107 callsubr
          -49 554 -72 callgsubr
          endchar
        </CharString>
        <CharString name="Ocircumflex">
          264 callgsubr
          235 169 callsubr
          hintmask 11011000
          272 callgsubr
          111 -27 89 -55 66 vhcurveto
          67 -54 -74 33 -93 -107 callsubr
          hintmask 10111000
          -160 568 -100 callgsubr
          endchar
        </CharString>
        <CharString name="Ocircumflexacute">
          202 93 callsubr
          236 -20 hstem
          125 callgsubr
          vstem
          272 callgsubr
          111 -27 89 -55 66 vhcurveto
          67 -54 -74 33 -93 -107 callsubr
          140 566 rmoveto
          -85 callgsubr
          -307 -6 -100 callgsubr
          endchar
        </CharString>
        <CharString name="Ocircumflexdotbelow">
          202 -234 106 114 35 655 31 -31 233 hstemhm
          54 111 141 108 138 111 hintmask 11101110
          272 callgsubr
          111 -27 89 -55 66 vhcurveto
          67 -54 -74 33 -93 -107 callsubr
          -138 -523 -87 callsubr
          hintmask 11011110
          -32 1089 -100 callgsubr
          endchar
        </CharString>
        <CharString name="Ocircumflexgrave">
          202 93 callsubr
          -31 225 -164 197 169 callsubr
          hintmask 11011100
          272 callgsubr
          111 -27 89 -55 66 vhcurveto
          67 -54 -74 33 -93 -107 callsubr
          -7 570 30 callsubr
          hintmask 10101100
          -259 170 rmoveto
          -61 hlineto
          hintmask 11011100
          118 callgsubr
        </CharString>
        <CharString name="Ocircumflexhookabove">
          264 callgsubr
          226 -157 194 hstemhm
          54 111 319 143 -75 111 -77 41 hintmask 11011010
          272 callgsubr
          111 -27 89 -55 66 vhcurveto
          67 -54 -74 33 -93 -107 callsubr
          8 406 79 callsubr
          hintmask 11011100
          25 24 12 20 16 vvcurveto
          40 -31 23 -36 -7 -8 -1 -3 -8 vhcurveto
          -25 -5 -28 -24 -25 vvcurveto
          -11 4 -5 8 6 5 3 7 4 vhcurveto
          hintmask 10101001
          9 17 11 9 13 1 rrcurveto
          28 3 14 -11 -26 vvcurveto
          -10 -9 -16 -18 -21 vhcurveto
          -18 -21 -9 -16 -11 vvcurveto
          hintmask 11011100
          -13 9 -15 12 4 2 1 3 1 vhcurveto
          hintmask 10101100
          -170 153 -100 callgsubr
          endchar
        </CharString>
        <CharString name="Ocircumflexsmall">
          164 callgsubr
          195 -20 hstem
          46 100 220 101 vstem
          467 -100 callsubr
          -85 438 -41 callgsubr
          endchar
        </CharString>
        <CharString name="Ocircumflextilde">
          202 93 callsubr
          -31 229 36 60 -21 55 10 -20 169 callsubr
          hintmask 11010111
          272 callgsubr
          111 -27 89 -55 66 vhcurveto
          67 -54 -74 33 -93 -107 callsubr
          -49 702 -18 callgsubr
          hintmask 11001011
          -75 callsubr
          hintmask 10110111
          -16 callsubr
          -127 -140 -100 callgsubr
          endchar
        </CharString>
        <CharString name="Odieresis">
          197 -16 34 656 31 41 96 hstem
          53 112 64 98 96 99 29 112 vstem
          522 793 rmoveto
          116 callgsubr
          -17 -16 -33 -31 17 -16 33 33 16 16 31 vhcurveto
          -195 hmoveto
          33 -16 16 -32 -29 -21 -20 -29 -31 17 156 callsubr
          31 vhcurveto
          336 -454 rmoveto
          111 -27 89 -55 66 vhcurveto
          67 -54 -74 33 -93 hhcurveto
          -87 -73 -33 -66 -57 hvcurveto
          -59 -67 -30 -87 203 callgsubr
          30 -85 59 -71 rrcurveto
          -70 60 73 -35 86 hhcurveto
          87 72 34 68 57 hvcurveto
          58 69 29 84 100 vvcurveto
          -112 1 rmoveto
          -96 -15 -76 -30 -56 vhcurveto
          -63 -34 -48 -31 -63 hhcurveto
          -131 -65 109 217 104 13 79 27 53 hvcurveto
          63 31 51 31 73 hhcurveto
          66 49 -33 -65 33 hvcurveto
          29 -57 14 -78 -101 vvcurveto
          endchar
        </CharString>
        <CharString name="Odieresiscyrillic">
          91 callsubr
          37 96 hstem
          54 111 42 96 115 96 38 111 vstem
          272 callgsubr
          111 -27 89 -55 66 vhcurveto
          67 -54 -74 33 -93 -107 callsubr
          -86 401 -9 callgsubr
          endchar
        </CharString>
        <CharString name="Odieresissmall">
          164 callgsubr
          67 98 hstemhm
          46 100 -38 97 97 97 -33 101 hintmask 11110010
          467 -100 callsubr
          hintmask 11101100
          33 358 rmoveto
          33 -16 17 -33 -32 -16 -17 -33 -32 257 callsubr
          276 callsubr
          -194 hmoveto
          33 -16 17 -32 31 callsubr
          vhcurveto
          endchar
        </CharString>
        <CharString name="Odotbelow">
          197 -236 106 116 35 655 31 hstem
          54 111 140 108 139 111 vstem
          272 callgsubr
          111 -27 89 -55 66 vhcurveto
          67 -54 -74 33 -93 -107 callsubr
          -139 -525 -87 callsubr
          endchar
        </CharString>
        <CharString name="Ogonek">
          -189 -193 49 144 -20 hstem
          58 59 vstem
          274 -122 rmoveto
          -11 14 -8 1 rlineto
          -25 -29 -29 -12 -28 hhcurveto
          -35 -17 16 32 25 20 32 41 39 hvcurveto
          -35 hlineto
          -57 -37 -28 -38 -38 vvcurveto
          -45 36 -35 45 42 45 21 43 48 vhcurveto
          endchar
        </CharString>
        <CharString name="Ogoneksmall">
          -189 -188 50 138 -20 hstem
          65 55 vstem
          268 -125 rmoveto
          2 2 1 3 4 vvcurveto
          8 -4 4 -7 -2 -2 -1 -1 -3 vhcurveto
          -21 -34 -29 -11 -24 hhcurveto
          -31 -15 14 27 29 19 32 39 36 hvcurveto
          -33 hlineto
          -53 -37 -27 -40 -43 vvcurveto
          -17 6 -14 11 -13 vhcurveto
          -16 14 19 -8 24 hhcurveto
          23 24 6 13 26 hvcurveto
          23 13 19 14 14 17 rrcurveto
          endchar
        </CharString>
        <CharString name="Ograve">
          264 callgsubr
          232 169 callsubr
          hintmask 11011000
          272 callgsubr
          111 -27 89 -55 66 vhcurveto
          67 -54 -74 33 -93 -107 callsubr
          -292 534 rmoveto
          hintmask 10111000
          -60 callsubr
        </CharString>
        <CharString name="Ogravesmall">
          164 callgsubr
          185 -20 hstem
          46 100 220 101 vstem
          467 -100 callsubr
          -224 402 rmoveto
          -19 callgsubr
        </CharString>
        <CharString name="Ohookabove">
          91 callsubr
          229 -20 hstemhm
          54 111 137 219 callsubr
          107 111 hintmask 11111010
          272 callgsubr
          111 -27 89 -55 66 vhcurveto
          67 -54 -74 33 -93 -107 callsubr
          -174 403 79 callsubr
          -102 callsubr
          hintmask 11110110
          -96 callgsubr
          endchar
        </CharString>
        <CharString name="Ohorn">
          264 callgsubr
          67 260 callgsubr
          hintmask 11011010
          52 callsubr
          hintmask 10110100
          -45 callsubr
          hintmask 11011010
          52 callgsubr
          79 -55 -78 39 -103 -107 callsubr
          endchar
        </CharString>
        <CharString name="Ohornacute">
          202 199 callsubr
          205 -20 260 callgsubr
          hintmask 11011101
          52 callsubr
          hintmask 10111010
          -45 callsubr
          hintmask 11011101
          52 callgsubr
          79 -55 -78 39 -103 -107 callsubr
          -63 569 rmoveto
          24 -11 12 -22 311 callgsubr
          -5 133 136 rlineto
          9 9 4 12 13 vvcurveto
          endchar
        </CharString>
        <CharString name="Ohorndotbelow">
          197 -229 106 109 35 655 31 -31 67 hstemhm
          54 111 165 108 114 111 -50 126 -42 42 hintmask 1110111010000000
          52 callsubr
          hintmask 1101110100000000
          -45 callsubr
          hintmask 1110111010000000
          52 callgsubr
          79 -55 -78 39 -103 -107 callsubr
          -114 -518 -87 callsubr
          endchar
        </CharString>
        <CharString name="Ohorntilde">
          213 199 callsubr
          1 96 -52 52 5 -20 260 callgsubr
          hintmask 1101001101000000
          52 callsubr
          hintmask 1011001010000000
          -45 callsubr
          hintmask 1100011101000000
          52 callgsubr
          79 -55 -78 39 -103 -107 callsubr
          -50 502 rmoveto
          -7 -16 -63 callgsubr
          hintmask 1101001101000000
          -43 callsubr
          hintmask 1100101101000000
          -38 callgsubr
          hintmask 1101001101000000
          32 callgsubr
          hintmask 1100011101000000
          118 callsubr
        </CharString>
        <CharString name="Ohungarumlaut">
          91 callsubr
          hstem
          125 callgsubr
          vstem
          272 callgsubr
          111 -27 89 -55 66 vhcurveto
          67 -54 -74 33 -93 -107 callsubr
          -138 461 rmoveto
          19 7 10 14 21 vvcurveto
          13 -6 10 -12 232 callsubr
          365 66 rmoveto
          21 7 10 14 21 vvcurveto
          13 -7 10 -13 232 callsubr
          endchar
        </CharString>
        <CharString name="Omacron">
          91 callsubr
          31 50 hstem
          125 callgsubr
          vstem
          272 callgsubr
          111 -27 89 -55 66 vhcurveto
          67 -54 -74 33 -93 -107 callsubr
          -39 445 132 callsubr
        </CharString>
        <CharString name="Omega">
          233 0 83 587 31 hstem
          56 274 callsubr
          vstem
          699 147 -107 callgsubr
          endchar
        </CharString>
        <CharString name="Omegatonos">
          258 0 83 587 31 12 -20 hstemhm
          74 274 callsubr
          hintmask 11011000
          717 147 -107 callgsubr
          -668 677 rmoveto
          hintmask 10111000
          24 -11 12 -22 311 callgsubr
          -5 133 136 rlineto
          9 9 4 12 13 vvcurveto
          endchar
        </CharString>
        <CharString name="Omicron">
          197 -8 33 656 30 hstem
          59 129 callgsubr
          vstem
          669 345 -101 callgsubr
          endchar
        </CharString>
        <CharString name="Omicrontonos">
          197 -11 33 656 30 3 -20 hstemhm
          58 129 callgsubr
          hintmask 11011000
          668 342 -101 callgsubr
          -474 330 rmoveto
          hintmask 10111000
          24 -11 12 -22 311 callgsubr
          -5 133 136 rlineto
          9 9 4 12 13 vvcurveto
          endchar
        </CharString>
        <CharString name="Oslash">
          206 -16 34 656 31 hstem
          60 112 277 callgsubr
          vstem
          699 -20 callgsubr
          endchar
        </CharString>
        <CharString name="Oslashacute">
          299 -16 34 656 31 242 -20 hstem
          105 112 277 callgsubr
          vstem
          744 -20 callgsubr
          -55 571 rmoveto
          24 -11 12 -22 311 callgsubr
          -5 133 136 rlineto
          9 9 4 12 13 vvcurveto
          endchar
        </CharString>
        <CharString name="Oslashsmall">
          -18 -37 -21 48 24 427 23 46 -21 callsubr
          endchar
        </CharString>
        <CharString name="Osmall">
          -22 -10 24 427 23 hstem
          40 100 220 101 vstem
          461 -100 callsubr
          endchar
        </CharString>
        <CharString name="Otilde">
          91 callsubr
          34 96 -52 52 6 -20 169 callsubr
          hintmask 11001110
          272 callgsubr
          111 -27 89 -55 66 vhcurveto
          67 -54 -74 33 -93 -107 callsubr
          -69 500 rmoveto
          -7 -17 -63 callgsubr
          hintmask 11100110
          -43 callsubr
          hintmask 11010110
          -38 callgsubr
          hintmask 11100110
          31 callgsubr
          hintmask 11001110
          119 callgsubr
        </CharString>
        <CharString name="Otildesmall">
          164 callgsubr
          68 76 5 -20 hstemhm
          46 100 220 101 hintmask 11011100
          467 -100 callsubr
          -2 392 71 callgsubr
          hintmask 11101100
          -35 callsubr
          hintmask 11011100
          193 callgsubr
        </CharString>
        <CharString name="P">
          84 0 31 268 27 332 31 hstem
          305 callsubr
          103 vstem
          157 callgsubr
          269 callsubr
          hlineto
          84 callsubr
          endchar
        </CharString>
        <CharString name="Phi">
          212 0 31 70 29 440 27 61 31 hstem
          34 107 172 92 175 108 vstem
          688 360 rmoveto
          71 -30 58 -61 46 vhcurveto
          -55 41 -64 20 -73 1 rrcurveto
          61 93 31 -278 -31 93 -61 vlineto
          -69 -3 -63 -23 -55 -41 rrcurveto
          -61 -46 -31 -56 -67 vvcurveto
          -169 93 -86 186 -5 vhcurveto
          -70 -93 -31 278 31 -93 70 vlineto
          85 4 68 22 50 41 rrcurveto
          53 45 27 64 83 vvcurveto
          -108 -13 rmoveto
          -62 -14 -50 -27 -37 vhcurveto
          -30 -41 -45 -23 -59 -4 rrcurveto
          440 vlineto
          117 -9 58 -74 -140 vvcurveto
          -267 -217 rmoveto
          -115 7 -57 74 140 vvcurveto
          137 57 73 115 9 vhcurveto
          endchar
        </CharString>
        <CharString name="Pi">
          206 0 31 617 41 hstem
          132 89 289 90 vstem
          692 31 rmoveto
          -92 627 92 31 -653 -31 93 -627 -93 -31 275 31 -93 617 289 -617 165 callsubr
          hlineto
          endchar
        </CharString>
        <CharString name="Psi">
          337 0 31 220 31 250 169 -43 31 -18 30 hstemhm
          112 92 171 92 171 37 61 108 hintmask 1100111110000000
          844 603 rmoveto
          61 -41 37 -61 -31 -26 -14 -28 -19 vhcurveto
          -19 -25 -9 -29 -33 vvcurveto
          -98 -4 -64 -9 -30 vhcurveto
          -21 -67 -47 -32 -75 1 -15 1 rcurveline
          hintmask 1101011110000000
          375 94 31 -278 -31 93 vlineto
          -1 -376 rlineto
          -14 hlineto
          -67 -1 -44 15 -21 31 rrcurveto
          -17 24 -8 48 71 vvcurveto
          65 0 39 -1 11 vhcurveto
          -5 38 -11 28 -18 17 -23 21 -37 9 -51 -3 -36 -1 rcurveline
          -26 vlineto
          55 7 35 -36 -55 vvcurveto
          -90 1 -57 3 -25 vhcurveto
          8 -56 19 -41 29 -25 36 -31 56 -13 77 5 35 1 rcurveline
          -221 -93 -31 278 31 -94 220 vlineto
          97 -5 61 34 27 72 9 24 7 69 7 114 rrcurveto
          hintmask 1100111110000000
          75 4 23 37 41 hhcurveto
          21 10 -10 -19 hvcurveto
          -25 -12 -13 -20 -29 vvcurveto
          hintmask 1110011110000000
          -28 23 -21 29 35 21 35 36 vhcurveto
          endchar
        </CharString>
        <CharString name="Psmall">
          -55 0 21 -21 216 220 21 hstemhm
          101 91 145 91 69 callgsubr
          -91 -2 310 callgsubr
          -17 -21 -27 -8 -33 hhcurveto
          -27 220 41 hlineto
          67 34 -37 -74 3 hvcurveto
          endchar
        </CharString>
        <CharString name="Q">
          201 -153 56 773 30 hstem
          57 113 386 109 vstem
          556 343 rmoveto
          -96 -15 -76 -30 -57 vhcurveto
          -62 -33 -49 -31 -63 hhcurveto
          -131 -65 109 217 104 13 79 27 53 hvcurveto
          62 32 52 31 71 hhcurveto
          67 49 -32 -65 32 hvcurveto
          29 -57 14 -78 -101 vvcurveto
          162 -427 rmoveto
          -7 -14 -16 -6 -14 hhcurveto
          -28 -30 16 30 -32 hvcurveto
          36 -39 -45 16 -52 hhcurveto
          65 23 52 40 40 63 rrcurveto
          40 62 20 72 79 vvcurveto
          113 -26 88 -55 66 vhcurveto
          66 -54 -75 33 -92 hhcurveto
          -88 -71 -32 -65 -56 hvcurveto
          -60 -67 -30 -87 290 callsubr
          -95 29 -81 56 -69 55 -69 69 -38 81 -7 32 -2 34 -15 40 -28 95 -72 rcurveline
          26 -16 26 -9 25 1 25 1 22 9 22 14 8 6 9 8 8 7 rrcurveto
          endchar
        </CharString>
        <CharString name="Qsmall">
          -29 -107 -21 145 -21 446 22 hstem
          26 99 221 99 vstem
          346 224 rmoveto
          -140 -35 -70 -69 -47 -33 20 39 -17 vhcurveto
          -13 31 -7 52 71 vvcurveto
          69 7 52 15 33 vhcurveto
          41 18 31 20 45 hhcurveto
          40 28 -21 -43 17 hvcurveto
          13 -33 7 -52 -69 vvcurveto
          -55 -228 rmoveto
          38 11 33 23 27 34 rrcurveto
          37 46 19 53 60 vvcurveto
          70 -18 58 -37 45 vhcurveto
          45 -37 -49 23 -62 hhcurveto
          -62 -51 -21 -43 -40 hvcurveto
          -42 -44 -21 -58 -71 vvcurveto
          -1 -64 21 -56 42 -47 36 -41 42 -24 47 -5 25 -2 27 -15 33 -24 76 -57 rcurveline
          21 -14 21 -7 20 1 rrcurveto
          21 17 9 11 17 hvcurveto
          7 4 7 7 7 6 rrcurveto
          19 vlineto
          -6 -11 -13 -5 -12 hhcurveto
          -21 -26 13 25 -25 hvcurveto
          29 -32 -38 12 -43 hhcurveto
          endchar
        </CharString>
        <CharString name="R">
          183 callgsubr
          hstemhm
          305 callsubr
          102 hintmask 10111100
          469 54 rmoveto
          4 -4 1 -4 -4 vvcurveto
          -5 -5 -4 -9 -2 vhcurveto
          -28 hlineto
          hintmask 01111100
          -1 -32 106 2 76 0 49 -2 rlinecurve
          30 vlineto
          -36 3 -24 8 -11 14 -205 278 rcurveline
          58 4 48 17 36 30 rrcurveto
          37 33 19 42 53 vvcurveto
          53 -20 44 -40 30 vhcurveto
          33 -43 -63 18 -81 hhcurveto
          -303 -31 93 hlineto
          hintmask 10111100
          -627 -93 -31 278 31 -93 vlineto
          -2 296 rlineto
          61 hlineto
          204 186 rmoveto
          -105 3 -59 -52 -122 hhcurveto
          -87 hlineto
          2 302 rlineto
          106 hlineto
          101 53 -48 -97 3 hvcurveto
          endchar
        </CharString>
        <CharString name="Racute">
          183 callgsubr
          253 -20 hstemhm
          482 102 hintmask 10111100
          469 54 rmoveto
          4 -4 1 -4 -4 vvcurveto
          -5 -5 -4 -9 -2 vhcurveto
          -28 hlineto
          hintmask 01111100
          -1 -32 106 2 76 0 49 -2 rlinecurve
          30 vlineto
          -36 3 -24 8 -11 14 -205 278 rcurveline
          58 4 48 17 36 30 rrcurveto
          37 33 19 42 53 vvcurveto
          53 -20 44 -40 30 vhcurveto
          33 -43 -63 18 -81 hhcurveto
          -303 -31 93 hlineto
          hintmask 10111100
          -627 -93 -31 278 31 -93 vlineto
          -2 296 rlineto
          61 hlineto
          204 186 rmoveto
          -105 3 -59 -52 -122 hhcurveto
          -87 hlineto
          2 302 rlineto
          106 hlineto
          101 53 -48 -97 3 hvcurveto
          -54 393 rmoveto
          24 -11 12 -22 311 callgsubr
          -5 133 136 rlineto
          9 9 4 12 13 vvcurveto
          endchar
        </CharString>
        <CharString name="Rcaron">
          183 callgsubr
          0 215 hstemhm
          305 callsubr
          102 hintmask 10110110
          278 327 rmoveto
          -61 hlineto
          2 -296 rlineto
          93 -31 -278 31 93 627 -93 31 303 hlineto
          81 63 -18 -33 43 hvcurveto
          40 -30 20 -44 -53 vvcurveto
          -53 -19 -42 -37 -33 vhcurveto
          -36 -30 -48 -17 -58 -4 205 -278 rcurveline
          11 -14 24 -8 36 -3 rrcurveto
          hintmask 01110110
          -30 vlineto
          -49 2 -76 0 -106 -2 rrcurveto
          hintmask 10110110
          1 32 rlineto
          28 hlineto
          9 2 5 4 5 vvcurveto
          4 -1 4 -4 4 vhcurveto
          13 459 rmoveto
          97 -3 -53 48 -101 hhcurveto
          -106 hlineto
          -2 -302 rlineto
          87 hlineto
          122 59 52 105 -3 hvcurveto
          hintmask 10101110
          -26 391 -66 callgsubr
        </CharString>
        <CharString name="Rcommaaccent">
          137 -238 320 callgsubr
          43 31 301 24 302 31 hstem
          127 91 169 44 51 102 vstem
          469 54 rmoveto
          4 -4 1 -4 -4 vvcurveto
          -5 -5 -4 -9 -2 vhcurveto
          -28 hlineto
          -1 -32 106 2 76 0 49 -2 rlinecurve
          30 vlineto
          -36 3 -24 8 -11 14 -205 278 rcurveline
          58 4 48 17 36 30 rrcurveto
          37 33 19 42 53 vvcurveto
          53 -20 44 -40 30 vhcurveto
          33 -43 -63 18 -81 hhcurveto
          -303 -31 93 -627 -93 -31 278 31 -93 hlineto
          -2 296 rlineto
          61 hlineto
          204 186 rmoveto
          -105 3 -59 -52 -122 hhcurveto
          -87 hlineto
          2 302 rlineto
          106 hlineto
          101 53 -48 -97 3 hvcurveto
          -176 -772 -14 callsubr
          17 callgsubr
          endchar
        </CharString>
        <CharString name="Rho">
          84 0 31 268 27 332 31 hstem
          305 callsubr
          103 vstem
          585 494 rmoveto
          67 -26 50 -52 34 vhcurveto
          29 -43 -57 15 -71 hhcurveto
          -303 -31 226 callsubr
          278 31 -93 268 hlineto
          105 79 8 17 51 hvcurveto
          88 29 44 56 85 vvcurveto
          -103 -3 rmoveto
          -108 -69 -57 -109 vhcurveto
          -86 332 106 hlineto
          105 53 -56 -111 hvcurveto
          endchar
        </CharString>
        <CharString name="Ring">
          -189 741 30 131 31 hstem
          66 35 131 36 vstem
          268 836 19 callgsubr
        </CharString>
        <CharString name="Ringsmall">
          -198 480 35 123 36 hstem
          65 36 120 38 vstem
          259 577 rmoveto
          53 -44 44 -53 -53 -44 -44 -53 -53 44 -44 53 53 44 44 53 vhcurveto
          -38 hmoveto
          -41 -20 -21 -39 -41 -20 21 41 41 20 20 41 39 20 -20 -41 vhcurveto
          endchar
        </CharString>
        <CharString name="Rsmall">
          -21 265 callgsubr
          hstemhm
          96 91 158 86 hintmask 10111000
          333 36 -1 callgsubr
          56 callgsubr
          hintmask 01111000
          109 callsubr
        </CharString>
        <CharString name="S">
          -8 -10 168 callgsubr
          301 82 hintmask 11000110
          491 220 rmoveto
          -6 callsubr
          hintmask 10011010
          179 -28 vlineto
          hintmask 11001010
          249 callgsubr
          hintmask 10101010
          -75 callgsubr
          81 67 18 35 53 hvcurveto
          62 41 31 59 77 vvcurveto
          endchar
        </CharString>
        <CharString name="Sacute">
          -8 -10 42 633 25 -25 42 -2 -20 259 -20 hstemhm
          25 40 344 82 hintmask 11001110
          491 220 rmoveto
          -6 callsubr
          hintmask 10011110
          179 -28 vlineto
          hintmask 11001110
          249 callgsubr
          hintmask 10101110
          -75 callgsubr
          81 67 18 35 53 hvcurveto
          62 41 31 59 77 vvcurveto
          -93 688 rmoveto
          24 -11 12 -22 311 callgsubr
          -5 133 136 rlineto
          9 9 4 12 13 vvcurveto
          endchar
        </CharString>
        <CharString name="Sampigreek">
          405 -226 -21 235 83 -83 100 289 58 hstemhm
          517 58 -58 195 139 30 hintmask 10110110
          111 -235 rmoveto
          -3 7 6 -1 5 hhcurveto
          11 10 8 13 11 hvcurveto
          8 10 13 22 18 32 68 123 104 176 128 235 rrcurveto
          35 50 -4 -16 53 hvcurveto
          -25 -43 -24 -47 -21 -49 -26 -60 rcurveline
          -17 -39 -8 -33 -26 vvcurveto
          -39 19 -24 37 -8 vhcurveto
          -3 14 13 -1 12 hhcurveto
          41 59 24 51 19 -18 6 -23 hvcurveto
          hintmask 11011010
          -22 -19 -17 -22 hhcurveto
          -13 -20 13 30 50 40 86 53 99 hvcurveto
          101 -24 82 -111 -111 vvcurveto
          -86 -65 -162 -101 -13 vhcurveto
          -50 -6 -35 12 -17 22 rrcurveto
          24 -20 -9 13 -2 hhcurveto
          -7 -10 -10 -19 -6 hvcurveto
          -7 -20 1 -14 -9 vvcurveto
          -48 36 -34 53 23 25 6 12 25 vhcurveto
          119 58 77 155 133 vvcurveto
          101 -57 110 -104 53 vhcurveto
          33 -65 -73 21 -87 hhcurveto
          -47 -49 -5 -10 -51 hvcurveto
          -79 -15 -73 -36 -69 -55 -58 -48 -34 -46 -14 -40 rrcurveto
          -4 -10 -2 -9 -7 vvcurveto
          -15 7 -7 15 11 11 5 7 14 vhcurveto
          9 5 24 25 40 47 40 47 44 38 49 28 53 27 59 15 65 1 -334 -521 rcurveline
          -19 -30 -12 -20 -14 vvcurveto
          -13 7 -9 13 -5 vhcurveto
          endchar
        </CharString>
        <CharString name="Scaron">
          -8 -13 43 636 42 228 -20 hstem
          23 83 303 82 vstem
          491 242 rmoveto
          52 -20 39 -40 26 vhcurveto
          -34 21 -55 14 -75 8 -59 7 -42 13 -26 20 rrcurveto
          -23 19 -11 27 35 vvcurveto
          45 15 36 31 26 vhcurveto
          24 27 33 12 38 hhcurveto
          46 36 -8 -15 25 hvcurveto
          35 -21 5 -10 3 -27 6 -57 rcurveline
          31 hlineto
          49 4 46 8 43 vhcurveto
          28 -65 -59 14 -51 hhcurveto
          -65 -57 -18 -36 -48 hvcurveto
          -54 -41 -27 -55 -71 vvcurveto
          -103 61 -46 153 -19 vhcurveto
          56 -6 41 -11 26 -17 rrcurveto
          33 -21 16 -32 -43 vvcurveto
          -46 -18 -38 -35 -30 vhcurveto
          -30 -35 -41 -15 -46 hhcurveto
          -38 -35 8 16 -33 hvcurveto
          -32 16 -18 18 -3 20 -8 66 rcurveline
          -32 hlineto
          2 -61 -2 -50 -7 -39 rrcurveto
          -25 53 56 -12 59 hhcurveto
          79 67 22 43 56 hvcurveto
          62 48 31 63 79 vvcurveto
          -110 683 rmoveto
          7 -3 -5 4 -8 hhcurveto
          -91 -110 -3 -3 -6 -1 -7 2 rlinecurve
          -8 1 -4 2 3 vvcurveto
          -90 106 rlineto
          -8 -5 -4 -7 -3 hvcurveto
          102 -181 rlineto
          24 -1 12 0 1 vvcurveto
          endchar
        </CharString>
        <CharString name="Scaronsmall">
          -121 -11 35 399 34 201 -20 hstem
          42 83 160 82 vstem
          367 147 rmoveto
          -52 -19 -40 -39 -29 vhcurveto
          -25 -35 -44 -12 -55 hhcurveto
          -49 -46 10 20 -43 hvcurveto
          7 32 3 38 44 vvcurveto
          27 hlineto
          4 -58 rlineto
          -28 17 50 -23 36 hhcurveto
          59 45 32 55 29 -18 21 -37 12 hvcurveto
          -92 27 rlineto
          -64 20 -32 37 54 vvcurveto
          50 17 38 34 25 vhcurveto
          22 30 41 11 51 hhcurveto
          43 41 -8 -15 39 hvcurveto
          3 -8 rlineto
          -5 -18 -3 -31 -44 vvcurveto
          -28 hlineto
          -4 54 rlineto
          24 -21 -29 12 -37 hhcurveto
          -59 -30 -26 -53 -31 23 -21 45 -12 hvcurveto
          76 -19 rlineto
          65 -19 33 -38 -57 vvcurveto
          -30 511 -1 callsubr
          endchar
        </CharString>
        <CharString name="Scedilla">
          -8 -196 228 -42 168 callgsubr
          301 82 hintmask 10100011
          267 -5 rmoveto
          50 8 44 16 37 24 rrcurveto
          62 41 31 59 77 vvcurveto
          -6 callsubr
          hintmask 10001101
          179 -28 vlineto
          hintmask 10100101
          249 callgsubr
          hintmask 01010101
          -75 callgsubr
          12 12 0 1 12 hvcurveto
          -34 -58 rlineto
          120 callsubr
          hvcurveto
          hintmask 10100101
          -23 19 -12 39 28 24 8 15 21 vhcurveto
          181 callsubr
        </CharString>
        <CharString name="Scircumflex">
          -8 -10 42 633 25 -25 42 -42 238 -198 -20 hstemhm
          25 40 -40 83 301 82 hintmask 11000011
          491 220 rmoveto
          -6 callsubr
          hintmask 10001101
          179 -28 vlineto
          hintmask 11000101
          249 callgsubr
          hintmask 10100101
          -75 callgsubr
          81 67 18 35 53 hvcurveto
          62 41 31 59 77 vvcurveto
          hintmask 10010101
          -196 683 -100 callgsubr
          endchar
        </CharString>
        <CharString name="Scommaaccent">
          -7 -239 320 callgsubr
          34 168 callgsubr
          95 129 -44 44 77 82 hintmask 1111000110100000
          491 220 rmoveto
          -6 callsubr
          hintmask 1110011010100000
          179 -28 vlineto
          hintmask 1111001010100000
          249 callgsubr
          hintmask 1110101010100000
          -75 callgsubr
          81 67 18 35 53 hvcurveto
          62 41 31 59 77 vvcurveto
          -284 -480 -14 callsubr
          hintmask 1111001001100000
          17 callgsubr
          endchar
        </CharString>
        <CharString name="Sigma">
          180 0 78 580 31 hstem
          606 239 rmoveto
          -9 -64 -18 -43 -27 -22 rrcurveto
          -21 -27 -46 -11 -67 hhcurveto
          -246 hlineto
          256 295 -229 285 rlineto
          209 hlineto
          60 45 -14 -28 30 hvcurveto
          27 -26 19 -43 11 -61 rrcurveto
          30 hlineto
          -12 203 rlineto
          -568 hlineto
          293 -361 -296 -328 rlineto
          586 hlineto
          14 239 rlineto
          endchar
        </CharString>
        <CharString name="Ssmall">
          -119 -11 36 404 35 hstem
          43 83 163 83 vstem
          183 25 rmoveto
          308 callgsubr
          hvcurveto
          79 callgsubr
          -19 48 49 -9 37 hhcurveto
          55 46 13 25 35 hvcurveto
          -64 callgsubr
          vhcurveto
          endchar
        </CharString>
        <CharString name="T">
          147 0 31 625 33 hstem
          288 callsubr
          vstem
          -13 callsubr
          endchar
        </CharString>
        <CharString name="Tau">
          148 163 callgsubr
          295 91 vstem
          642 689 rmoveto
          -602 hlineto
          -2 -203 rlineto
          29 hlineto
          8 73 23 47 37 22 26 16 53 10 81 4 rrcurveto
          -627 -93 -31 278 31 -94 627 vlineto
          79 -4 54 -10 27 -16 39 -23 23 -48 6 -71 rrcurveto
          30 hlineto
          endchar
        </CharString>
        <CharString name="Tbar">
          148 0 31 339 42 244 33 hstem
          288 callsubr
          vstem
          642 689 rmoveto
          -602 hlineto
          -2 -203 rlineto
          29 hlineto
          6 59 16 43 25 25 25 25 46 15 65 3 45 2 rcurveline
          -246 -114 -42 114 -339 -93 -31 278 31 -94 339 116 42 -116 246 105 callsubr
          endchar
        </CharString>
        <CharString name="Tcaron">
          147 0 31 625 33 0 214 hstemhm
          288 callsubr
          hintmask 11011000
          644 486 rmoveto
          -30 hlineto
          -4 57 -15 41 -26 27 -26 27 -46 15 -65 3 -46 2 rcurveline
          -627 94 -31 -278 31 93 627 vlineto
          -45 -2 -65 -3 -46 -15 -25 -25 rlinecurve
          -25 -25 -16 -43 -6 -59 rrcurveto
          -29 hlineto
          2 203 rlineto
          602 hlineto
          hintmask 10111000
          -145 214 -66 callgsubr
        </CharString>
        <CharString name="Tcommaaccent">
          147 -238 320 callgsubr
          43 31 625 33 hstemhm
          268 118 -91 91 -33 33 228 29 hintmask 11110101
          -13 callsubr
          -372 -745 107 callgsubr
          53 -23 27 -45 vhcurveto
          hintmask 11111001
          -36 -25 -23 -33 -39 22 -20 43 -1 hvcurveto
          hintmask 11110011
          17 callgsubr
          endchar
        </CharString>
        <CharString name="Theta">
          206 -7 33 292 82 282 30 hstem
          57 112 84 30 148 31 94 112 vstem
          668 347 rmoveto
          103 -24 85 -49 66 vhcurveto
          74 -54 -77 37 -99 hhcurveto
          -95 -77 -37 -73 -57 hvcurveto
          -53 -69 -26 -83 -98 vvcurveto
          -93 27 -82 55 -70 vhcurveto
          -76 59 76 -38 91 hhcurveto
          90 74 37 74 58 hvcurveto
          54 68 27 81 94 vvcurveto
          -112 2 rmoveto
          -82 -12 -69 -23 -55 vhcurveto
          -78 -33 -51 -39 -71 hhcurveto
          -131 175 callgsubr
          93 10 72 20 51 hvcurveto
          76 31 56 38 79 hhcurveto
          73 53 -40 -80 32 hvcurveto
          22 -55 11 -71 -87 vvcurveto
          -94 116 rmoveto
          -31 -65 -148 65 -30 -215 30 68 148 -68 31 hlineto
          endchar
        </CharString>
        <CharString name="Thorn">
          75 0 31 125 47 321 162 -30 30 hstemhm
          132 99 hintmask 11011000
          561 418 rmoveto
          43 -21 40 -42 35 vhcurveto
          30 -37 -35 15 -32 hhcurveto
          -5 -5 1 1 -3 hvcurveto
          -13 -4 -13 -2 -12 -1 -19 -3 -17 -8 -13 -12 -63 -62 rcurveline
          165 94 30 -286 -30 93 -625 -93 -31 286 31 -94 425 vlineto
          15 17 12 12 8 7 rrcurveto
          hintmask 11101000
          21 17 25 11 32 hhcurveto
          8 22 -4 -7 35 hvcurveto
          20 -5 19 -17 17 -30 18 -29 8 -27 -3 -23 -3 -37 -2 -22 -1 -6 -5 -18 -11 -25 -19 -31 rrcurveto
          -23 -13 -52 -17 -44 hhcurveto
          -25 -17 5 11 -8 hvcurveto
          19 -63 47 1 32 6 17 11 rlinecurve
          57 39 35 27 13 14 37 42 19 55 1 67 rrcurveto
          endchar
        </CharString>
        <CharString name="Thornsmall">
          -92 0 21 -21 160 206 25 42 21 hstemhm
          91 91 143 90 hintmask 10111100
          182 391 rmoveto
          42 35 callsubr
          -21 213 21 -61 345 39 vlineto
          67 1 34 -37 3 -74 rrcurveto
          hintmask 01111100
          -64 2 -36 -32 -73 hhcurveto
          hintmask 10111100
          1 -1 0 -7 -1 -11 rrcurveto
          131 66 39 78 100 -51 32 -135 1 hvcurveto
          endchar
        </CharString>
        <CharString name="Tildesmall">
          3 callsubr
        </CharString>
        <CharString name="Tquoteright">
          147 0 31 554 116 -45 33 hstemhm
          288 callsubr
          37 129 -44 44 hintmask 10111100
          -13 callsubr
          40 -1 107 callgsubr
          hintmask 11011100
          53 -23 27 -45 -36 -25 21 callgsubr
          hintmask 11011010
          17 callgsubr
          endchar
        </CharString>
        <CharString name="Tsmall">
          34 callgsubr
        </CharString>
        <CharString name="U">
          226 115 callgsubr
          hstem
          124 89 383 33 vstem
          723 692 rmoveto
          -220 -31 hlineto
          -104 callgsubr
          7 7 23 3 39 hhcurveto
          endchar
        </CharString>
        <CharString name="Uacute">
          226 115 callgsubr
          256 -20 hstem
          124 89 383 33 vstem
          723 692 rmoveto
          -220 -31 hlineto
          -104 callgsubr
          7 7 23 3 39 hhcurveto
          -161 251 rmoveto
          24 -11 12 -22 311 callgsubr
          -5 133 136 rlineto
          9 9 4 12 13 vvcurveto
          endchar
        </CharString>
        <CharString name="Uacutesmall">
          147 callsubr
          -20 245 hstemhm
          89 92 251 29 hintmask 11011000
          -98 callsubr
          -95 217 rmoveto
          hintmask 10111000
          -83 callsubr
          endchar
        </CharString>
        <CharString name="Ubreve">
          226 115 callgsubr
          52 64 93 -20 hstem
          124 89 383 33 vstem
          723 692 rmoveto
          -220 -31 hlineto
          -104 callgsubr
          7 7 23 3 39 hhcurveto
          -178 240 -72 callgsubr
          endchar
        </CharString>
        <CharString name="Ucircumflex">
          226 115 callgsubr
          218 -20 hstem
          124 89 383 33 vstem
          723 692 rmoveto
          -220 -31 hlineto
          -104 callgsubr
          7 7 23 3 39 hhcurveto
          -285 249 -100 callgsubr
          endchar
        </CharString>
</ttFont>
